<?xml version="1.0" encoding="UTF-8"?>
<svg version="1.1" xmlns="http://www.w3.org/2000/svg" width="862" height="202">
<path d="M0 0 C48.84 0 97.68 0 148 0 C148.33 8.25 148.66 16.5 149 25 C150.98 26.65 152.96 28.3 155 30 C155.74666691 32.50100517 155.74666691 32.50100517 155.74171448 35.1857605 C155.76058968 36.72068649 155.76058968 36.72068649 155.77984619 38.28662109 C155.76298767 39.3984375 155.74612915 40.51025391 155.72875977 41.65576172 C155.7344548 42.83518341 155.74014984 44.0146051 155.74601746 45.22976685 C155.75521818 48.45767591 155.73764037 51.68406085 155.70715833 54.911798 C155.68074234 58.29576715 155.68609069 61.67969997 155.6872406 65.06375122 C155.6844329 70.74827882 155.65841794 76.43232539 155.61743164 82.11669922 C155.57030223 88.67704959 155.55443591 95.23687285 155.5566383 101.79738033 C155.55866975 108.79495932 155.537813 115.79233661 155.51029849 122.78985453 C155.50392266 124.79951534 155.5017774 126.80914333 155.50058174 128.81881332 C155.49406673 132.57462483 155.46778076 136.32977928 155.43579102 140.08544922 C155.43783035 141.74710114 155.43783035 141.74710114 155.43991089 143.44232178 C155.36684829 149.31775098 155.24813723 153.99610801 152 159 C145.75970565 163.22724179 138.4836955 162.42223124 131.18945312 162.38818359 C129.790925 162.39225337 128.39240009 162.39759752 126.99388123 162.40411377 C123.21080774 162.41774506 119.42798077 162.41250617 115.64490318 162.40297651 C111.67769096 162.39535812 107.71049923 162.40243156 103.74328613 162.40713501 C97.08223702 162.41258623 90.42128783 162.40541762 83.76025391 162.39111328 C76.06950958 162.37478794 68.37900388 162.3800769 60.68826532 162.3965925 C54.07403607 162.41022546 47.45987847 162.41211819 40.84563971 162.40427649 C36.90011022 162.3996099 32.95469274 162.39894709 29.00917053 162.40888596 C25.29903609 162.41757978 21.58920802 162.41149 17.87910652 162.39420319 C15.87545818 162.38837249 13.8717838 162.39723324 11.8681488 162.40658569 C5.53891153 162.36206865 0.4960912 162.30986151 -5 159 C-7.20035933 155.699461 -7.25625924 154.68953744 -7.28088379 150.85147095 C-7.29230408 149.78597519 -7.30372437 148.72047943 -7.31549072 147.62269592 C-7.31772644 146.45379318 -7.31996216 145.28489044 -7.32226562 144.08056641 C-7.33219543 142.84945633 -7.34212524 141.61834625 -7.35235596 140.34992981 C-7.37657508 136.97171688 -7.39148941 133.59375156 -7.40037727 130.21548128 C-7.40624149 128.10462533 -7.41445156 125.99379105 -7.42338562 123.88294601 C-7.45072896 117.27762504 -7.47006596 110.67235365 -7.4777894 104.06698 C-7.48675253 96.44348003 -7.52185781 88.82069696 -7.57979059 81.19741499 C-7.62302589 75.30346732 -7.64319795 69.40972134 -7.64587164 63.51561677 C-7.64796755 59.99574301 -7.65977522 56.47654343 -7.69551086 52.9568367 C-7.73460132 49.03039672 -7.72589467 45.10485267 -7.71289062 41.17822266 C-7.73132019 40.01336838 -7.74974976 38.8485141 -7.76873779 37.64836121 C-7.75759949 36.5772258 -7.74646118 35.50609039 -7.73498535 34.40249634 C-7.73791847 33.47446009 -7.74085159 32.54642384 -7.7438736 31.59026527 C-7 29 -7 29 -1 24 C-0.67 16.08 -0.34 8.16 0 0 Z " fill="#EDC55D" transform="translate(25,23)"/>
<path d="M0 0 C7.2115093 4.82110212 12.13926094 12.1623343 14.3125 20.54296875 C17.57342164 42.42617845 12.47617951 63.88447728 -0.65234375 81.71484375 C-9.63421147 92.30780882 -22.36424211 101.65781474 -36.65087891 102.93212891 C-50.33652828 103.53954677 -62.48594424 103.408416 -73.50390625 94.32421875 C-81.65620827 86.65584334 -84.30107071 76.49432593 -84.69018555 65.52514648 C-84.88339382 45.46400626 -79.14031794 26.47788568 -65.7578125 11.18359375 C-58.12747623 3.77595547 -49.47565193 -1.40733359 -39.21484375 -4.28515625 C-38.60592285 -4.45877686 -37.99700195 -4.63239746 -37.36962891 -4.8112793 C-25.08638835 -7.51259019 -10.82021205 -6.27839464 0 0 Z M-41.21484375 20.71484375 C-42.08109375 21.25109375 -42.94734375 21.78734375 -43.83984375 22.33984375 C-54.15546794 32.65546794 -57.49354432 47.24636499 -57.53393555 61.32495117 C-57.43678374 67.13964357 -56.70196923 70.90826538 -53.21484375 75.71484375 C-48.98676156 79.73667803 -45.42083729 81.15911753 -39.52734375 81.05078125 C-32.13838916 79.97738582 -26.2963287 75.66355072 -21.7421875 69.94140625 C-13.33683931 57.68808536 -10.20228314 43.41975739 -12.21484375 28.71484375 C-13.8863576 23.91255792 -16.74488014 20.24782313 -21.21484375 17.71484375 C-28.66744729 15.23064257 -34.70147058 16.61170559 -41.21484375 20.71484375 Z " fill="#000000" transform="translate(479.21484375,56.28515625)"/>
<path d="M0 0 C8.58 0 17.16 0 26 0 C25.39467207 6.05327932 24.82870401 11.46867466 23.58984375 17.3203125 C23.22814087 19.04918701 23.22814087 19.04918701 22.85913086 20.81298828 C22.55499268 22.23595215 22.25085449 23.65891602 21.9375 25.125 C20.968125 29.70375 19.99875 34.2825 19 39 C29.89 39 40.78 39 52 39 C52.66 34.71 53.32 30.42 54 26 C54.79063995 21.57011206 55.67444099 17.16130797 56.5625 12.75 C56.78357422 11.62464844 57.00464844 10.49929687 57.23242188 9.33984375 C57.44576172 8.27378906 57.65910156 7.20773438 57.87890625 6.109375 C58.0704126 5.14999023 58.26191895 4.19060547 58.45922852 3.20214844 C59 1 59 1 60 0 C61.92667507 -0.08748207 63.85651861 -0.10697334 65.78515625 -0.09765625 C66.95498047 -0.09443359 68.12480469 -0.09121094 69.33007812 -0.08789062 C70.56177734 -0.07951172 71.79347656 -0.07113281 73.0625 -0.0625 C74.91584961 -0.05573242 74.91584961 -0.05573242 76.80664062 -0.04882812 C79.87114117 -0.03699608 82.93554721 -0.02051173 86 0 C83.41188824 13.11740618 80.82168293 26.23439702 78.22878361 39.35085773 C77.02494038 45.4409766 75.82182628 51.53123763 74.62036133 57.62182617 C73.46145144 63.49655044 72.30064875 69.37089777 71.13851738 75.24498558 C70.69487118 77.48919465 70.25191403 79.73354005 69.80964851 81.97802162 C69.19139529 85.11502164 68.57072201 88.25153356 67.94946289 91.38793945 C67.67433365 92.7883976 67.67433365 92.7883976 67.39364624 94.21714783 C67.22398849 95.07110138 67.05433075 95.92505493 66.87953186 96.80488586 C66.73296678 97.54692922 66.58640169 98.28897257 66.43539524 99.05350208 C66 101 66 101 65 104 C56.42 104 47.84 104 39 104 C40.41272315 94.32353224 42.17307713 84.76642025 44.125 75.1875 C45.07375 70.505625 46.0225 65.82375 47 61 C36.11 61 25.22 61 14 61 C13.67 63.97 13.34 66.94 13 70 C12.49148193 72.78625868 11.95858508 75.54778113 11.37109375 78.31640625 C11.21713638 79.05833725 11.06317902 79.80026825 10.90455627 80.56468201 C10.41942758 82.89811944 9.92857679 85.23030795 9.4375 87.5625 C9.10443575 89.15942559 8.77175019 90.75643022 8.43945312 92.35351562 C7.63136587 96.23676785 6.81552455 100.11827348 6 104 C-2.58 104 -11.16 104 -20 104 C-19.32396646 97.23966459 -18.50685993 90.84425216 -17.14233398 84.23583984 C-16.95687012 83.31754395 -16.77140625 82.39924805 -16.58032227 81.453125 C-15.97356589 78.45476352 -15.35989601 75.45786377 -14.74609375 72.4609375 C-14.32110838 70.36781389 -13.89655966 68.27460157 -13.47242737 66.18130493 C-12.36052012 60.69948675 -11.2427225 55.21888615 -10.12365723 49.73852539 C-8.98054259 44.13500634 -7.84305355 38.5303458 -6.70507812 32.92578125 C-4.47552872 21.94940016 -2.23923014 10.97441028 0 0 Z " fill="#000000" transform="translate(312,53)"/>
<path d="M0 0 C1.093125 0.61875 2.18625 1.2375 3.3125 1.875 C6 4 6 4 11 10 C5.72 15.28 0.44 20.56 -5 26 C-9 24 -9 24 -12.0625 21.9375 C-17.5094719 18.34481641 -22.65540435 18.41716313 -29 19 C-36.17573412 20.74658631 -42.32019817 24.2544048 -47 30 C-54.27591302 42.06911805 -57.25954272 52.77183224 -56 67 C-54.50910174 72.37529265 -51.81795109 76.08682027 -47 79 C-39.12248651 82.02981288 -32.88086571 81.62695524 -25 79 C-23.515 71.575 -23.515 71.575 -22 64 C-27.28 63.67 -32.56 63.34 -38 63 C-36.68 56.07 -35.36 49.14 -34 42 C-20.8 42 -7.6 42 6 42 C4.87140481 52.15735667 4.87140481 52.15735667 4.27905273 55.59838867 C4.07764931 56.7695649 4.07764931 56.7695649 3.87217712 57.96440125 C3.24745066 61.45930926 2.60340379 64.95029479 1.94604492 68.43920898 C1.60646029 70.27440062 1.27998974 72.11206645 0.96655273 73.9519043 C0.50802936 76.63494703 0.00673509 79.30691733 -0.50390625 81.98046875 C-0.63446915 82.79621872 -0.76503204 83.61196869 -0.89955139 84.45243835 C-2.05867719 90.17138217 -4.19763805 92.61741545 -9.02914429 95.84742737 C-11.641119 97.37493166 -14.24578494 98.64302719 -17.0625 99.75 C-18.02285156 100.13671875 -18.98320313 100.5234375 -19.97265625 100.921875 C-32.91371947 105.53056332 -49.6942725 106.62074357 -62.6328125 101.2578125 C-66.49539137 99.20541911 -69.7931686 96.97826675 -73 94 C-73.94166016 93.13761719 -73.94166016 93.13761719 -74.90234375 92.2578125 C-82.68926915 84.3227215 -84.37784974 75.01347362 -84.5 64.25 C-84.2812904 44.77390999 -77.66413005 27.1810297 -64 13 C-48.51439839 -1.64510021 -19.97287369 -12.11743383 0 0 Z " fill="#000000" transform="translate(844,55)"/>
<path d="M0 0 C1.093125 0.61875 2.18625 1.2375 3.3125 1.875 C6 4 6 4 11 10 C5.72 15.28 0.44 20.56 -5 26 C-9 24 -9 24 -12.0625 21.9375 C-17.5094719 18.34481641 -22.65540435 18.41716313 -29 19 C-36.17573412 20.74658631 -42.32019817 24.2544048 -47 30 C-54.27591302 42.06911805 -57.25954272 52.77183224 -56 67 C-54.50910174 72.37529265 -51.81795109 76.08682027 -47 79 C-39.12248651 82.02981288 -32.88086571 81.62695524 -25 79 C-23.515 71.575 -23.515 71.575 -22 64 C-27.28 63.67 -32.56 63.34 -38 63 C-36.68 56.07 -35.36 49.14 -34 42 C-20.8 42 -7.6 42 6 42 C4.87140481 52.15735667 4.87140481 52.15735667 4.27905273 55.59838867 C4.07764931 56.7695649 4.07764931 56.7695649 3.87217712 57.96440125 C3.24745066 61.45930926 2.60340379 64.95029479 1.94604492 68.43920898 C1.60646029 70.27440062 1.27998974 72.11206645 0.96655273 73.9519043 C0.50802936 76.63494703 0.00673509 79.30691733 -0.50390625 81.98046875 C-0.63446915 82.79621872 -0.76503204 83.61196869 -0.89955139 84.45243835 C-2.05867719 90.17138217 -4.19763805 92.61741545 -9.02914429 95.84742737 C-11.641119 97.37493166 -14.24578494 98.64302719 -17.0625 99.75 C-18.02285156 100.13671875 -18.98320313 100.5234375 -19.97265625 100.921875 C-32.91371947 105.53056332 -49.6942725 106.62074357 -62.6328125 101.2578125 C-66.49539137 99.20541911 -69.7931686 96.97826675 -73 94 C-73.94166016 93.13761719 -73.94166016 93.13761719 -74.90234375 92.2578125 C-82.68926915 84.3227215 -84.37784974 75.01347362 -84.5 64.25 C-84.2812904 44.77390999 -77.66413005 27.1810297 -64 13 C-48.51439839 -1.64510021 -19.97287369 -12.11743383 0 0 Z " fill="#000000" transform="translate(750,55)"/>
<path d="M0 0 C10.56 0 21.12 0 32 0 C33.43713857 12.82131921 34.87195208 25.64289275 36.30266571 38.46493053 C36.96708439 44.41859769 37.63252435 50.37214702 38.30029297 56.32543945 C38.94459843 62.06989135 39.58622812 67.81463636 40.22599792 73.55959511 C40.47064291 75.75215638 40.71625444 77.94461003 40.96284485 80.13695335 C41.30786176 83.20585103 41.64945092 86.27511218 41.99023438 89.34448242 C42.0930925 90.25222916 42.19595062 91.15997589 42.30192566 92.0952301 C42.39448135 92.93510468 42.48703705 93.77497925 42.58239746 94.64030457 C42.70407413 95.72848118 42.70407413 95.72848118 42.82820892 96.83864117 C43.01740203 99.21894055 43 101.61219365 43 104 C34.09 104 25.18 104 16 104 C15.09166031 101.27498092 14.81640015 99.37766029 14.68359375 96.55078125 C14.64548584 95.78677002 14.60737793 95.02275879 14.56811523 94.2355957 C14.52501221 93.27097412 14.48190918 92.30635254 14.4375 91.3125 C14.2209375 86.7028125 14.2209375 86.7028125 14 82 C-0.85 81.505 -0.85 81.505 -16 81 C-16.99 83.97 -17.98 86.94 -19 90 C-20.18856594 92.56801506 -21.38347734 95.05978318 -22.6875 97.5625 C-23.780625 99.686875 -24.87375 101.81125 -26 104 C-34.91 104 -43.82 104 -53 104 C-51.86304688 101.72738281 -50.72609375 99.45476562 -49.5546875 97.11328125 C-46.94040713 91.88641185 -44.33017489 86.65755525 -41.72572327 81.42578125 C-26.77198094 51.38843651 -26.77198094 51.38843651 -20.56835938 39.78100586 C-16.37234501 31.89893468 -12.42130799 23.8939075 -8.46362305 15.89013672 C-7.94195557 14.83842285 -7.42028809 13.78670898 -6.8828125 12.703125 C-6.42277832 11.77145508 -5.96274414 10.83978516 -5.48876953 9.87988281 C-3.75870316 6.53323426 -1.86914616 3.27100578 0 0 Z M11 20 C9.05590956 24.39021568 7.11725291 28.78277754 5.18334961 33.17749023 C4.52626858 34.66868884 3.86776965 36.15926358 3.20776367 37.64916992 C2.25315597 39.80480563 1.30386264 41.96271821 0.35546875 44.12109375 C0.0647197 44.77460312 -0.22602936 45.42811249 -0.52558899 46.10142517 C-2.68159936 51.02820288 -4.28062381 55.84187143 -6 61 C0.27 61 6.54 61 13 61 C13.10543251 47.29377379 12.7312674 33.68598057 12 20 C11.67 20 11.34 20 11 20 Z " fill="#000000" transform="translate(618,53)"/>
<path d="M0 0 C6.93759035 -0.07649331 13.87507065 -0.12878497 20.81298828 -0.16479492 C23.16980046 -0.17981778 25.52658498 -0.20024196 27.88330078 -0.22631836 C31.28424942 -0.26298821 34.68482621 -0.27979196 38.0859375 -0.29296875 C39.12801361 -0.30845261 40.17008972 -0.32393646 41.2437439 -0.33988953 C51.57329871 -0.34222947 61.19074058 1.87604293 69 9 C74.30810717 16.61024204 74.93318809 24.98963602 73.5390625 33.96875 C71.16304391 44.81457604 65.90351349 54.18479078 57 61 C45.56931304 67.84221758 35.6723917 70.35273473 22.4375 70.125 C20.92446289 70.11146484 20.92446289 70.11146484 19.38085938 70.09765625 C16.92031543 70.07433356 14.46029104 70.04160763 12 70 C11.93631226 70.86310791 11.93631226 70.86310791 11.87133789 71.74365234 C11.26421784 78.83677983 9.94456355 85.6742899 8.4375 92.625 C7.2309375 98.255625 7.2309375 98.255625 6 104 C-2.58 104 -11.16 104 -20 104 C-19.32396646 97.23966459 -18.50685993 90.84425216 -17.14233398 84.23583984 C-16.95687012 83.31754395 -16.77140625 82.39924805 -16.58032227 81.453125 C-15.97356589 78.45476352 -15.35989601 75.45786377 -14.74609375 72.4609375 C-14.32110838 70.36781389 -13.89655966 68.27460157 -13.47242737 66.18130493 C-12.36052012 60.69948675 -11.2427225 55.21888615 -10.12365723 49.73852539 C-8.98054259 44.13500634 -7.84305355 38.5303458 -6.70507812 32.92578125 C-4.47552909 21.94940199 -2.23975008 10.97430192 0 0 Z M22 20 C21.15873388 24.06089895 20.32838113 28.12395474 19.5 32.1875 C19.26152344 33.33798828 19.02304687 34.48847656 18.77734375 35.67382812 C18.55175781 36.78564453 18.32617188 37.89746094 18.09375 39.04296875 C17.88427734 40.06414795 17.67480469 41.08532715 17.45898438 42.13745117 C17.02898209 44.81924732 16.91294839 47.29051865 17 50 C26.18689938 50.3518387 35.76213854 50.37621129 43 44 C46.81886152 38.62166771 48.68502575 33.62191554 48 27 C45.15970004 23.00582819 42.27975925 21.25948892 37.46875 20.26953125 C32.32298453 19.70773091 27.16623636 19.88229634 22 20 Z " fill="#000000" transform="translate(512,53)"/>
<path d="M0 0 C1.32572021 0.00241699 1.32572021 0.00241699 2.67822266 0.00488281 C13.62084715 0.20994394 22.14391893 3.49092245 30.125 11.125 C30.82625 11.8675 31.5275 12.61 32.25 13.375 C30.92879172 16.30730193 29.50361803 18.36164899 27.2109375 20.609375 C26.63085938 21.18300781 26.05078125 21.75664063 25.453125 22.34765625 C24.84984375 22.93417969 24.2465625 23.52070312 23.625 24.125 C23.01398438 24.72699219 22.40296875 25.32898438 21.7734375 25.94921875 C20.27011376 27.42905305 18.76065144 28.90264676 17.25 30.375 C13.8414856 29.08626841 10.78333885 27.55627406 7.625 25.75 C0.93025896 22.37265303 -5.21261316 22.25793047 -12.3125 24.5 C-15.33996526 26.82881943 -15.9333202 28.69994088 -16.75 32.375 C-11.57155592 38.73610426 -4.1251785 40.98999828 3.25976562 44.09375 C11.08471963 47.50650253 17.40621196 51.11776484 22.22265625 58.328125 C23.45196325 61.97397847 23.74625858 65.31616883 23.6875 69.125 C23.67775146 69.83092285 23.66800293 70.5368457 23.65795898 71.26416016 C23.27198369 82.7021127 18.45008001 89.67934132 10.25 97.375 C-2.32285966 108.29793289 -16.25804064 109.51513317 -32.27148438 108.60253906 C-41.25896463 107.7774473 -48.76097786 103.93950807 -55.75 98.375 C-56.34683594 97.92253906 -56.94367188 97.47007812 -57.55859375 97.00390625 C-58.75 95.375 -58.75 95.375 -58.53564453 93.00878906 C-57.63832458 90.00062011 -56.61174856 88.77080744 -54.37109375 86.60546875 C-53.69755859 85.94482422 -53.02402344 85.28417969 -52.33007812 84.60351562 C-51.62302734 83.92998047 -50.91597656 83.25644531 -50.1875 82.5625 C-49.47658203 81.86962891 -48.76566406 81.17675781 -48.03320312 80.46289062 C-46.28081688 78.7575483 -44.51978531 77.06224824 -42.75 75.375 C-39.740227 77.16107636 -36.79291176 79.00635093 -33.875 80.9375 C-27.53306812 84.87305399 -21.14111374 86.22230581 -13.75 85.375 C-10.32335454 84.48420222 -7.56461292 83.35932395 -5.25 80.5625 C-4.52449633 77.38842146 -4.76547885 75.49722642 -5.75 72.375 C-8.20246368 70.72459991 -10.26636397 69.59839552 -12.9375 68.4375 C-14.01040283 67.93391968 -14.01040283 67.93391968 -15.10498047 67.42016602 C-17.31138799 66.38516651 -19.52884966 65.37790853 -21.75 64.375 C-39.30931331 56.36163701 -39.30931331 56.36163701 -43.625 46.5 C-46.16855078 38.62710472 -44.98898128 30.87519425 -41.75 23.375 C-35.35595627 11.92323384 -25.77676848 5.52720487 -13.55078125 1.2578125 C-8.96288024 0.19217465 -4.69471938 -0.0088831 0 0 Z " fill="#000000" transform="translate(267.75,50.625)"/>
<path d="M0 0 C47.85 0 95.7 0 145 0 C142.06792248 2.93207752 139.74534068 5.0181356 136.375 7.25 C135.59898437 7.77078125 134.82296875 8.2915625 134.0234375 8.828125 C132 10 132 10 130 10 C130 16.6 130 23.2 130 30 C92.05 30 54.1 30 15 30 C15 23.4 15 16.8 15 10 C12.525 9.01 12.525 9.01 10 8 C8.19773984 6.8607611 6.42631194 5.67141247 4.6875 4.4375 C3.80449219 3.81746094 2.92148437 3.19742187 2.01171875 2.55859375 C1.34785156 2.04425781 0.68398438 1.52992187 0 1 C0 0.67 0 0.34 0 0 Z " fill="#D07C3F" transform="translate(26,23)"/>
<path d="M0 0 C0.73605469 0.47050781 1.47210938 0.94101562 2.23046875 1.42578125 C3.20628906 2.04839844 4.18210937 2.67101562 5.1875 3.3125 C6.15042969 3.92738281 7.11335938 4.54226562 8.10546875 5.17578125 C10.71450242 6.82007103 13.35553497 8.41332098 16 10 C16 16.6 16 23.2 16 30 C53.95 30 91.9 30 131 30 C131 23.4 131 16.8 131 10 C142.8 0 142.8 0 148 0 C147.99887207 0.73114014 147.99774414 1.46228027 147.99658203 2.21557617 C148.00871576 5.54048134 148.06638804 8.8631028 148.125 12.1875 C148.12242187 13.33798828 148.11984375 14.48847656 148.1171875 15.67382812 C148.05446839 21.62799869 148.05446839 21.62799869 150.39355469 26.88134766 C152.19088162 28.41663875 152.19088162 28.41663875 155 30 C155 30.33 155 30.66 155 31 C101.54 31 48.08 31 -7 31 C-5 27 -5 27 -2.91308594 25.59643555 C-0.75422353 24.12822454 -0.75422353 24.12822454 -0.45410156 21.45629883 C-0.4331543 20.46654053 -0.41220703 19.47678223 -0.390625 18.45703125 C-0.35839844 17.38388672 -0.32617188 16.31074219 -0.29296875 15.20507812 C-0.27169922 13.52575195 -0.27169922 13.52575195 -0.25 11.8125 C-0.22035156 10.68134766 -0.19070312 9.55019531 -0.16015625 8.38476562 C-0.08939691 5.58977167 -0.03673024 2.79561472 0 0 Z " fill="#DBA14E" transform="translate(25,23)"/>
<path d="M0 0 C3.53571429 0.53571429 3.53571429 0.53571429 5 2 C5.32558177 4.01564712 5.61002447 6.03799394 5.875 8.0625 C7.59766623 19.35826856 11.31530374 27.17074933 20.13671875 34.86328125 C28.1941239 40.69296576 38.11358566 43.32115747 48 42 C60.36037554 39.12888915 69.00774794 33.57942304 76 23 C76.4125 22.38511719 76.825 21.77023438 77.25 21.13671875 C80.84158294 14.97028775 81.2548949 7.98045831 82 1 C83.66611905 0.957279 85.33382885 0.95936168 87 1 C88 2 88 2 88.25 5.3125 C88.0262811 17.81838627 83.09106313 28.00913856 74.5 36.875 C64.27949419 46.53524553 54.27413959 49.64757815 40.42431641 49.54248047 C27.80645768 49.08853226 18.07182717 43.45906957 9.4375 34.5 C2.85594406 26.67778294 -2.10001197 16.6185902 -2.1875 6.3125 C-2.20167969 5.54550781 -2.21585938 4.77851562 -2.23046875 3.98828125 C-2 2 -2 2 0 0 Z " fill="#FCF9F4" transform="translate(53,87)"/>
<path d="M0 0 C0.495 0.99 0.495 0.99 1 2 C-6.71738143 12.71996392 -15.21556925 21.26864907 -28.390625 24.60546875 C-40.62725477 26.45561786 -51.3379208 25.07267848 -61.8203125 18.1328125 C-66.86006459 14.26649523 -71.15808098 10.0551566 -75 5 C-75 4.34 -75 3.68 -75 3 C-74.34 3 -73.68 3 -73 3 C-72.00003131 4.15265852 -71.05049221 5.34923037 -70.125 6.5625 C-64.29022335 13.44924896 -54.96012178 19.24567777 -45.84643555 20.23339844 C-32.14716392 21.02414546 -20.91257974 19.60316274 -9.890625 10.7578125 C-6.30925577 7.42802706 -3.13242703 3.74891533 0 0 Z " fill="#CFAE58" transform="translate(134,115)"/>
<path d="M0 0 C0 7.59 0 15.18 0 23 C-5.19100171 21.96179966 -7.20418002 20.43983462 -10.8125 16.9375 C-11.31458984 16.46505859 -11.81667969 15.99261719 -12.33398438 15.50585938 C-13.56422789 14.34591548 -14.78327065 13.17411185 -16 12 C-14.47330418 7.7634191 -11.69124336 6.14575891 -8 3.75 C-6.9275 3.04359375 -5.855 2.3371875 -4.75 1.609375 C-2 0 -2 0 0 0 Z " fill="#EDC45C" transform="translate(173,23)"/>
<path d="M0 0 C11.25 7.09821429 11.25 7.09821429 15 10 C13.41102996 14.04809035 10.69374052 16.37563353 7.5 19.25 C7.00113281 19.70890625 6.50226562 20.1678125 5.98828125 20.640625 C2.25897507 24 2.25897507 24 0 24 C0 16.08 0 8.16 0 0 Z " fill="#EDC45C" transform="translate(25,23)"/>
<path d="M0 0 C2.5 1.625 2.5 1.625 4 4 C3.81623488 7.06275204 3.36973455 9.2605309 2 12 C1.34 12 0.68 12 0 12 C-0.33 10.02 -0.66 8.04 -1 6 C-2.65 5.67 -4.3 5.34 -6 5 C-6 7.31 -6 9.62 -6 12 C-6.66 12 -7.32 12 -8 12 C-10.31282587 8.53076119 -10.42478586 7.07794425 -10 3 C-7.71982624 -1.02383605 -4.21281932 -0.51736378 0 0 Z " fill="#D4884C" transform="translate(141,83)"/>
<path d="M0 0 C5.23350977 0.64271173 5.23350977 0.64271173 7.5625 3.4375 C8 6.4375 8 6.4375 7.5625 9.4375 C6.0625 11.3125 6.0625 11.3125 4.5625 12.4375 C3.9025 10.1275 3.2425 7.8175 2.5625 5.4375 C1.2425 5.7675 -0.0775 6.0975 -1.4375 6.4375 C-1.7675 8.4175 -2.0975 10.3975 -2.4375 12.4375 C-3.0975 12.4375 -3.7575 12.4375 -4.4375 12.4375 C-6.60925481 9.17986778 -6.89793998 8.21310787 -6.4375 4.4375 C-4.7941378 0.8607705 -3.95840405 0.50379688 0 0 Z " fill="#D38545" transform="translate(53.4375,82.5625)"/>
<path d="M0 0 C0.33 0.66 0.66 1.32 1 2 C-5.48886771 11.0134754 -12.06564124 18.81909563 -23 22 C-23 20.68 -23 19.36 -23 18 C-22.46632813 17.81566406 -21.93265625 17.63132813 -21.3828125 17.44140625 C-12.36661738 13.93164171 -5.84647401 7.58569969 0 0 Z " fill="#D0B05C" transform="translate(134,115)"/>
<path d="M0 0 C0.33 0.66 0.66 1.32 1 2 C-1.31 4.97 -3.62 7.94 -6 11 C-6.99 10.67 -7.98 10.34 -9 10 C-6.03 6.7 -3.06 3.4 0 0 Z " fill="#D6B86D" transform="translate(134,115)"/>
</svg>
