<svg xmlns="http://www.w3.org/2000/svg" viewBox="0 0 9937.09 3087.21"><defs><style>.cls-1{fill:#0f0f10;}.cls-1,.cls-2,.cls-3,.cls-4,.cls-5,.cls-7,.cls-8,.cls-9{fill-rule:evenodd;}.cls-2,.cls-4{fill:#0f76bc;}.cls-3,.cls-6{fill:#0098cc;}.cls-4,.cls-5{opacity:0.45;}.cls-5{fill:#33c5f3;}.cls-7{fill:#fff;}.cls-8{fill:#d0d2d3;}.cls-9{fill:#e5e5e4;}.cls-10{fill:#ffcc02;}.cls-11{fill:#46c7f4;}.cls-12{fill:#ef6596;}.cls-13{fill:#98cb66;}</style></defs><g id="right_logo" data-name="right logo"><g id="Layer_2" data-name="Layer 2"><path class="cls-1" d="M11758.32,1273.66c2.07-.76,4.18-1.51,6.37-2.27-3.75,2-5.74,3.13-5.74,3.13l-.63-.86Z" transform="translate(-2560.42 -1113.66)"/><path class="cls-2" d="M12466.45,1950.19c31.74-65.94,39.27-141.07,22-220.16-15.75-72.3-53.95-130.58-119.63-162.87-25-12.29-61.79-23.27-90-23.27h-9.49l1.67-9.63c5.6-32.2,2.11-76.66-4.62-108-17.08-79.56-62.19-141.26-130.73-182-71.64-42.61-151.71-53.72-232.4-37.88-30.06,5.9-67.64,17.42-96.8,32.45a437.49,437.49,0,0,1,64.21-18c84.44-16.58,168.37-4.79,243.32,39.78,72.39,43.06,120.26,108.62,138.29,192.66,6.57,30.61,10.08,72,6.1,105.17,29,1.94,63.15,12.49,87.67,24.55,70.1,34.47,111.45,96.82,128.27,174,14.69,67.45,12.38,132.93-7.91,193.23Zm-677.51-704.49-2.68-3.71c-47.24-65.51-133.15-128.33-214.47-128.33-34.23,0-66.28,9-95.18,24.66a209.42,209.42,0,0,1,65.56-10.49c84.14,0,172,61.64,223,129.24,7.41-4,15.41-7.83,23.73-11.37Z" transform="translate(-2560.42 -1113.66)"/><path class="cls-2" d="M10656.8,1427.33c-76,76-122.61,192.38-95.31,297.35,14.6,56.15,41.17,115.51,88.26,150.41,12.55,9.3,31.33,19.47,48.3,23.2-8.73,31.86-12.53,71.32-12.21,102.7.84,79.88,26.26,153.48,81.73,210.63,47.61,49.05,107.46,68.2,169.29,67.66-3,.53-6,1-8.86,1.41-73.47,10.58-144-4.4-197.93-59.93-52.52-54.1-76.3-123.65-77.08-199.23-.34-32.69,4.05-75.28,14.17-106.72l3.28-10.19-10.4-.56c-15.82-.85-37.35-12.36-49.75-21.55-43.9-32.53-68.61-89.12-82.2-141.35-20.12-77.38,2-157.86,44.31-223,20.62-31.76,50.51-65.74,84.4-90.83Z" transform="translate(-2560.42 -1113.66)"/><path class="cls-3" d="M11759,1274.52s171.58-101.28,341.85,0,137.12,294.15,137.12,294.15,172.8,0,214.12,189.65-65,313.33-159.65,369.61-216-1.93-216-1.93,15.18,140.45-184.08,195.46-255.45-71.61-255.45-71.61c-14.83,53.29-61.72,87.39-119,107.4-138.54,48.37-359.69,32.47-421.92-128.69,0,0-188.78,99.67-311.81-27.09s-63.86-309.63-63.86-309.63-95.17-5.08-137.13-166.42,95.55-324.14,197.22-352.21,142.76-9.67,142.76-9.67,47-197.39,210.37-197.39,216,92.89,216,92.89,67.4-114.18,191.95-114.18S11759,1274.52,11759,1274.52Z" transform="translate(-2560.42 -1113.66)"/></g><g id="Layer_2_copy" data-name="Layer 2 copy"><path class="cls-1" d="M11733.08,2144.63c1.81-.57,3.66-1.14,5.57-1.71-3.28,1.47-5,2.35-5,2.35l-.55-.64Z" transform="translate(-2560.42 -1113.66)"/><path class="cls-4" d="M12352.75,2653.89c27.78-49.64,34.37-106.19,19.29-165.73-13.79-54.42-47.21-98.29-104.68-122.6-21.88-9.25-54.08-17.52-78.76-17.52h-8.3l1.46-7.24c4.9-24.24,1.85-57.71-4.05-81.34-14.94-59.89-54.42-106.33-114.39-137-62.7-32.08-132.76-40.44-203.38-28.52-26.3,4.45-59.19,13.11-84.7,24.43a432.43,432.43,0,0,1,56.19-13.55c73.89-12.48,147.33-3.61,212.92,30,63.35,32.41,105.24,81.76,121,145,5.75,23,8.82,54.22,5.34,79.17,25.33,1.46,55.26,9.4,76.71,18.47,61.35,25.95,97.53,72.89,112.25,131,12.86,50.77,10.84,100.06-6.92,145.45Zm-592.88-530.31-2.34-2.79c-41.34-49.31-116.52-96.6-187.68-96.6a196.4,196.4,0,0,0-83.29,18.56,210.62,210.62,0,0,1,57.37-7.9c73.62,0,150.53,46.4,195.17,97.29,6.49-3,13.49-5.9,20.77-8.56Z" transform="translate(-2560.42 -1113.66)"/><path class="cls-4" d="M10769.15,2260.3c-66.48,57.21-107.29,144.82-83.4,223.84,12.78,42.27,36,87,77.24,113.22,11,7,27.41,14.65,42.26,17.46-7.64,24-11,53.69-10.68,77.31.73,60.13,23,115.53,71.52,158.55,41.66,36.92,94,51.34,148.14,50.94-2.63.39-5.22.74-7.75,1.06-64.3,8-126-3.32-173.21-45.12-46-40.73-66.77-93.08-67.45-150-.3-24.61,3.54-56.66,12.4-80.34l2.87-7.66-9.11-.42c-13.83-.64-32.68-9.31-43.53-16.23-38.41-24.48-60-67.08-71.93-106.4-17.6-58.25,1.77-118.83,38.78-167.87,18-23.9,44.2-49.48,73.85-68.37Z" transform="translate(-2560.42 -1113.66)"/><path class="cls-5" d="M11733.63,2145.28s150.15-76.24,299.15,0,120,221.42,120,221.42,151.21,0,187.37,142.76-56.91,235.86-139.71,278.23-189-1.46-189-1.46,13.28,105.73-161.09,147.13-223.54-53.9-223.54-53.9c-13,40.12-54,65.79-104.16,80.85-121.24,36.41-314.76,24.43-369.22-96.87,0,0-165.2,75-272.86-20.4s-55.88-233.07-55.88-233.07-83.28-3.83-120-125.28,83.61-244,172.59-265.12,124.92-7.28,124.92-7.28,41.09-148.59,184.09-148.59,189,69.92,189,69.92,59-85.94,168-85.94,190.38,97.6,190.38,97.6Z" transform="translate(-2560.42 -1113.66)"/></g><g id="Layer_6" data-name="Layer 6"><path class="cls-6" d="M11111.54,3874.4c2,13.85,14.67,33.79,66.69,40.82,82.92,11.3,52.91,5.54,85.18,27.07,0,0,20.2,5.55,35.77-24.83l210.2-15.24s-103.69,191.54-209.07,277.34c-7.9,6.5-4.52,19.4,5.75,20.68,11.62,1.49,26.06.75,40.28-6.82,31.48-16.42,28.43-33.79,95.23-29.95,0,0,33.73,7.46,23.8-49.57-8.34-48,138.45-194.2,185.49-239.5,4.52,0,9.26-.11,13.88-.43,0,0,76.84,74.72,153.67,53.72s187.3,3.73,187.3,3.73,190.46-6.07,52.24-93.58c-118.25-74.83-63.3-268.29-45-322.43a83.13,83.13,0,0,0,4.4-27.82c-.11-19.93,3.5-55.43,29.79-58.73,10.27-3.63,19.86-7.36,28.88-11.09,4.85-2,9.59-4.05,14.1-6.07,3.16-.54,6.32-1.07,9.26-1.71a170.71,170.71,0,0,0,18.95-4.9l-3.95,7.35-3.16,5.55v.1c-3.83,14.28,11.29,38.16,13.32,41.57l.22.21c5.76,5.76,9.14,11.94,6.44,18.44-8,19.72-13,31.66-14.11,35-1.35,3.41,11.28,14.6,3.72,23.87a71,71,0,0,1-7.33,7.82c-7.72,7.2-10.93,17.89-7.38,27.58a13.16,13.16,0,0,0,1,2.12c1.92,3.2,12,22.49,16.13,33.9a8.36,8.36,0,0,1,1.13,3.09,2.11,2.11,0,0,0,.23,1,12.28,12.28,0,0,1,.34,3.73v.1a19.76,19.76,0,0,1-6,12.37c-9.59,9.8-19.41,24.3-.79,30.59,29.22,9.7,57.77,20.68,54.38,8.42-3.5-12-36.1.64-22.45-22.71,14.1-23.23,56.64-26.32,44.34-48.17-12.07-21.64-22-43.92,36.67-95.93,38.36-33.9,18.73-52.12.45-60.65-9.93-4.69-13.2-13.33-7.67-20.68,17.37-22.06,44.11-64.81,15.91-87.19a70.91,70.91,0,0,0-24-12.79c-.79-.32-1.24-.42-1.91-.64a57.65,57.65,0,0,0-8.81,1.17c1-3.94,1.81-7.67,2.49-11.3,3.83-23,.67-40.6.67-40.6a81.48,81.48,0,0,0-2.59-8.53c-4.63-12.15-12.86-24.52-26.18-36.67-105.94-97.63-170.48-57-162.92-13.53,0,0-52.24,34.53-55.29,55.63s-20.31-2.66-28.32,30.7c-4.74,19.19-3.16,21.85-7.78,24.41-6.66,3.84-12.08,9.81-13,17.37-1.46,11.3-2,24.63,3.16,29.64,9.14,8.95,79.77,55.64,6.09,48.07-33.17-3.31-91.61-65.45-145.77-132.81l-.4-637.23c-7.45-5.43-14.67-11.19-21.55-17l.4,627.1c-57-73.76-104.48-145-104.48-145s1.13-75.57-29.22-83.67l-10.72-242.28-1.13-27-.79-17.8-4-119.27a31,31,0,0,1-4.28-.64c-5.87-.85-11.62-1.91-17.49-3l2.63,88.36,1.58,34.64.68,13.86,12.18,275.95c-30.57,12.37-38.81,51.7-3.27,83.78,2.37,2.13,4.74,4.48,7.22,7.14l23.58,536.46c-46.26,7.46-100.87,45.84-130.43,69.18a38.46,38.46,0,0,0-11.28,46.79,185.19,185.19,0,0,0,23.13,37.52c-88.57,25.9-211.33,58.73-261.76,57.35-59.69-1.6-102.56-4.91-122-6.72A11.43,11.43,0,0,0,11111.54,3874.4Zm664-494.25c24.71,32,49.64,60.75,66.45,71.3,24.49,15.25-14.44,73.23-66.45,123.33Zm-127.61,275.42-22.23-506.4c33.51,47.11,66.68,113,66.68,113s28.32,43.49,61.61,89.33V3594.6C11716.19,3627.43,11675.35,3653.33,11647.93,3655.57Z" transform="translate(-2560.42 -1113.66)"/></g><g id="Layer_1" data-name="Layer 1"><path class="cls-7" d="M11709.22,2038.87c0-295.42-251-534.9-560.62-534.9-164.45,0-312.37,67.56-414.92,175.17,163.82-299.16,517.31-456.6,862.86-384.32s597.57,356.41,615.17,693.52-203.57,643.72-539.88,748.42-704.45-18.45-898.62-300.59c99.38,85.53,231,137.61,375.39,137.61,309.63,0,560.62-239.49,560.62-534.91" transform="translate(-2560.42 -1113.66)"/><path class="cls-8" d="M11709.22,2038.87c0-287.26-237.33-521.6-535.11-534.33l.11,0c275,1.85,516.23,175.63,593.38,427.51a570.18,570.18,0,0,1,22.4,112.22c-32.27,8.68-55.92,37-55.92,70.54,0,32.21,21.78,59.56,52.06,69.38-25.25,165.52-123.28,317.64-277.24,413,133.45-37.19,249.32-108.77,337.9-203.13,3.67,21.47,23.19,37.85,46.72,37.85,26.15,0,47.34-20.22,47.34-45.17A43.31,43.31,0,0,0,11935,2365c16.92-6.89,28.77-22.91,28.77-41.57,0-19.37-12.78-35.89-30.74-42.31,56-91.32,90.51-195.49,97.94-305.81a662.75,662.75,0,0,0-12-177.49c43.71-11.21,75.89-49.29,75.89-94.54,0-54.06-45.93-97.89-102.6-97.89a106.55,106.55,0,0,0-40.43,7.9c-74.89-138.85-198.38-252.93-355.35-318.45,345.55,72.29,597.57,356.41,615.17,693.52s-203.57,643.72-539.88,748.42-704.46-18.45-898.62-300.59c99.38,85.53,231,137.61,375.39,137.61,309.62,0,560.62-239.49,560.62-534.91" transform="translate(-2560.42 -1113.66)"/><path class="cls-9" d="M11696.87,1494c-42.41,0-76.79,32.8-76.79,73.27s34.38,73.27,76.79,73.27,76.79-32.8,76.79-73.27-34.38-73.27-76.79-73.27" transform="translate(-2560.42 -1113.66)"/><path class="cls-9" d="M11916.46,2294.86c-16.52,0-29.92,12.79-29.92,28.55s13.4,28.56,29.92,28.56,29.92-12.79,29.92-28.56-13.39-28.55-29.92-28.55" transform="translate(-2560.42 -1113.66)"/><path class="cls-9" d="M11983.77,1633.62a78,78,0,0,0-60.42,28.05,68.69,68.69,0,0,1,32.54-8.11c36.73,0,66.5,28.41,66.5,63.45,0,30.39-22.38,55.78-52.28,62a80.88,80.88,0,0,0,13.66,1.16c42.42,0,76.8-32.8,76.8-73.27s-34.38-73.27-76.8-73.27" transform="translate(-2560.42 -1113.66)"/><path class="cls-9" d="M11802.46,2068.86c-26.15,0-47.34,20.22-47.34,45.17s21.19,45.17,47.34,45.17,47.34-20.22,47.34-45.17-21.19-45.17-47.34-45.17" transform="translate(-2560.42 -1113.66)"/><path class="cls-9" d="M11890.81,2360.13c-16.52,0-29.92,12.78-29.92,28.55s13.4,28.55,29.92,28.55,29.92-12.79,29.92-28.55-13.39-28.55-29.92-28.55" transform="translate(-2560.42 -1113.66)"/><path class="cls-9" d="M11502.5,1309.27c-42.42,0-76.8,32.8-76.8,73.27,0,.46,0,.91,0,1.37a42.33,42.33,0,0,1,30.8-13c22.93,0,41.52,17.74,41.52,39.62,0,17.82-12.34,32.89-29.3,37.87a79.41,79.41,0,0,0,33.76,7.45c42.41,0,76.79-32.81,76.79-73.27s-34.38-73.27-76.79-73.27" transform="translate(-2560.42 -1113.66)"/><path class="cls-9" d="M11385.17,1300.51c-19.15,0-34.68,14.81-34.68,33.08s15.53,33.08,34.68,33.08,34.67-14.81,34.67-33.08-15.52-33.08-34.67-33.08" transform="translate(-2560.42 -1113.66)"/><path class="cls-9" d="M11379,1417c-19.15,0-34.67,14.81-34.67,33.08s15.52,33.09,34.67,33.09,34.67-14.81,34.67-33.09S11398.14,1417,11379,1417" transform="translate(-2560.42 -1113.66)"/><polygon class="cls-7" points="8212.77 843.36 8204.21 861.38 8183.61 863.58 8198.93 876.91 8194.75 896.28 8212.77 886.5 8230.79 896.28 8226.61 876.9 8241.93 863.58 8221.32 861.38 8212.77 843.36"/><polygon class="cls-7" points="8263.94 570.85 8255.39 588.87 8234.78 591.06 8250.1 604.39 8245.92 623.77 8263.94 613.99 8281.96 623.77 8277.78 604.39 8293.1 591.06 8272.49 588.87 8263.94 570.85"/><polygon class="cls-7" points="8118.69 743.63 8110.14 761.65 8089.53 763.84 8104.85 777.17 8100.67 796.55 8118.69 786.76 8136.71 796.55 8132.53 777.17 8147.85 763.84 8127.24 761.65 8118.69 743.63"/><polygon class="cls-7" points="8601.42 455.44 8592.87 473.46 8572.26 475.65 8587.58 488.99 8583.4 508.37 8601.42 498.58 8619.44 508.37 8615.26 488.99 8630.58 475.65 8609.97 473.46 8601.42 455.44"/><polygon class="cls-7" points="8970.42 673.61 8961.87 691.63 8941.26 693.83 8956.58 707.16 8952.4 726.53 8970.42 716.75 8988.44 726.53 8984.26 707.15 8999.58 693.83 8978.97 691.63 8970.42 673.61"/><polygon class="cls-7" points="9002.31 905.67 8993.76 923.69 8973.15 925.88 8988.47 939.22 8984.29 958.59 9002.31 948.81 9020.34 958.59 9016.15 939.22 9031.48 925.88 9010.87 923.69 9002.31 905.67"/><polygon class="cls-7" points="8568.99 2.34 8561 19.59 8541.76 21.68 8556.07 34.44 8552.16 52.99 8568.99 43.62 8585.82 52.99 8581.91 34.44 8596.22 21.68 8576.98 19.59 8568.99 2.34"/><polygon class="cls-7" points="9154.58 15.97 9146.59 33.22 9127.35 35.32 9141.65 48.08 9137.75 66.62 9154.58 57.26 9171.4 66.62 9167.5 48.08 9181.8 35.32 9162.56 33.22 9154.58 15.97"/><polygon class="cls-7" points="9705.49 428.23 9696.94 446.25 9676.33 448.44 9691.65 461.77 9687.47 481.15 9705.49 471.36 9723.52 481.15 9719.33 461.77 9734.65 448.44 9714.05 446.25 9705.49 428.23"/><polygon class="cls-7" points="8156.42 1039.6 8147.87 1057.62 8127.26 1059.81 8142.58 1073.14 8138.4 1092.52 8156.43 1082.74 8174.45 1092.52 8170.26 1073.14 8185.59 1059.81 8164.98 1057.62 8156.42 1039.6"/></g></g><g id="letters_down" data-name="letters down"><g id="paths_for_font" data-name="paths for font"><path class="cls-6" d="M2736.06,4051l-100-157.23v221.19h-59.76V3764.82h49.77l110,172.6,110-172.6h49.77v350.09H2836V3893.72Z" transform="translate(-2560.42 -1113.66)"/><path class="cls-6" d="M3161,4114.91l-37.27-116.21H3017.6l-37.27,116.21h-63.17l112-350.09h82.94l112,350.09Zm-57.72-180.42-32.49-101.8-32.49,101.8Z" transform="translate(-2560.42 -1113.66)"/><path class="cls-6" d="M3308,4114.91h-59.76V3764.82h188.59V3829H3308Z" transform="translate(-2560.42 -1113.66)"/><path class="cls-6" d="M3705.64,4114.91l-37.26-116.21H3562.26L3525,4114.91h-63.17l112-350.09h82.94l112,350.09Zm-57.71-180.42-32.49-101.8-32.5,101.8Z" transform="translate(-2560.42 -1113.66)"/><path class="cls-6" d="M3847,3903h40.22q14.31,0,24.43-10.86a38.81,38.81,0,0,0,0-52.25q-10.12-10.86-32.38-10.87-24.54,0-42.95,26.62l-46.58-36.14q33.41-54.67,88.39-54.68,48.16,0,75.78,29.66t27.61,71.41q0,39.56-24.54,68.12,28.85,31,28.86,74.95t-29,74.95q-29,31-79,31t-90-45.16l46.58-40.77q18.18,21.72,43.4,21.72,25.45,0,36.81-12.2t11.37-29.54q0-17.34-11.37-29.54a36.42,36.42,0,0,0-27.72-12.21h-40Z" transform="translate(-2560.42 -1113.66)"/><path class="cls-6" d="M4216.22,3764.82H4266v350.09h-59.76V3893.72l-140.66,221.19h-48.4V3764.82h59.76v218.5Z" transform="translate(-2560.42 -1113.66)"/><path class="cls-6" d="M4460,3967.21H4359.61v147.7h-59.77V3764.82h59.77V3903H4460V3764.82h59.76v350.09H4460Z" transform="translate(-2560.42 -1113.66)"/><path class="cls-6" d="M4725,3903h40.22q14.31,0,24.42-10.86a38.78,38.78,0,0,0,0-52.25q-10.11-10.86-32.38-10.87-24.54,0-42.94,26.62l-46.58-36.14q33.39-54.67,88.39-54.68,48.16,0,75.78,29.66t27.61,71.41q0,39.56-24.54,68.12,28.84,31,28.85,74.95t-29,74.95q-29,31-79,31t-90-45.16l46.58-40.77q18.18,21.72,43.4,21.72,25.44,0,36.81-12.2t11.36-29.54q0-17.34-11.36-29.54a36.43,36.43,0,0,0-27.72-12.21h-40Z" transform="translate(-2560.42 -1113.66)"/><path class="cls-6" d="M5128.32,4114.91l-37.27-116.21H4984.94l-37.27,116.21H4884.5l112-350.09h82.94l112,350.09Zm-57.72-180.42-32.49-101.8-32.5,101.8Z" transform="translate(-2560.42 -1113.66)"/><path class="cls-6" d="M5388.26,3829v61.53h60.67q43.17,0,73.74,32.84t30.56,79.46q0,46.4-30.56,79.23t-73.74,32.83H5328.5V3764.82h215.87V3829Zm60.67,221.68q18.63,0,31.7-14t13.07-33.82q0-20-13.07-34t-31.7-14h-60.67v95.94Z" transform="translate(-2560.42 -1113.66)"/><path class="cls-6" d="M5776.14,3764.82V3829H5647.3v74h128.84v64.21H5647.3v83.49h128.84v64.21h-188.6V3764.82Z" transform="translate(-2560.42 -1113.66)"/><path class="cls-6" d="M5871.81,3829v61.53h60.66q43.17,0,73.74,32.84t30.56,79.46q0,46.4-30.56,79.23t-73.74,32.83H5812V3764.82h215.87V3829Zm60.66,221.68q18.63,0,31.7-14t13.07-33.82q0-20-13.07-34t-31.7-14h-60.66v95.94Z" transform="translate(-2560.42 -1113.66)"/><path class="cls-6" d="M6259.68,3764.82V3829H6130.84v74h128.84v64.21H6130.84v83.49h128.84v64.21h-188.6V3764.82Z" transform="translate(-2560.42 -1113.66)"/><path class="cls-6" d="M6298.08,4114.91V3764.82h59.76V4050.7h84.31V3764.82h59.76V4050.7H6586V3764.82h59.76v350.09Z" transform="translate(-2560.42 -1113.66)"/><path class="cls-6" d="M6843.88,4114.91l-105.2-128.17v128.17h-59.76V3764.82h59.76v99.85l98.39-99.85h86.8l-157,159.42,156.56,190.67Z" transform="translate(-2560.42 -1113.66)"/><path class="cls-6" d="M7189,4114.91l-37.26-116.21H7045.66l-37.26,116.21h-63.17l112-350.09h82.94l112,350.09Zm-57.71-180.42-32.5-101.8-32.49,101.8Z" transform="translate(-2560.42 -1113.66)"/><path class="cls-6" d="M7588.06,3764.82h49.76v350.09h-59.76V3893.72L7437.4,4114.91H7389V3764.82h59.76v218.5Z" transform="translate(-2560.42 -1113.66)"/><path class="cls-6" d="M7828.23,4050.7q22.28-3.9,33-24.41,13.18-25.14,12.5-82.27l.23-115v-64.2h188.6V4050.7h58.39v122.07h-59.76v-57.86H7838.91v57.86h-59.76V4050.7Zm174.51,0V3829h-68.62v114q0,66.9-17.95,107.66Z" transform="translate(-2560.42 -1113.66)"/><path class="cls-6" d="M8344.72,3764.82V3829H8215.88v74h128.84v64.21H8215.88v83.49h128.84v64.21h-188.6V3764.82Z" transform="translate(-2560.42 -1113.66)"/><path class="cls-6" d="M8461.52,4114.91V3829h-80.21v-64.2h220V3829h-80v285.89Z" transform="translate(-2560.42 -1113.66)"/><path class="cls-6" d="M8870.07,4020.43l35.91,51.76q-45.22,42.72-106.8,42.72-67.49,0-115.21-51.14t-47.71-123.91q0-72.51,47.71-123.77t115.21-51.27q61.57,0,106.8,42.72l-37,50.54q-29.31-29.05-69.76-29.06-42.72,0-72.94,32.48T8696,3939.86q0,45.91,30.22,78.37t72.94,32.47Q8840.3,4050.7,8870.07,4020.43Z" transform="translate(-2560.42 -1113.66)"/><path class="cls-6" d="M9103.89,4114.91l-105.21-128.17v128.17h-59.76V3764.82h59.76v99.85l98.39-99.85h86.8l-157,159.42,156.56,190.67Z" transform="translate(-2560.42 -1113.66)"/><path class="cls-6" d="M9449.05,4114.91l-37.27-116.21H9305.67l-37.27,116.21h-63.17l112-350.09h82.93l112,350.09Zm-57.72-180.42-32.49-101.8-32.49,101.8Z" transform="translate(-2560.42 -1113.66)"/><path class="cls-6" d="M9808.29,4051l-100-157.23v221.19h-59.77V3764.82h49.77l110,172.6,110-172.6H9968v350.09h-59.77V3893.72Z" transform="translate(-2560.42 -1113.66)"/><path class="cls-6" d="M10165,4114.91q-67.49,0-115.2-51.14t-47.72-123.91q0-72.51,47.72-123.77t115.2-51.27q67.49,0,115.21,51.27t47.71,123.77q0,72.76-47.71,123.91T10165,4114.91Zm72.83-96.68q30.1-32.46,30.11-78.37t-30.11-78.36Q10207.75,3829,10165,3829t-72.94,32.48q-30.23,32.46-30.22,78.36t30.22,78.37q30.23,32.47,72.94,32.47T10237.87,4018.23Z" transform="translate(-2560.42 -1113.66)"/><path class="cls-6" d="M10405.22,4050.7q22.27-3.9,33-24.41,13.17-25.14,12.5-82.27l.23-115v-64.2h188.59V4050.7h58.4v122.07h-59.76v-57.86H10415.9v57.86h-59.76V4050.7Zm174.51,0V3829h-68.62v114q0,66.9-18,107.66Z" transform="translate(-2560.42 -1113.66)"/><path class="cls-6" d="M10963.52,4114.91l-37.27-116.21h-106.11l-37.27,116.21h-63.17l112-350.09h82.94l112,350.09Zm-57.72-180.42-32.49-101.8-32.49,101.8Z" transform="translate(-2560.42 -1113.66)"/></g></g><g id="letters_up" data-name="letters up"><g id="Path_letters" data-name="Path letters"><g id="K_copy" data-name="K copy"><path class="cls-10" d="M6664.14,1710.16q-11.76-95.82,21.56-169t91.12-122.05a395.48,395.48,0,0,1,131.29-73.37q73.49-24.49,142.08-20.92,98,3.63,161.69,60.58t100,136.5q36.28,79.55,50,169.95t9.81,160.9q-5.91,155.51-45.11,327.26t-90.25,341.7q70.57-41.59,158.83-120.23t181.39-179.88q93.15-101.26,182.36-214.27t158.83-221.47q69.61-108.46,111.78-205.21T8071.71,1417q0-23.49-13.74-46.09t-35.3-31.66c-5.24-6-7.54-12.33-6.87-19a26.15,26.15,0,0,1,8.81-17.16,42.15,42.15,0,0,1,18.65-10,27.54,27.54,0,0,1,20.61,2.71q62.41,36.15,85.8,93.12a313.63,313.63,0,0,1,23.4,120.23q0,83.17-48,190.73t-125.42,221.49q-77.4,113.91-175.39,226.91t-199.88,207.91q-101.91,94.9-198.91,162.72T7254,2610.26q49,50.64,102,133.82t108.89,178.09q55.9,94.9,115.74,192.54t124.58,177.17q64.76,79.54,134.39,130.19t146.16,52.42q17.63,0,17.65,16.29t-17.65,19.87a427.72,427.72,0,0,1-186.37-46.16q-88.28-44.38-165.78-114a1244,1244,0,0,1-145.19-155.54q-67.66-85.87-125.55-172.63t-104.93-165.43q-47.05-78.63-84.3-131.06-43.14,142.82-75.46,265.75T7062,3201.24q-3.95,72.3,19.57,113t82.3,44.28c6.54,0,10.78,1.78,12.75,5.43a20.06,20.06,0,0,1,2,12.64,23.33,23.33,0,0,1-5.87,12.67q-4.91,5.4-10.78,5.41-72.49-1.83-120.52-26.2T6965,3301.58q-28.44-42.51-38.22-100.32t-7.81-128.33q3.9-92.19,26.43-199.72t53.9-225.94q31.35-118.39,66.62-241.29t66.62-243.11q31.34-120.18,53.9-233.17t26.49-212.38a1077,1077,0,0,0-2-111.15q-3.91-58.76-24.52-108.44a215.37,215.37,0,0,0-61.74-84q-41.16-34.32-113.65-36.16-54.87-1.8-113.64,18.08a314.63,314.63,0,0,0-105.81,60.56q-47,40.68-73.49,103t-14.68,145.52q-2,14.48-18.65,17.18T6664.14,1710.16Z" transform="translate(-2560.42 -1113.66)"/></g><g id="a_copy" data-name="a copy"><path class="cls-11" d="M4074.81,2481.94q4.61-5.47,18.49-5.47,18.48,0,47.4,8.2a264.84,264.84,0,0,1,56.64,23.68q27.75,15.51,47.4,35.53t19.65,41.9q0,7.3-18.5,48.28t-47.39,101.12q-28.93,60.12-61.27,132.09T4076,3006.64q-28.93,67.43-47.39,123.89t-18.5,85.63q0,25.49,16.18,25.51,46.23,0,104-37.35t119.07-96.56a1682.61,1682.61,0,0,0,121.38-131.18q60.11-72,111-140.29t90.17-125.71q39.28-57.39,57.8-88.36,4.61-7.26,25.43-3.64t20.81,12.75q-18.54,34.64-59,95.65t-93.63,133q-53.22,72-116.76,145.75a1671.53,1671.53,0,0,1-129.47,134.82q-65.89,61-130.63,99.29t-120.23,38.26q-81,0-112.13-48.28t-31.21-121.15q0-92.93,33.52-195.86t68.21-186.74q-41.62,67.42-84.39,136.64t-90.17,125.71q-47.41,56.49-100.57,92T3593.91,3116q-55.48,0-98.26-20t-70.52-53.74q-27.74-33.69-41.62-78.34a314.6,314.6,0,0,1-13.87-93.83q0-87.45,34.68-164.88t99.42-136.64q64.7-59.19,156.06-92.92t204.61-33.71q62.43,0,115.6,11.85t80.92,53.74Zm-41.62,83.8q-6.93-36.42-43.93-60.12T3906,2481.94q-44,0-85.55,31t-78.6,78.34q-37,47.4-69.36,106.58a949.76,949.76,0,0,0-54.34,116.6q-22,57.39-34.68,105.67t-12.71,73.79q0,32.79,11.56,52.83t39.3,20q39.29,0,83.23-33.7t86.7-85.63a1198.69,1198.69,0,0,0,82.08-113q39.28-61,72.83-115.69T4002,2624q21.95-40,31.21-49.19Z" transform="translate(-2560.42 -1113.66)"/></g><g id="i_copy" data-name="i copy"><path class="cls-11" d="M4494,3047.11q0-130.86,37.1-275.35t87.29-275.35q4.35-9.07,30.55-9.09,19.64,0,48,6.37a284.27,284.27,0,0,1,54.55,18.17q26.19,11.83,43.65,28.17t17.46,38.17q0,7.29-15.28,43.62t-37.1,90.87q-21.84,54.53-48,118.14t-48,125.41q-21.84,61.8-37.09,113.59t-15.28,80.88q0,25.42,15.28,25.44,43.62,0,96-33.62t104.75-85.42a1439.07,1439.07,0,0,0,104.75-116.32q52.36-64.5,96-127.23t77.47-116.32q33.81-53.58,51.29-82.69c2.89-4.83,10.91-6.05,24-3.64s19.64,6.68,19.64,12.72q-17.49,34.56-52.37,90.88t-81.84,121.77q-47,65.43-101.47,132.68T4853,3089.82q-57.85,53.59-115.66,88.15t-110.2,34.53q-76.36,0-104.75-46.34T4494,3047.11Zm305.51-752.44q13.09-20,38.19-33.62t46.92-13.64q21.78,0,37.1,10.91t15.27,30.9q0,29.09-21.82,52.7t-52.37,43.63q-30.59,20-62.2,40t-51.28,41.8a128.58,128.58,0,0,0-20.73-42.71q-14.22-19.08-29.46-37.26a291.64,291.64,0,0,1-27.28-38.16q-12-20-12-47.26,0-25.44,14.18-52.71t51.29-27.26q26.18,0,52.37,21.81T4799.51,2294.67Z" transform="translate(-2560.42 -1113.66)"/></g><g id="r_copy" data-name="r copy"><path class="cls-11" d="M5289.71,3357.9q-85.24,0-120-41.08t-37-104.5q-2.2-63.42,20.18-141.12t49.33-150q26.91-72.35,50.46-131.29t25.78-85.75q2.22-30.35-32.51-46.44t-76.24-36.62a345,345,0,0,1-77.36-52.69q-35.85-32.14-35.88-92.88,0-42.88,14.58-74.14t38.12-52.69a162.65,162.65,0,0,1,51.57-32.16q28-10.71,54.94-10.71,49.29,0,68.39,22.33t19.06,58.05q0,23.23-6.73,50a356.43,356.43,0,0,1-16.81,50.91q-10.09,24.12-20.19,45.56t-16.81,33.93q38.1,10.73,83,21.44a532.32,532.32,0,0,1,83,26.79q38.1,16.08,65,41.09t26.91,67.88q0,16.06-22.43,67t-53.81,117q-31.42,66.1-65,139.33t-57.18,134q-23.55,60.71-30.27,100t17.94,39.3q44.82,0,105.39-45.55t126.69-115.22q66.12-69.66,133.42-155.4T5779.66,2839q57.18-79.45,99.79-143.8t58.3-92.88c3-3.57,11.21-4.47,24.66-2.68s20.18,5.67,20.18,11.61q-18,32.15-61.66,100.93T5818.9,2864q-58.33,83.05-128.93,170.59t-141.27,159q-70.64,71.41-137.91,117.89T5289.71,3357.9Zm-91.94-807.39q4.47-7.12,12.33-25t15.7-39.3a390.53,390.53,0,0,0,13.45-45.55q5.58-24.12,5.61-43.76,0-21.43-7.85-34.83t-25.79-13.4q-29.16,0-60.54,29.47t-31.39,90.21q0,35.74,20.18,50.91T5197.77,2550.51Z" transform="translate(-2560.42 -1113.66)"/></g><g id="i_2_copy" data-name="i 2 copy"><path class="cls-12" d="M7815.22,3104q0-147.43,38.2-310.24t89.9-310.24q4.47-10.23,31.46-10.24,20.22,0,49.44,7.17a276.11,276.11,0,0,1,56.19,20.48q27,13.34,44.94,31.73t18,43q0,8.2-15.73,49.15t-38.21,102.39q-22.49,61.42-49.44,133.1t-49.44,141.3q-22.48,69.64-38.2,128t-15.73,91.13q0,28.65,15.73,28.67,44.93,0,98.88-37.89t107.87-96.24q53.94-58.36,107.87-131.06t98.89-143.35q44.93-70.65,79.78-131.06t52.81-93.17q4.49-8.16,24.72-4.1t20.23,14.34q-18,38.91-53.94,102.39t-84.28,137.2q-48.34,73.72-104.5,149.49T8184.9,3152.15q-59.57,60.38-119.1,99.32t-113.49,38.9q-78.65,0-107.87-52.21T7815.22,3104Zm314.63-847.79q13.48-22.5,39.32-37.88t48.32-15.36q22.44,0,38.21,12.28t15.73,34.82q0,32.77-22.47,59.39a294.44,294.44,0,0,1-53.94,49.14q-31.5,22.56-64.05,45.06t-52.81,47.09a151.3,151.3,0,0,0-21.35-48.12q-14.64-21.49-30.34-42a327.71,327.71,0,0,1-28.09-43q-12.37-22.5-12.36-53.24,0-28.65,14.6-59.38t52.82-30.72q27,0,53.93,24.58T8129.85,2256.23Z" transform="translate(-2560.42 -1113.66)"/></g><g id="d_copy" data-name="d copy"><path class="cls-13" d="M8875,2414.78q52.19,0,97.85,10.14t76.11,44.6a102.82,102.82,0,0,0,6.52-22.3,147.24,147.24,0,0,1,6.53-24.33q21.7-68.89,56.54-177.38t84.8-232.13q50-123.63,113.08-249.35t140.25-227q77.18-101.36,166.35-165.23t189.19-63.85q56.52,0,97.85,20.27a224.82,224.82,0,0,1,70.67,53.72,217.17,217.17,0,0,1,43.49,77,291.12,291.12,0,0,1,14.14,90.21q0,166.24-75,322.34t-189.18,282.8Q9660,2281,9527.34,2368.16t-247.89,111.5q-4.38,14.19-20.66,75t-39.14,146q-22.83,85.15-47.84,183.47t-45.66,189.55q-20.7,91.23-34.79,164.21t-14.14,105.42q0,24.33,8.7,24.33,43.47,0,100-46.63t116.33-119.61q59.79-73,119.6-162.18t112-172.32q52.18-83.1,93.5-151t60.89-100.35q4.33-8.07,23.92-4.05t19.57,14.19q-17.43,38.52-57.63,111.5t-94.59,159.14q-54.37,86.19-118.5,177.38t-130.48,165.22q-66.34,74-129.38,121.64t-115.25,47.64q-97.84,0-140.26-52.71t-42.4-170.29q0-60.81,17.4-167.25t47.83-240.23q-34.8,68.94-75,137.86t-82.63,124.67q-42.41,55.79-90.24,90.21t-100,34.47q-52.18,0-92.42-22.3a194.29,194.29,0,0,1-66.32-59.8q-26.08-37.5-39.14-87.18a409.16,409.16,0,0,1-13.05-104.4q0-97.32,32.62-183.47t93.51-152q60.84-65.86,146.78-103.39T8875,2414.78ZM8598.83,3029q0,36.49,10.87,58.79t37,22.3q50,0,103.29-60.82t103.29-143.93q50-83.1,92.42-168.26t66.32-133.8q4.34-16.2,8.71-33.45t8.69-33.45q-10.9-34.46-44.58-55.75t-70.67-21.29q-41.32,0-80.46,34.47T8759.74,2581q-34.81,52.74-65.23,118.59a1155.21,1155.21,0,0,0-51.11,129.75q-20.68,63.85-32.61,117.58T8598.83,3029Zm1396-1479.9q0-34.46-13.05-68.93a214,214,0,0,0-35.88-61.83q-22.85-27.36-56.54-44.6a158,158,0,0,0-72.85-17.23q-67.41,0-129.38,65.88T9571.92,1590.7q-53.3,102.39-97.85,228.07t-80.46,245.3q-35.88,119.64-60.88,218.94t-38.06,150q69.57-16.2,147.87-58.79T9598,2267.81q77.16-63.87,148.95-146a1190.86,1190.86,0,0,0,127.22-175.36,956.55,956.55,0,0,0,88.06-193.6A655.42,655.42,0,0,0,9994.87,1549.14Z" transform="translate(-2560.42 -1113.66)"/></g><g id="s_copy" data-name="s copy"><path class="cls-6" d="M9852.44,2897.41A844.69,844.69,0,0,1,9740,2742.27q-47.23-83.67-47.24-189.84,0-71.43,25.87-133.7a323.33,323.33,0,0,1,74.24-109.21q48.34-46.93,115.84-74.5t148.47-27.56a462.46,462.46,0,0,1,95.6,10.21q48.34,10.23,88.85,32.66t65.24,57.15q24.72,34.74,24.74,85.73,0,40.86-19.12,81.66t-46.11,71.44q-13.5,6.12-28.12-2t-10.12-22.45a172.72,172.72,0,0,0,36-53.08q13.48-30.61,13.5-61.24,0-59.17-47.24-92.87t-110.23-33.69q-51.76,0-90,21.44a207.72,207.72,0,0,0-64.12,55.11A229.58,229.58,0,0,0,9927.8,2433a290.26,290.26,0,0,0-12.37,82.67q0,87.79,40.49,155.14a879.64,879.64,0,0,0,94.48,128.6q166.44-73.48,323.92-126.56t258.69-81.65q18,4.11,16.87,22.45c-.77,12.25-3.37,19.07-7.87,20.42q-45,12.24-108,31.63t-137.22,44.91q-74.24,25.54-155.22,56.14t-162,65.32q36,36.73,69.73,74.5a643.09,643.09,0,0,1,60.74,79.61A444.14,444.14,0,0,1,10254,3074q16.88,45.93,16.87,101,0,87.75-46.12,164.32T10105.51,3472q-73.12,56.13-164.21,87.78T9758,3591.44a346.61,346.61,0,0,1-112.48-18.37q-54-18.37-95.6-52.06a266.06,266.06,0,0,1-66.36-78.58q-24.72-44.92-24.74-100,0-63.29,30.37-124.51t83.23-116.35q52.88-55.12,124.84-107.17A1395.33,1395.33,0,0,1,9852.44,2897.41ZM9749,3550.61q60.73,0,123.72-21.43a445,445,0,0,0,115.85-59.2q52.83-37.79,85.48-89.81t32.62-111.25a196.76,196.76,0,0,0-20.25-86.75q-20.25-41.86-51.74-83.7a818.91,818.91,0,0,0-73.1-83.69q-41.65-41.82-82.11-84.71a1572.19,1572.19,0,0,0-146.22,89.82q-67.48,47-118.09,97T9535.27,3222q-29.21,55.11-29.24,112.27,0,44.88,19.12,83.69a219.69,219.69,0,0,0,52.86,68.38,264.09,264.09,0,0,0,77.6,47A251.85,251.85,0,0,0,9749,3550.61Z" transform="translate(-2560.42 -1113.66)"/></g><g id="y_copy" data-name="y copy"><path class="cls-11" d="M5622.21,3393q0-105.07,57.14-192.61t151.43-162.6q94.34-75.11,214.42-140.92t244.09-130.92q26.67-90,51.47-179.16t47.7-179.16a1544.42,1544.42,0,0,1-78.21,134.18q-43.87,67.5-89.61,121.65t-92.49,88.34q-46.69,34.14-88.66,34.16t-68.65-20q-26.72-20-42.91-54.16T5906,2632.61a756.32,756.32,0,0,1-5.71-95,1112.28,1112.28,0,0,1,6.63-121.67q6.66-60,16.14-110.83T5943,2214.3q10.43-40,16.11-60c1.27-4.44,7.33-7.79,18.18-10a187.72,187.72,0,0,1,37.32-3.34,270.78,270.78,0,0,1,42.11,3.34,208.09,208.09,0,0,1,39.23,10q18.16,6.67,29.64,17.5t11.5,27.49q0,5-8.62,38.34t-22.94,82.51q-14.34,49.15-29.62,108.33t-29.65,115.81q-14.34,56.67-22.94,105t-8.59,75q0,13.35,3.8,20.86c2.53,5,9.53,7.48,21,7.48q34.34,0,76.27-35t84.87-90a1402.71,1402.71,0,0,0,84.84-122.5q41.94-67.47,76.27-132.48t59.12-120.83q24.81-55.82,34.34-87.51,3.79-5,15.24-5,15.24,0,39.09,7.5a206.84,206.84,0,0,1,46.72,21.66,174.23,174.23,0,0,1,39.08,32.51q16.2,18.33,16.22,38.32-11.48,70-38.14,171.67t-64.83,218.31q68.64-40,131.57-80.82a1150.07,1150.07,0,0,0,115.38-85q52.44-44.16,92.46-91.66a451.77,451.77,0,0,0,64.86-100.84q9.52-8.33,22.86-2.49c8.89,3.9,13.36,8.07,13.36,12.5q-26.7,60-73.42,112.49t-106.79,101.67a1274.47,1274.47,0,0,1-130.62,93.33q-70.55,44.17-146.82,87.49-19.07,60-53.4,150.06t-80.08,189.29q-45.76,99.18-103,198.45T6129.12,3413q-68.67,80-145.84,129.25t-162.91,49.19q-49.53,0-85.73-16.67t-61.92-44.2a176.34,176.34,0,0,1-38.12-63.36A226.53,226.53,0,0,1,5622.21,3393Zm38.14-.13q0,28.32,11.45,56.68a174.55,174.55,0,0,0,31.46,50.82q20,22.47,49.55,36.65a146.15,146.15,0,0,0,63.91,14.17q47.69,0,94.38-35.82t90.57-95.83q43.88-60,83.9-137.49t75.33-160q35.28-82.51,64.83-163.32t50.53-147.49q-118.22,61.65-228.83,125T5851,3069.53q-85.81,69.94-138.25,149.14T5660.35,3392.84Z" transform="translate(-2560.42 -1113.66)"/></g><g id="F_copy" data-name="F copy"><path class="cls-11" d="M2560.42,1602.42q0-44,27.38-93.81t81.32-91.88q53.93-42.13,131.79-67t175.41-21.08q93.43,3.85,155.72,51.72t103.8,120.6q93.43-36.37,192-73.7t201.39-67a2123.74,2123.74,0,0,1,207.62-48.82,1169.77,1169.77,0,0,1,210.72-19.16q49.8,0,86.16,6.68t62.28,23.88q26,17.18,44.64,44.88t31.16,69.85q2,13.39-15.59,18.19t-25.93-6.69q-14.55-44.07-59.17-56.53a328.26,328.26,0,0,0-88.24-12.45,779.79,779.79,0,0,0-186.85,23q-93.43,23-192,57.48t-202.42,75.66q-103.82,41.2-218,79.51a790.83,790.83,0,0,1,28,141.8q7.26,70.88,5.21,130.28-4.17,95.79-20.78,200.23t-43.58,213.62q64.35,5.77,125.59,11.5t119.38,5.74q72.67,0,125.6-13.39t73.72-46q10.38-11.49,27-3.81t10.38,23q-29.07,46-95.51,62.27t-155.68,16.29q-60.25,0-120.44-4.79t-120.4-10.55Q3204.7,2493.3,3159,2644.7t-87.18,289.4q-41.52,138-69.55,254.89t-32.17,197.41q-4.18,76.63,20.76,119.77t87.21,46.95c6.92,0,11.41,1.9,13.49,5.76a21.53,21.53,0,0,1,2,13.4,24.7,24.7,0,0,1-6.22,13.42c-3.46,3.82-7.27,5.74-11.4,5.74q-76.85-2-127.71-27.77t-79.91-70.9q-29.07-45-40.5-106.32t-9.32-136q4.14-88.17,24.9-196.39t51.9-228q31.14-119.74,68.5-247.16t70.61-251.94a270.34,270.34,0,0,0-29.09-1.6h-29.06a1089.05,1089.05,0,0,0-132.86,7.68q-62.3,7.68-110.06,29.69t-77.85,59.4q-30.09,37.35-36.31,94.83-4,13.42-22.33,10.55t-18.24-14.37q8.1-69,43-113t88.92-69.85q54-25.79,125.59-35.3a1143.65,1143.65,0,0,1,150.52-9.51h30.12a261.07,261.07,0,0,1,28,1.6q41.54-149.61,68.51-288.67t35.3-254.17q2.07-42.17,0-88.16a1961.8,1961.8,0,0,1-210.72,43.11q-109,16.32-231.52,16.29-76.8,0-111.4-32.53T2560.42,1602.42Zm150.87,42.71q89.25,1.93,195.15-28.69t224.24-74.65q-18.73-63.12-63.34-108.12t-131.84-48.8a335.35,335.35,0,0,0-120.4,18.19q-58.16,20.1-101.73,50.72t-70.61,67q-27,36.38-27,65,0,24.89,22.84,41.14T2711.29,1645.13Z" transform="translate(-2560.42 -1113.66)"/></g></g></g></svg>