<svg id="Capa_1" enable-background="new 0 0 512 512" height="512" viewBox="0 0 512 512" width="512" xmlns="http://www.w3.org/2000/svg"><path d="m256 0c-140.596 0-256 115.39-256 256s115.404 256 256 256c29.326-1.619 45-23.304 45-45v-20.988c7.123-2.91 13.911-6.791 19.688-12.561l23.26-23.262c5.859-5.858 5.859-15.355 0-21.213l-46.82-46.82c-5.856-5.856-15.348-5.858-21.207-.007l-26.131 26.102c-5.832-4.311-30.37-18.972-58.74-47.314-28.138-28.166-42.957-53.047-47.227-58.843l26.012-26.001c5.858-5.858 5.858-15.359.004-21.215l-46.815-46.824c-5.858-5.858-15.361-5.856-21.215-.002l-23.26 23.26c-19.043 19.072-22.969 48.867-9.521 72.48 17.256 30.513 53.994 73.96 79.6 99.58 25.547 25.532 68.994 62.285 99.58 79.629 7.097 4.039 14.883 5.991 22.793 6.942v17.057c0 8.276-6.738 15-15 15-124.073 0-226.001-101.928-226.001-226s101.928-226 226-226 226 101.928 226 226c0 92.168-56.195 174.067-141.626 208.652-7.675 3.105-11.396 11.851-8.29 19.526 3.135 7.69 11.836 11.323 19.54 8.276 96.827-39.183 160.376-131.996 160.376-236.454 0-140.61-115.404-256-256-256z"/><path d="m256 121c74.443 0 135 60.557 135 135 0 8.291 6.709 15 15 15s15-6.709 15-15c0-90.981-74.033-165-165-165-8.291 0-15 6.709-15 15s6.709 15 15 15z"/><path d="m331 256c0 8.291 6.709 15 15 15s15-6.709 15-15c0-57.891-47.109-105-105-105-8.291 0-15 6.709-15 15s6.709 15 15 15c41.367 0 75 33.647 75 75z"/><path d="m241 226c0 8.291 6.709 15 15 15 8.262 0 15 6.724 15 15 0 8.291 6.709 15 15 15s15-6.709 15-15c0-24.814-20.186-45-45-45-8.291 0-15 6.709-15 15z"/></svg>