<svg width="48" height="48" viewBox="0 0 48 48" fill="none" xmlns="http://www.w3.org/2000/svg">
<path d="M40 10H9V34H40V10Z" stroke="#9497B8" stroke-width="2" stroke-linecap="round" stroke-linejoin="round"/>
<path d="M25 14C25.5523 14 26 13.5523 26 13C26 12.4477 25.5523 12 25 12C24.4477 12 24 12.4477 24 13C24 13.5523 24.4477 14 25 14Z" fill="#9497B8"/>
<path d="M13 33.9211V29.0789H16.3772C16.5449 28.5154 16.7697 27.9764 17.0448 27.4687L14.6563 25.0802L18.0802 21.6563L20.4687 24.0448C20.9764 23.7697 21.5154 23.5449 22.0789 23.3772V20H26.9211V23.3772C27.4846 23.5449 28.0236 23.7697 28.5313 24.0448L30.9198 21.6563L34.3437 25.0802L31.9552 27.4687C32.2303 27.9764 32.4551 28.5154 32.6228 29.0789H36V33.9211" stroke="#9497B8" stroke-width="2" stroke-linecap="round" stroke-linejoin="round"/>
<path d="M27.0856 33.859C27.6536 33.2368 28 32.4089 28 31.5C28 29.567 26.433 28 24.5 28C22.567 28 21 29.567 21 31.5C21 32.4467 21.3759 33.3057 21.9866 33.9357" stroke="#9497B8" stroke-width="2" stroke-linecap="round" stroke-linejoin="round"/>
<path d="M15 38H33" stroke="#9497B8" stroke-width="2" stroke-linecap="round" stroke-linejoin="round"/>
</svg>
