<?xml version="1.0" encoding="UTF-8"?>
<svg width="106px" height="16px" viewBox="0 0 106 16" version="1.1" xmlns="http://www.w3.org/2000/svg" xmlns:xlink="http://www.w3.org/1999/xlink">
    <!-- Generator: Sketch 50.2 (55047) - http://www.bohemiancoding.com/sketch -->
    <title>Star-5</title>
    <desc>Created with Sketch.</desc>
    <defs></defs>
    <g id="Star-5" stroke="none" stroke-width="1" fill="none" fill-rule="evenodd">
        <polygon id="Star" fill="#242424" points="8.41169779 13.2668737 3.21298265 16 4.2058489 10.2111456 2.29816166e-14 6.11145618 5.81234022 5.26687371 8.41169779 0 11.0110554 5.26687371 16.8233956 6.11145618 12.6175467 10.2111456 13.6104129 16"></polygon>
        <polygon id="Star" fill="#242424" points="31.4116978 13.2668737 26.2129827 16 27.2058489 10.2111456 23 6.11145618 28.8123402 5.26687371 31.4116978 0 34.0110554 5.26687371 39.8233956 6.11145618 35.6175467 10.2111456 36.6104129 16"></polygon>
        <polygon id="Star" fill="#242424" points="53.4116978 13.2668737 48.2129827 16 49.2058489 10.2111456 45 6.11145618 50.8123402 5.26687371 53.4116978 0 56.0110554 5.26687371 61.8233956 6.11145618 57.6175467 10.2111456 58.6104129 16"></polygon>
        <polygon id="Star" fill="#242424" points="75.4116978 13.2668737 70.2129827 16 71.2058489 10.2111456 67 6.11145618 72.8123402 5.26687371 75.4116978 0 78.0110554 5.26687371 83.8233956 6.11145618 79.6175467 10.2111456 80.6104129 16"></polygon>
        <polygon id="Star" fill="#242424" points="97.4116978 13.2668737 92.2129827 16 93.2058489 10.2111456 89 6.11145618 94.8123402 5.26687371 97.4116978 0 100.011055 5.26687371 105.823396 6.11145618 101.617547 10.2111456 102.610413 16"></polygon>
    </g>
</svg>