<svg width="60" height="60" viewBox="0 0 60 60" fill="none" xmlns="http://www.w3.org/2000/svg">
<path fill-rule="evenodd" clip-rule="evenodd" d="M12.2469 49.9522L5 22.9062L49.4326 11.0006L56.6795 38.0465L12.2469 49.9522Z" fill="#669E4F"/>
<path d="M32.4963 29.1478C32.3028 28.4253 31.5212 28.0071 30.7506 28.2136M30.7506 28.2136C29.9801 28.42 29.5123 29.173 29.7059 29.8954C29.8994 30.6179 30.681 31.0361 31.4516 30.8296C32.2222 30.6232 33.0037 31.0414 33.1973 31.7638C33.3909 32.4862 32.9231 33.2392 32.1526 33.4457M30.7506 28.2136L30.517 27.3416M30.4068 32.5115C30.6004 33.2339 31.382 33.6521 32.1526 33.4457M32.1526 33.4457L32.3862 34.3177M16.4123 25.0982C17.178 27.9561 15.472 30.8963 12.6017 31.6654C12.2457 31.7608 11.8886 31.8183 11.5345 31.8404L13.4387 38.9469C13.7564 38.789 14.0944 38.6602 14.4504 38.5649C17.3207 37.7958 20.2683 39.489 21.034 42.3469C21.129 42.7013 21.186 43.057 21.2074 43.4097L45.6474 36.861C45.4897 36.5449 45.3611 36.2083 45.2662 35.8539C44.5004 32.9961 46.2065 30.0558 49.0767 29.2868C49.4327 29.1914 49.7899 29.1339 50.1439 29.1118L48.2397 22.0053C47.9221 22.1631 47.584 22.2919 47.228 22.3873C44.3578 23.1564 41.4102 21.4631 40.6444 18.6052C40.5494 18.2508 40.4925 17.8951 40.4711 17.5425L16.031 24.0912C16.1888 24.4073 16.3173 24.7438 16.4123 25.0982ZM37.7301 29.1473C38.6592 32.6148 36.6014 36.179 33.1339 37.1081C29.6664 38.0373 26.1022 35.9795 25.1731 32.5119C24.244 29.0444 26.3017 25.4802 29.7693 24.5511C33.2368 23.622 36.801 25.6798 37.7301 29.1473Z" stroke="#96CC7F" stroke-width="1.5" stroke-linecap="round" stroke-linejoin="round"/>
<path d="M33.1354 37.1091C36.6029 36.18 38.6607 32.6158 37.7315 29.1482C36.8024 25.6807 33.2382 23.6229 29.7707 24.5521C26.3032 25.4812 24.2454 29.0454 25.1745 32.5129C26.1036 35.9804 29.6678 38.0382 33.1354 37.1091Z" fill="#669E4F"/>
<path d="M32.4996 29.1511C32.306 28.4287 31.5244 28.0104 30.7539 28.2169M30.7539 28.2169C29.9833 28.4234 29.5156 29.1764 29.7091 29.8988C29.9027 30.6212 30.6843 31.0394 31.4549 30.833C32.2254 30.6265 33.007 31.0447 33.2006 31.7671C33.3941 32.4895 32.9264 33.2425 32.1558 33.449M30.7539 28.2169L30.5202 27.3449M30.4101 32.5148C30.6037 33.2372 31.3853 33.6555 32.1558 33.449M32.1558 33.449L32.3895 34.321" stroke="#96CC7F" stroke-width="1.5" stroke-linecap="round" stroke-linejoin="round"/>
<path fill-rule="evenodd" clip-rule="evenodd" d="M3 45V17H49V45H3Z" fill="#96CC7F"/>
<path d="M27.9444 30.1458C27.9444 29.3979 27.2977 28.7917 26.5 28.7917M26.5 28.7917C25.7023 28.7917 25.0556 29.3979 25.0556 30.1458C25.0556 30.8937 25.7023 31.5 26.5 31.5C27.2977 31.5 27.9444 32.1063 27.9444 32.8542C27.9444 33.6021 27.2977 34.2083 26.5 34.2083M26.5 28.7917V27.8889M25.0556 32.8542C25.0556 33.6021 25.7023 34.2083 26.5 34.2083M26.5 34.2083V35.1111M13.4565 22.0714C13.4565 25.0301 11.0476 27.4286 8.07609 27.4286C7.70756 27.4286 7.34769 27.3917 7 27.3214V34.6786C7.34769 34.6083 7.70756 34.5714 8.07609 34.5714C11.0476 34.5714 13.4565 36.9699 13.4565 39.9286C13.4565 40.2955 13.4195 40.6538 13.3489 41H38.6511C38.5805 40.6538 38.5435 40.2955 38.5435 39.9286C38.5435 36.9699 40.9524 34.5714 43.9239 34.5714C44.2924 34.5714 44.6523 34.6083 45 34.6786V27.3214C44.6523 27.3917 44.2924 27.4286 43.9239 27.4286C40.9524 27.4286 38.5435 25.0301 38.5435 22.0714C38.5435 21.7045 38.5805 21.3462 38.6511 21H13.3489C13.4195 21.3462 13.4565 21.7045 13.4565 22.0714ZM33 31.5C33 35.0899 30.0899 38 26.5 38C22.9101 38 20 35.0899 20 31.5C20 27.9101 22.9101 25 26.5 25C30.0899 25 33 27.9101 33 31.5Z" stroke="#669E4F" stroke-width="1.5" stroke-linecap="round" stroke-linejoin="round"/>
<path d="M26.5 38C30.0899 38 33 35.0899 33 31.5C33 27.9101 30.0899 25 26.5 25C22.9101 25 20 27.9101 20 31.5C20 35.0899 22.9101 38 26.5 38Z" fill="#669E4F"/>
<path d="M27.9436 30.1476C27.9436 29.3997 27.2969 28.7934 26.4991 28.7934M26.4991 28.7934C25.7014 28.7934 25.0547 29.3997 25.0547 30.1476C25.0547 30.8955 25.7014 31.5017 26.4991 31.5017C27.2969 31.5017 27.9436 32.108 27.9436 32.8559C27.9436 33.6038 27.2969 34.2101 26.4991 34.2101M26.4991 28.7934V27.8906M25.0547 32.8559C25.0547 33.6038 25.7014 34.2101 26.4991 34.2101M26.4991 34.2101V35.1128" stroke="#96CC7F" stroke-width="1.5" stroke-linecap="round" stroke-linejoin="round"/>
<path fill-rule="evenodd" clip-rule="evenodd" d="M3 45V17H49V45H3Z" fill="#96CC7F"/>
<path d="M27.9444 30.1458C27.9444 29.3979 27.2977 28.7917 26.5 28.7917M26.5 28.7917C25.7023 28.7917 25.0556 29.3979 25.0556 30.1458C25.0556 30.8937 25.7023 31.5 26.5 31.5C27.2977 31.5 27.9444 32.1063 27.9444 32.8542C27.9444 33.6021 27.2977 34.2083 26.5 34.2083M26.5 28.7917V27.8889M25.0556 32.8542C25.0556 33.6021 25.7023 34.2083 26.5 34.2083M26.5 34.2083V35.1111M13.4565 22.0714C13.4565 25.0301 11.0476 27.4286 8.07609 27.4286C7.70756 27.4286 7.34769 27.3917 7 27.3214V34.6786C7.34769 34.6083 7.70756 34.5714 8.07609 34.5714C11.0476 34.5714 13.4565 36.9699 13.4565 39.9286C13.4565 40.2955 13.4195 40.6538 13.3489 41H38.6511C38.5805 40.6538 38.5435 40.2955 38.5435 39.9286C38.5435 36.9699 40.9524 34.5714 43.9239 34.5714C44.2924 34.5714 44.6523 34.6083 45 34.6786V27.3214C44.6523 27.3917 44.2924 27.4286 43.9239 27.4286C40.9524 27.4286 38.5435 25.0301 38.5435 22.0714C38.5435 21.7045 38.5805 21.3462 38.6511 21H13.3489C13.4195 21.3462 13.4565 21.7045 13.4565 22.0714ZM33 31.5C33 35.0899 30.0899 38 26.5 38C22.9101 38 20 35.0899 20 31.5C20 27.9101 22.9101 25 26.5 25C30.0899 25 33 27.9101 33 31.5Z" stroke="#669E4F" stroke-width="1.5" stroke-linecap="round" stroke-linejoin="round"/>
<path d="M26.5 38C30.0899 38 33 35.0899 33 31.5C33 27.9101 30.0899 25 26.5 25C22.9101 25 20 27.9101 20 31.5C20 35.0899 22.9101 38 26.5 38Z" fill="#669E4F"/>
<path d="M27.9436 30.1476C27.9436 29.3997 27.2969 28.7934 26.4991 28.7934M26.4991 28.7934C25.7014 28.7934 25.0547 29.3997 25.0547 30.1476C25.0547 30.8955 25.7014 31.5017 26.4991 31.5017C27.2969 31.5017 27.9436 32.108 27.9436 32.8559C27.9436 33.6038 27.2969 34.2101 26.4991 34.2101M26.4991 28.7934V27.8906M25.0547 32.8559C25.0547 33.6038 25.7014 34.2101 26.4991 34.2101M26.4991 34.2101V35.1128" stroke="#96CC7F" stroke-width="1.5" stroke-linecap="round" stroke-linejoin="round"/>
</svg>
