<?xml version="1.0" encoding="UTF-8"?>
<svg width="24px" height="24px" viewBox="0 0 24 24" version="1.1" xmlns="http://www.w3.org/2000/svg" xmlns:xlink="http://www.w3.org/1999/xlink">
    <!-- Generator: Sketch 51.3 (57544) - http://www.bohemiancoding.com/sketch -->
    <title>facebook</title>
    <desc>Created with Sketch.</desc>
    <defs></defs>
    <g id="facebook" stroke="none" stroke-width="1" fill="none" fill-rule="evenodd">
        <g>
            <rect id="Rectangle-path" fill="#242424" fill-rule="nonzero" x="0" y="0" width="24" height="24"></rect>
            <path d="M12,24 L15,24 L15,15 L17,15 L18,12 L15,12 L15,10 C14.9288038,9.46591437 14.958313,8.92321698 15.087,8.4 C15.4228832,8.07751814 15.8856714,7.92264373 16.348,7.978 L17.984,7.978 L18,5 C17.386,5 16.576,4.978 15.6,4.991 C13.77,5.014 13.727,5.262 13,6 C12.273,6.738 12,8.664 12,10 L12,12 L10,12 L10,15 L12,15 L12,24 Z" id="Icon-Facebook" fill="#FFFFFF"></path>
        </g>
    </g>
</svg>