<?xml version="1.0" encoding="UTF-8"?>
<svg width="24px" height="24px" viewBox="0 0 24 24" version="1.1" xmlns="http://www.w3.org/2000/svg" xmlns:xlink="http://www.w3.org/1999/xlink">
    <!-- Generator: Sketch 51.3 (57544) - http://www.bohemiancoding.com/sketch -->
    <title>google-plus</title>
    <desc>Created with Sketch.</desc>
    <defs></defs>
    <g id="google-plus" stroke="none" stroke-width="1" fill="none" fill-rule="evenodd">
        <g>
            <rect id="Rectangle-path" fill="#242424" fill-rule="nonzero" x="0" y="0" width="24" height="24"></rect>
            <path d="M14.888,12.088 C14.8880837,11.768015 14.8565979,11.4488023 14.794,11.135 L9.388,11.135 L9.388,13.1 L12.638,13.1 C12.3256921,14.6206674 10.9367245,15.6758554 9.388,15.569 C7.42351718,15.5228024 5.8550588,13.9170259 5.8550588,11.952 C5.8550588,9.98697406 7.42351718,8.38119756 9.388,8.335 C10.2349545,8.31742276 11.0546393,8.6347317 11.669,9.218 L13.224,7.726 C12.1896103,6.74529947 10.8132644,6.20710371 9.388,6.226 C7.32408486,6.19872551 5.40516954,7.28418584 4.36525821,9.06718164 C3.32534687,10.8501774 3.32534687,13.0548226 4.36525821,14.8378184 C5.40516954,16.6208142 7.32408486,17.7062745 9.388,17.679 C10.8815514,17.7433415 12.3324197,17.1717804 13.3807911,16.1060632 C14.4291624,15.0403461 14.9768399,13.5802946 14.888,12.088 Z M21.661,11.135 L20.029,11.135 L20.029,9.5 L18.388,9.5 L18.388,11.133 L16.755,11.133 L16.755,12.773 L18.388,12.773 L18.388,14.406 L20.029,14.406 L20.029,12.775 L21.662,12.775 L21.662,11.135 L21.661,11.135 Z" id="Icon-Google" fill="#FFFFFF"></path>
        </g>
    </g>
</svg>