<?xml version="1.0" encoding="UTF-8"?>
<svg width="32px" height="32px" viewBox="0 0 32 32" version="1.1" xmlns="http://www.w3.org/2000/svg" xmlns:xlink="http://www.w3.org/1999/xlink">
    <!-- Generator: Sketch 50 (54983) - http://www.bohemiancoding.com/sketch -->
    <title>icon-share</title>
    <desc>Created with Sketch.</desc>
    <defs></defs>
    <g id="icon-share" stroke="none" stroke-width="1" fill="none" fill-rule="evenodd">
        <path d="M17.6017572,10.3626848 L17.6017572,8.97307668 L17.7423684,8.6716255 C18.0755216,7.95739026 18.7398682,7.5 19.5457911,7.5 C20.1894353,7.5 20.7487974,7.78098589 21.2150301,8.2450489 L25.7080449,12.7380637 L26.4358083,14.1586418 L25.673421,15.4378805 L25.5412491,15.5700523 L21.4220501,19.6885211 C20.7714032,20.3058878 20.2492699,20.6394498 19.5457911,20.6394498 C18.4975787,20.6394498 17.9427193,19.9473628 17.6730945,19.0185829 L17.6136225,18.8137191 L17.6136225,17.7824848 L17.0348214,17.7824848 C14.7402618,18.0465879 13.3365725,18.4574553 12.9871802,18.8050312 C12.8906505,18.901059 12.7357942,19.3763592 12.6365699,20.1145364 C12.6079463,20.3274811 12.5836405,20.5556138 12.5597427,20.8255333 C12.5451306,20.9905732 12.4990927,21.5648652 12.5023767,21.5251552 C12.4357011,22.3313848 12.3949365,22.6163508 12.2061579,22.9983804 C11.452927,24.5226869 9.71842249,24.8652049 8.74190088,23.2916804 C8.3315068,22.6303892 8.01010578,21.536647 7.69057879,19.8821889 C7.45964356,18.6864444 7.38096076,16.8312152 7.7443344,15.6617817 C8.1616307,14.3188106 8.80512846,13.2419676 9.75271558,12.4112199 C11.2470104,11.1011747 13.3610793,10.4388485 16.0925932,10.3626848 L17.6017572,10.3626848 Z" id="Path-4" stroke="#242424" stroke-width="3"></path>
    </g>
</svg>