<?xml version="1.0" encoding="UTF-8"?>
<svg width="24px" height="24px" viewBox="0 0 24 24" version="1.1" xmlns="http://www.w3.org/2000/svg" xmlns:xlink="http://www.w3.org/1999/xlink">
    <!-- Generator: Sketch 51.3 (57544) - http://www.bohemiancoding.com/sketch -->
    <title>linkedin</title>
    <desc>Created with Sketch.</desc>
    <defs></defs>
    <g id="linkedin" stroke="none" stroke-width="1" fill="none" fill-rule="evenodd">
        <g>
            <rect id="Rectangle-path" fill="#242424" fill-rule="nonzero" x="0" y="0" width="24" height="24"></rect>
            <path d="M8,9 L5,9 L5,18 L8,18 L8,9 Z M7.988,6.5 C8.01023149,6.09661964 7.86151828,5.70253359 7.57833717,5.41440442 C7.29515606,5.12627525 6.90370491,4.97075859 6.5,4.986 C6.09539536,4.97133031 5.70310625,5.1266077 5.41815246,5.41422106 C5.13319866,5.70183443 4.98157226,6.0955491 5,6.5 C4.98017232,6.89870674 5.12709207,7.28769342 5.40554952,7.57373826 C5.68400697,7.85978311 6.06890438,8.01710453 6.468,8.008 L6.484,8.008 C6.88897525,8.02649007 7.28298506,7.87341869 7.56926318,7.58637919 C7.8555413,7.2993397 8.00756564,6.90492471 7.988,6.5 Z M19,13 C19,10.305 17.538,9.008 15.594,9.008 C14,9.008 13.385,9.4 13,10 L13,9 L10,9 C10,9 10.022,10.036 9.986,18 L13,18 L13,13 C12.9727725,12.7917791 12.9836153,12.5803433 13.032,12.376 C13.2630621,11.738517 13.867935,11.313428 14.546,11.312 C15.612,11.312 16,11.821 16,13 L16,18 L18.989,18 L19,13 Z" id="In" fill="#FFFFFF"></path>
        </g>
    </g>
</svg>