<svg xmlns="http://www.w3.org/2000/svg" xmlns:xlink="http://www.w3.org/1999/xlink" id="Layer_1" x="0px" y="0px" viewBox="0 0 284.8 130.7" style="enable-background:new 0 0 284.8 130.7;" xml:space="preserve"><style type="text/css">	.st0{fill:#152F54;}	.st1{fill:#144880;}</style><g>	<g>		<path class="st0" d="M31.5,71.3V96l-2.2,1.7c-4.2-5-7.4-10.9-9.4-17.3v-9.1H31.5z"></path>		<g>			<polygon class="st0" points="48.5,36.1 48.5,83.1 36.9,91.9 36.9,36.1    "></polygon>			<path class="st0" d="M36.9,99.2l11.6-8.8v21.6c-4.2-1.8-8.1-4.1-11.6-6.9V99.2z"></path>		</g>		<path class="st1" d="M65.5,51.9v31.9l-6.6-8.7l-5,3.8v-27H65.5z M53.9,86.3v27.6c3.7,1.1,7.6,1.8,11.6,2V93.5l-7.7-10.2L53.9,86.3   z"></path>		<g>			<polygon class="st0" points="99.6,39.2 99.6,69.7 87.9,78.2 87.9,39.2    "></polygon>			<path class="st0" d="M87.9,85.4l11.6-8.5v28.1c-3.5,2.8-7.4,5.1-11.6,6.9V85.4z"></path>		</g>		<g>			<polygon class="st0" points="116.6,7.9 116.6,57.4 105,65.8 105,7.9    "></polygon>			<path class="st0" d="M105,73l11.6-8.4v15.8c-2.3,7.5-6.4,14.2-11.6,19.8V73z"></path>		</g>		<path class="st1" d="M82.5,26.5v55.6l-11.6,8.4v-64H82.5z M70.9,115.9c4-0.2,7.9-0.9,11.6-2V89.3l-11.6,8.4V115.9z"></path>		<g>			<path class="st0" d="M120.7,34.2v14c1.8,5.4,2.7,11.2,2.7,17.2c0,30.4-24.8,55.2-55.2,55.2C37.8,120.5,13,95.8,13,65.3    s24.8-55.2,55.2-55.2c12.2,0,23.5,4,32.6,10.7v-7.1c-9.4-6-20.6-9.4-32.6-9.4c-33.7,0-61,27.3-61,61c0,33.7,27.3,61,61,61    c33.7,0,61-27.3,61-61C129.2,54,126.1,43.3,120.7,34.2z"></path>		</g>	</g>	<g>		<path class="st0" d="M175,97.1c-8.8,0-17.1-3.5-23.1-10c-6.1-6.4-9.1-14.9-8.6-23.7c1-15.9,14.2-29,30.1-29.7c0.5,0,1,0,1.6,0   c10.2,0,19.8,4.9,25.8,13.2c0.1,0.1,0,0.3-0.1,0.4l-4.2,3.2c-0.1,0-0.1,0.1-0.2,0.1c-0.1,0-0.2,0-0.2-0.1   c-4.8-6.8-12.7-10.9-21.1-10.9c-1.1,0-2.2,0.1-3.4,0.2c-11.6,1.5-21,11-22.3,22.7c-0.8,7.5,1.4,14.6,6.4,20.2   c4.9,5.5,11.9,8.6,19.3,8.6c8.1,0,15.9-3.9,20.7-10.4c0.1-0.1,0.1-0.1,0.2-0.1c0.1,0,0.1,0,0.2,0.1l4.2,3.2   c0.1,0.1,0.2,0.3,0.1,0.4C194.4,92.4,185.1,97.1,175,97.1z"></path>		<path class="st0" d="M211.2,95.3c-0.1,0-0.2-0.1-0.2-0.2V35.5c0-0.1,0.1-0.2,0.2-0.2h11.6c9,0,15.4,0.7,19.5,2.2   c5.8,2,10.4,5.6,13.7,10.6c3.3,5,4.9,11.1,4.9,18c0,6-1.3,11.3-3.9,15.9c-2.6,4.6-6,8-10.1,10.1c-4.1,2.2-10,3.3-17.4,3.3H211.2z    M217.1,89.3h5.9c8.2,0,13.9-0.5,17.1-1.5c4.5-1.5,7.9-4,10.5-7.8c2.5-3.7,3.8-8.4,3.8-13.8c0-5.7-1.4-10.6-4.1-14.7   c-2.8-4.1-6.6-6.8-11.5-8.3c-3.7-1.1-9.9-1.7-18.4-1.7h-3.2V89.3z"></path>		<path class="st0" d="M271.4,95.3c-0.1,0-0.2-0.1-0.2-0.2V35.5c0-0.1,0.1-0.2,0.2-0.2h6c0.1,0,0.2,0.1,0.2,0.2v59.7   c0,0.1-0.1,0.2-0.2,0.2H271.4z"></path>	</g></g></svg>