<svg xmlns="http://www.w3.org/2000/svg" viewBox="0 0 284.8 130.7"><path d="M31.5 71.3V96l-2.2 1.7c-4.2-5-7.4-10.9-9.4-17.3v-9.1zm17-35.2v47l-11.6 8.8V36.1zM36.9 99.2l11.6-8.8V112c-4.2-1.8-8.1-4.1-11.6-6.9zm28.6-47.3v31.9l-6.6-8.7-5 3.8v-27zM53.9 86.3v27.6c3.7 1.1 7.6 1.8 11.6 2V93.5l-7.7-10.2z" fill="#fff"></path><g fill="#fff"><path d="M99.6 39.2v30.5l-11.7 8.5v-39zM87.9 85.4l11.6-8.5V105c-3.5 2.8-7.4 5.1-11.6 6.9zm28.7-77.5v49.5L105 65.8V7.9zM105 73l11.6-8.4v15.8c-2.3 7.5-6.4 14.2-11.6 19.8z"></path></g><path d="M82.5 26.5v55.6l-11.6 8.4v-64zm-11.6 89.4c4-.2 7.9-.9 11.6-2V89.3l-11.6 8.4z" fill="#fff"></path><path d="M120.7 34.2v14c1.8 5.4 2.7 11.2 2.7 17.2 0 30.4-24.8 55.2-55.2 55.2C37.8 120.5 13 95.8 13 65.3s24.8-55.2 55.2-55.2c12.2 0 23.5 4 32.6 10.7v-7.1c-9.4-6-20.6-9.4-32.6-9.4-33.7 0-61 27.3-61 61s27.3 61 61 61 61-27.3 61-61c0-11.3-3.1-22-8.5-31.1zM175 97.1c-8.8 0-17.1-3.5-23.1-10-6.1-6.4-9.1-14.9-8.6-23.7 1-15.9 14.2-29 30.1-29.7h1.6c10.2 0 19.8 4.9 25.8 13.2.1.1 0 .3-.1.4l-4.2 3.2c-.1 0-.1.1-.2.1s-.2 0-.2-.1c-4.8-6.8-12.7-10.9-21.1-10.9-1.1 0-2.2.1-3.4.2-11.6 1.5-21 11-22.3 22.7-.8 7.5 1.4 14.6 6.4 20.2 4.9 5.5 11.9 8.6 19.3 8.6 8.1 0 15.9-3.9 20.7-10.4.1-.1.1-.1.2-.1s.1 0 .2.1l4.2 3.2c.1.1.2.3.1.4-6 7.9-15.3 12.6-25.4 12.6zm36.2-1.8c-.1 0-.2-.1-.2-.2V35.5c0-.1.1-.2.2-.2h11.6c9 0 15.4.7 19.5 2.2 5.8 2 10.4 5.6 13.7 10.6s4.9 11.1 4.9 18c0 6-1.3 11.3-3.9 15.9s-6 8-10.1 10.1c-4.1 2.2-10 3.3-17.4 3.3h-18.3zm5.9-6h5.9c8.2 0 13.9-.5 17.1-1.5 4.5-1.5 7.9-4 10.5-7.8 2.5-3.7 3.8-8.4 3.8-13.8 0-5.7-1.4-10.6-4.1-14.7-2.8-4.1-6.6-6.8-11.5-8.3-3.7-1.1-9.9-1.7-18.4-1.7h-3.2v47.8zm54.3 6c-.1 0-.2-.1-.2-.2V35.5c0-.1.1-.2.2-.2h6c.1 0 .2.1.2.2v59.7c0 .1-.1.2-.2.2h-6z" fill="#fff"></path></svg>