<svg width="137" height="40" viewBox="0 0 137 40" fill="none" xmlns="http://www.w3.org/2000/svg">
<g clip-path="url(#clip0_2788_4770)">
<path d="M23.5 9H12L18 18L23.5 9Z" fill="#FBC256"/>
<path d="M13 16H4L17.5 35L36 5H28.5L17.5 23.5L13 16Z" fill="#FBC256"/>
<path d="M23.5 9H12L18 18L23.5 9Z" fill="#4D7EA8"/>
<path d="M111.922 10.4486C111.922 11.7999 110.83 12.8952 109.483 12.8952C108.136 12.8952 107.045 11.7999 107.045 10.4486C107.045 9.09743 108.136 8.00205 109.483 8.00205C110.83 8.00205 111.922 9.09743 111.922 10.4486Z" fill="#060C3B"/>
<path d="M107.393 20.3748V26.8059H109.518H111.643V20.3748V13.9438H109.518H107.393V20.3748Z" fill="#060C3B"/>
<path d="M117.461 10.9096C116.542 11.194 115.625 11.4749 115.423 11.5338L115.057 11.6409V12.7923V13.9438H114.117H113.176V16.0059V18.068H114.107H115.038L115.078 20.5671C115.112 22.6944 115.139 23.1625 115.257 23.7148C115.761 26.0725 117.409 27.0674 120.562 26.9185C121.079 26.8941 121.62 26.8546 121.764 26.8308L122.025 26.7876V24.8812V22.9749L121.102 22.9502C120.039 22.9217 119.722 22.8143 119.484 22.402C119.352 22.1741 119.341 22.017 119.32 20.1142L119.298 18.0711L120.644 18.0521L121.99 18.0331L122.009 15.9884L122.027 13.9438H120.668H119.308V12.1612C119.308 10.7781 119.288 10.3803 119.221 10.3856C119.173 10.3894 118.381 10.6252 117.461 10.9096Z" fill="#060C3B"/>
<path d="M123.038 14.2059C125.637 20.4386 128.024 26.3516 127.992 26.4773C127.926 26.7402 127.54 27.2054 127.2 27.4315C126.76 27.7237 126.296 27.8548 125.527 27.9038L124.882 27.9449V29.9724V32L125.736 31.9542C126.205 31.929 126.841 31.864 127.148 31.8098C128.979 31.4868 130.43 30.5367 131.455 28.9896C132.169 27.9124 132.297 27.5684 136.487 15.4292L137 13.9438H134.646H132.291L131.332 17.5227C130.804 19.4911 130.349 21.1628 130.322 21.2374C130.273 21.3696 129.991 20.594 128.239 15.4999L127.704 13.9455L125.317 13.9446L122.929 13.9438L123.038 14.2059Z" fill="#060C3B"/>
<path d="M98.9287 13.7027C96.0618 14.246 93.9839 16.3347 93.4913 19.1686C92.8776 22.6989 94.9629 26.0148 98.3698 26.9263C98.9932 27.0931 99.1875 27.1125 100.216 27.1107C101.481 27.1085 101.935 27.0233 102.955 26.5974C103.996 26.1626 105.052 25.294 105.707 24.3333L106.034 23.853L105.876 23.7469C105.788 23.6885 104.975 23.2099 104.069 22.6832L102.42 21.7258L102.205 22.0094C101.535 22.8896 100.287 23.2262 99.208 22.8176C97.5741 22.1989 97.1227 19.7713 98.4024 18.4844C99.4053 17.4759 101.142 17.5373 102.1 18.6153L102.435 18.9922L104.165 17.994C105.116 17.4449 105.923 16.9717 105.956 16.9423C106.062 16.851 105.656 16.2522 105.082 15.6523C103.814 14.3279 102.323 13.6833 100.39 13.6249C99.77 13.6061 99.3095 13.6306 98.9287 13.7027Z" fill="#060C3B"/>
<path fill-rule="evenodd" clip-rule="evenodd" d="M84.0874 13.7074C82.4651 14.0012 80.9653 14.8748 79.9597 16.1119C79.4942 16.6844 78.8777 17.924 78.6738 18.6972C78.4473 19.5566 78.4477 21.1964 78.6748 22.0525C79.4462 24.9611 81.9151 26.967 84.9275 27.1325C87.0055 27.2468 88.9275 26.4931 90.3079 25.0228C93.335 21.7983 92.4996 16.5263 88.6296 14.4321C87.2715 13.6971 85.609 13.4319 84.0874 13.7074ZM87.8833 20.3748C87.8833 19.1446 87.1885 18.1418 86.1145 17.8218C85.6931 17.6963 84.8876 17.695 84.4917 17.8191C83.8302 18.0266 83.1898 18.6383 82.9285 19.3122C82.7093 19.8773 82.7099 20.8737 82.9297 21.4406C83.1336 21.9666 83.6668 22.5496 84.1696 22.7964C84.6685 23.0413 85.5101 23.1034 86.078 22.9372C87.191 22.6118 87.8833 21.629 87.8833 20.3748Z" fill="#060C3B"/>
<path d="M72.4149 17.4029V26.8059H74.5404H76.6657L76.6481 17.4214L76.6304 8.03698L74.5227 8.01845L72.4149 8V17.4029Z" fill="#060C3B"/>
<path fill-rule="evenodd" clip-rule="evenodd" d="M62.7173 13.6942C60.0032 14.1761 58.0062 16.0269 57.3566 18.6622C57.1743 19.4013 57.1122 20.6762 57.2217 21.4275C57.4851 23.2352 58.3471 24.7202 59.7337 25.7554C60.5166 26.34 61.3594 26.7081 62.5638 26.9913C63.4011 27.1882 65.3954 27.1713 66.2366 26.9602C67.02 26.7637 67.6545 26.5091 68.2612 26.1478C68.7716 25.844 69.7672 24.9639 69.7672 24.8167C69.7672 24.7682 69.0898 24.2534 68.2618 23.6728L66.7564 22.617L66.5025 22.8206C65.3963 23.708 63.4374 23.7553 62.306 22.9221C61.9752 22.6785 61.615 22.2077 61.615 22.019C61.615 21.925 62.1212 21.9127 66 21.9127C70.2019 21.9127 70.3866 21.9073 70.4257 21.7836C70.4482 21.7126 70.4929 21.3686 70.525 21.0191C70.8427 17.5647 68.8349 14.5939 65.6461 13.8003C64.8947 13.6132 63.4651 13.5615 62.7173 13.6942ZM66.3378 18.7496C66.0657 17.9528 65.3548 17.3778 64.4621 17.2325C64.2183 17.1928 63.9875 17.1638 63.9491 17.168C63.1396 17.2568 62.5453 17.4987 62.148 17.9012C61.8976 18.1549 61.5453 18.7413 61.5453 18.9046C61.5453 18.9529 62.3512 18.9768 63.9804 18.9768H66.4154L66.3378 18.7496Z" fill="#060C3B"/>
<path d="M41 8.83911C41.1297 9.23364 42.5878 13.7498 43.952 17.9981C45.3161 22.2465 46.5115 25.9662 46.6086 26.2641L46.7851 26.8059L49.5142 26.8056L52.2433 26.8053L55.0936 17.9454C56.6612 13.0725 57.9583 9.03051 57.9759 8.96319C58.006 8.84834 57.8545 8.84086 55.5052 8.84086H53.0023L51.2641 14.9862C50.3081 18.3662 49.5108 21.1166 49.4923 21.0982C49.474 21.0798 48.6878 18.3223 47.7454 14.9703L46.0319 8.87581L43.516 8.8575L41 8.83911Z" fill="#060C3B"/>
</g>
<defs>
<clipPath id="clip0_2788_4770">
<rect width="137" height="40" fill="white"/>
</clipPath>
</defs>
</svg>
