<svg width="60" height="60" viewBox="0 0 60 60" fill="none" xmlns="http://www.w3.org/2000/svg">
<path d="M43.5402 19.4867C43.5018 19.7316 43.4581 19.982 43.4088 20.2393C41.7161 28.9301 35.9249 31.9324 28.5287 31.9324H24.7628C23.8583 31.9324 23.0961 32.5892 22.9551 33.4814L20.481 49.1758C20.3893 49.7614 20.8409 50.2897 21.4321 50.2897H28.1113C28.9022 50.2897 29.5741 49.7149 29.6987 48.9349L29.7643 48.5956L31.0219 40.615L31.1026 40.1771C31.2258 39.3943 31.8991 38.8196 32.69 38.8196H33.6889C40.1602 38.8196 45.226 36.1923 46.7067 28.5894C47.3252 25.4133 47.005 22.7613 45.3684 20.8961C44.873 20.3337 44.2586 19.8671 43.5402 19.4867Z" fill="#179BD7"/>
<path d="M25.1559 19.5354C25.2394 18.9976 25.5842 18.5584 26.0481 18.3367C26.2602 18.2354 26.4942 18.1793 26.7419 18.1793H36.8025C37.9944 18.1793 39.1069 18.2573 40.1222 18.4215C40.4123 18.4681 40.6942 18.5214 40.9693 18.5816C41.243 18.6432 41.5098 18.7116 41.7684 18.7869C41.8971 18.8252 42.0243 18.8649 42.1489 18.9046C42.6483 19.0702 43.1122 19.2658 43.5405 19.4916C44.0441 16.28 43.5364 14.0932 41.7999 12.1131C39.8855 9.93326 36.4303 9 32.0089 9H19.1732C18.2701 9 17.4996 9.65684 17.3601 10.5504L12.0137 44.4392C11.9083 45.1097 12.4256 45.7145 13.1016 45.7145H21.026L25.1559 19.5354Z" fill="#253B80"/>
<path d="M43.4068 20.2397C43.4558 19.9839 43.4993 19.735 43.5375 19.4914C43.1095 19.2659 42.6459 19.0704 42.1469 18.9049C42.0223 18.8653 41.8951 18.8256 41.7665 18.7873C41.5078 18.712 41.241 18.6436 40.9673 18.582C40.6923 18.5218 40.4104 18.4684 40.1203 18.4219C39.1049 18.2577 37.9924 18.1797 36.8005 18.1797H26.7399C26.4922 18.1797 26.2582 18.2358 26.0461 18.3371C25.5822 18.5587 25.2374 18.998 25.1539 19.5358L22.9531 33.4818C23.0941 32.5896 23.8563 31.9328 24.7608 31.9328H28.5267C35.9229 31.9328 41.7141 28.9305 43.4068 20.2397Z" fill="#222D65"/>
</svg>
