<?xml version="1.0" encoding="UTF-8"?>
<svg width="24px" height="24px" viewBox="0 0 24 24" version="1.1" xmlns="http://www.w3.org/2000/svg" xmlns:xlink="http://www.w3.org/1999/xlink">
    <!-- Generator: Sketch 51.3 (57544) - http://www.bohemiancoding.com/sketch -->
    <title>instagram</title>
    <desc>Created with Sketch.</desc>
    <defs></defs>
    <g id="instagram" stroke="none" stroke-width="1" fill="none" fill-rule="evenodd">
        <g>
            <rect id="Rectangle-path" fill="#242424" fill-rule="nonzero" x="0" y="0" width="24" height="24"></rect>
            <path d="M12,3 C14.4442599,3 14.7507835,3.01029631 15.7107115,3.05416411 C16.6686669,3.09791356 17.3228996,3.25003068 17.8953533,3.47248619 C18.4872161,3.70247655 18.9890944,4.01022179 19.4894341,4.51055931 C19.9897738,5.01089682 20.2975204,5.51285176 20.5275117,6.10467257 C20.7500471,6.67716315 20.9021649,7.331393 20.9458751,8.28934426 C20.9897036,9.24926799 21,9.55571141 21,11.9999606 C21,14.4442886 20.9897036,14.750732 20.9458751,15.7106557 C20.9021649,16.668607 20.7500471,17.3228369 20.5275117,17.8953274 C20.2975204,18.4871482 19.9897738,18.9891032 19.4894341,19.4894407 C18.9890944,19.9897782 18.4872161,20.2975235 17.8953533,20.5275138 C17.3228996,20.7499693 16.6686669,20.9020864 15.7107115,20.9458359 C14.7507835,20.9896248 14.4442599,21 12,21 C9.55574014,21 9.24925594,20.9896248 8.289328,20.9458359 C7.33133309,20.9020864 6.67710036,20.7499693 6.10468618,20.5275138 C5.51282332,20.2975235 5.01090563,19.9897782 4.51056593,19.4894407 C4.01022622,18.9891032 3.70247963,18.4871482 3.47252771,17.8953274 C3.24995288,17.3228369 3.09783509,16.668607 3.05416435,15.7106557 C3.0103358,14.750732 3,14.4442886 3,11.9999606 C3,9.55571141 3.0103358,9.24926799 3.05416435,8.28934426 C3.09783509,7.331393 3.24995288,6.67716315 3.47252771,6.10467257 C3.70247963,5.51285176 4.01022622,5.01089682 4.51056593,4.51055931 C5.01090563,4.01022179 5.51282332,3.70247655 6.10468618,3.47248619 C6.67710036,3.25003068 7.33133309,3.09791356 8.289328,3.05416411 C9.24925594,3.01029631 9.55574014,3 12,3 Z M12,4.62160954 C9.59688611,4.62160954 9.31229645,4.63076181 8.36321716,4.67403787 C7.48577841,4.71407907 7.00918738,4.86075217 6.69205178,4.98395284 C6.27195263,5.14723415 5.97213541,5.34227229 5.65720898,5.65719733 C5.34232201,5.97216183 5.14728302,6.27193828 4.98400098,6.69203559 C4.86076033,7.00916981 4.71412604,7.48575874 4.67404521,8.36319365 C4.63080841,9.31226878 4.62161665,9.59685719 4.62161665,11.9999606 C4.62161665,14.4031428 4.63080841,14.6877312 4.67404521,15.6367274 C4.71412604,16.5142413 4.86076033,16.9908302 4.98400098,17.3079644 C5.14728302,17.7280223 5.34232201,18.0278382 5.65720898,18.3428027 C5.97213541,18.6577277 6.27195263,18.8527658 6.69205178,19.0160077 C7.00918738,19.1392478 7.48577841,19.2859209 8.36321716,19.3258832 C9.31213865,19.3692382 9.59668886,19.378351 12,19.378351 C14.4033111,19.378351 14.6878613,19.3692382 15.6367828,19.3258832 C16.514261,19.2859209 16.9908126,19.1392478 17.3079482,19.0160077 C17.7280868,18.8527658 18.027904,18.6577277 18.342791,18.3428027 C18.6577963,18.0278382 18.8528353,17.7280223 19.0160385,17.3079644 C19.1392397,16.9908302 19.2859134,16.5142413 19.3259548,15.6367274 C19.369231,14.6877312 19.3784228,14.4031428 19.3784228,11.9999606 C19.3784228,9.59685719 19.369231,9.31226878 19.3259548,8.36319365 C19.2859134,7.48575874 19.1392397,7.00916981 19.0160385,6.69203559 C18.8528353,6.27193828 18.6577963,5.97216183 18.342791,5.65719733 C18.027904,5.34227229 17.7280868,5.14723415 17.3079482,4.98395284 C16.9908126,4.86075217 16.514261,4.71407907 15.6367828,4.67403787 C14.6877035,4.63076181 14.4031139,4.62160954 12,4.62160954 Z M12,7.37837731 C14.5524308,7.37837731 16.6216035,9.44758043 16.6216035,11.9999606 C16.6216035,14.552459 14.5524308,16.6215832 12,16.6215832 C9.44756925,16.6215832 7.3783965,14.552459 7.3783965,11.9999606 C7.3783965,9.44758043 9.44756925,7.37837731 12,7.37837731 Z M12,14.9999737 C13.6568846,14.9999737 15.0000263,13.6568379 15.0000263,11.9999606 C15.0000263,10.3431226 13.6568846,8.99998685 12,8.99998685 C10.3431548,8.99998685 8.9999737,10.3431226 8.9999737,11.9999606 C8.9999737,13.6568379 10.3431548,14.9999737 12,14.9999737 Z M17.8842679,7.19576576 C17.8842679,7.79220216 17.4007338,8.27577365 16.8042553,8.27577365 C16.2078163,8.27577365 15.7242427,7.79220216 15.7242427,7.19576576 C15.7242427,6.59928991 16.2078163,6.11575787 16.8042553,6.11575787 C17.4007338,6.11575787 17.8842679,6.59928991 17.8842679,7.19576576 Z" id="Combined-Shape" fill="#FFFFFF"></path>
        </g>
    </g>
</svg>