<?xml version="1.0" encoding="UTF-8"?>
<svg width="119px" height="39px" viewBox="0 0 119 39" version="1.1" xmlns="http://www.w3.org/2000/svg" xmlns:xlink="http://www.w3.org/1999/xlink">
    <!-- Generator: Sketch 50 (54983) - http://www.bohemiancoding.com/sketch -->
    <title>Logo</title>
    <desc>Created with Sketch.</desc>
    <defs></defs>
    <g id="Logo" stroke="none" stroke-width="1" fill="none" fill-rule="evenodd">
        <g transform="translate(2.000000, 8.000000)" fill="#0031F0">
            <path d="M16.624,2.104 C18.0533405,3.10667168 18.768,4.47199136 18.768,6.2 C18.768,7.39467264 18.4213368,8.43466224 17.728,9.32 C17.0346632,10.2053378 16.0906726,10.8079984 14.896,11.128 C16.3466739,11.4053347 17.4879958,12.0506616 18.32,13.064 C19.1520042,14.0773384 19.568,15.3199926 19.568,16.792 C19.568,18.7120096 18.8106742,20.2266611 17.296,21.336 C15.7813258,22.4453389 13.7226797,23 11.12,23 L0.464,23 L0.464,0.6 L10.768,0.6 C13.242679,0.6 15.1946595,1.10132832 16.624,2.104 Z M12.768,8.968 C13.3120027,8.53066448 13.584,7.91733728 13.584,7.128 C13.584,6.35999616 13.3120027,5.7626688 12.768,5.336 C12.2239973,4.9093312 11.4720048,4.70666656 10.512,4.728 L5.52,4.728 L5.52,9.624 L10.512,9.624 C11.4720048,9.624 12.2239973,9.40533552 12.768,8.968 Z M13.328,18.152 C14.0106701,17.6719976 14.352,17.0053376 14.352,16.152 C14.352,15.3413293 14.0106701,14.7013357 13.328,14.232 C12.6453299,13.7626643 11.7066726,13.5386666 10.512,13.56 L5.52,13.56 L5.52,18.872 L10.512,18.872 C11.7066726,18.872 12.6453299,18.6320024 13.328,18.152 Z M22.4800001,0.6 L27.5360001,0.6 L27.5360001,18.584 L37.1360001,18.584 L37.1360001,23 L22.4800001,23 L22.4800001,0.6 Z M39.3760002,0.6 L44.4320002,0.6 L44.4320002,23 L39.3760002,23 L39.3760002,0.6 Z M59.7120003,5.16 C58.4213272,4.74399792 57.3173382,4.536 56.4000003,4.536 C55.5253293,4.536 54.8320029,4.6959984 54.3200003,5.016 C53.8079977,5.3360016 53.5520003,5.80533024 53.5520003,6.424 C53.5520003,7.21333728 53.9199966,7.81599792 54.6560003,8.232 C55.392004,8.64800208 56.5279926,9.07999776 58.0640003,9.528 C59.600008,9.97600224 60.8639953,10.4239978 61.8560003,10.872 C62.8480053,11.3200022 63.6959968,11.9919955 64.4000003,12.888 C65.1040038,13.7840045 65.4560003,14.9679926 65.4560003,16.44 C65.4560003,17.8693405 65.0773374,19.1013282 64.3200003,20.136 C63.5626632,21.1706718 62.5226736,21.954664 61.2000003,22.488 C59.877327,23.021336 58.3733421,23.288 56.6880003,23.288 C54.8746579,23.288 53.0933424,22.9680032 51.3440003,22.328 C49.5946582,21.6879968 48.0800067,20.8133389 46.8000003,19.704 L48.8160003,15.576 C49.9466726,16.6000051 51.2479929,17.4213302 52.7200003,18.04 C54.1920077,18.6586698 55.5359942,18.968 56.7520003,18.968 C57.7973389,18.968 58.6133307,18.7760019 59.2000003,18.392 C59.7866699,18.0079981 60.0800003,17.453337 60.0800003,16.728 C60.0800003,16.1519971 59.8826689,15.6773352 59.4880003,15.304 C59.0933317,14.9306648 58.5920033,14.6266678 57.9840003,14.392 C57.3759973,14.1573322 56.5386723,13.8906682 55.4720003,13.592 C53.9359926,13.1653312 52.6826718,12.7386688 51.7120003,12.312 C50.7413288,11.8853312 49.9040038,11.234671 49.2000003,10.36 C48.4959968,9.48532896 48.1440003,8.32267392 48.1440003,6.872 C48.1440003,5.52799328 48.5066633,4.3493384 49.2320003,3.336 C49.9573373,2.3226616 50.9706605,1.54400272 52.2720003,1 C53.5733401,0.45599728 55.0879917,0.184 56.8160003,0.184 C58.352008,0.184 59.8666595,0.40799776 61.3600003,0.856 C62.8533411,1.30400224 64.1759945,1.9013296 65.3280003,2.648 L63.3760003,6.84 C62.2239945,6.13599648 61.0026734,5.57600208 59.7120003,5.16 Z M79.3280004,5.16 C78.0373273,4.74399792 76.9333383,4.536 76.0160004,4.536 C75.1413294,4.536 74.448003,4.6959984 73.9360004,5.016 C73.4239978,5.3360016 73.1680004,5.80533024 73.1680004,6.424 C73.1680004,7.21333728 73.5359967,7.81599792 74.2720004,8.232 C75.0080041,8.64800208 76.1439927,9.07999776 77.6800004,9.528 C79.2160081,9.97600224 80.4799954,10.4239978 81.4720004,10.872 C82.4640054,11.3200022 83.3119969,11.9919955 84.0160004,12.888 C84.7200039,13.7840045 85.0720004,14.9679926 85.0720004,16.44 C85.0720004,17.8693405 84.6933375,19.1013282 83.9360004,20.136 C83.1786633,21.1706718 82.1386737,21.954664 80.8160004,22.488 C79.4933271,23.021336 77.9893422,23.288 76.3040004,23.288 C74.490658,23.288 72.7093425,22.9680032 70.9600004,22.328 C69.2106583,21.6879968 67.6960068,20.8133389 66.4160004,19.704 L68.4320004,15.576 C69.5626727,16.6000051 70.863993,17.4213302 72.3360004,18.04 C73.8080078,18.6586698 75.1519943,18.968 76.3680004,18.968 C77.413339,18.968 78.2293308,18.7760019 78.8160004,18.392 C79.40267,18.0079981 79.6960004,17.453337 79.6960004,16.728 C79.6960004,16.1519971 79.498669,15.6773352 79.1040004,15.304 C78.7093318,14.9306648 78.2080034,14.6266678 77.6000004,14.392 C76.9919974,14.1573322 76.1546724,13.8906682 75.0880004,13.592 C73.5519927,13.1653312 72.2986719,12.7386688 71.3280004,12.312 C70.3573289,11.8853312 69.5200039,11.234671 68.8160004,10.36 C68.1119969,9.48532896 67.7600004,8.32267392 67.7600004,6.872 C67.7600004,5.52799328 68.1226634,4.3493384 68.8480004,3.336 C69.5733374,2.3226616 70.5866606,1.54400272 71.8880004,1 C73.1893402,0.45599728 74.7039918,0.184 76.4320004,0.184 C77.9680081,0.184 79.4826596,0.40799776 80.9760004,0.856 C82.4693412,1.30400224 83.7919946,1.9013296 84.9440004,2.648 L82.9920004,6.84 C81.8399946,6.13599648 80.6186735,5.57600208 79.3280004,5.16 Z M98.9440005,5.16 C97.6533274,4.74399792 96.5493384,4.536 95.6320005,4.536 C94.7573295,4.536 94.0640031,4.6959984 93.5520005,5.016 C93.0399979,5.3360016 92.7840005,5.80533024 92.7840005,6.424 C92.7840005,7.21333728 93.1519968,7.81599792 93.8880005,8.232 C94.6240042,8.64800208 95.7599928,9.07999776 97.2960005,9.528 C98.8320082,9.97600224 100.095996,10.4239978 101.088,10.872 C102.080005,11.3200022 102.927997,11.9919955 103.632,12.888 C104.336004,13.7840045 104.688,14.9679926 104.688,16.44 C104.688,17.8693405 104.309338,19.1013282 103.552,20.136 C102.794663,21.1706718 101.754674,21.954664 100.432,22.488 C99.1093272,23.021336 97.6053423,23.288 95.9200005,23.288 C94.1066581,23.288 92.3253426,22.9680032 90.5760005,22.328 C88.8266584,21.6879968 87.3120069,20.8133389 86.0320005,19.704 L88.0480005,15.576 C89.1786728,16.6000051 90.4799931,17.4213302 91.9520005,18.04 C93.4240079,18.6586698 94.7679944,18.968 95.9840005,18.968 C97.0293391,18.968 97.8453309,18.7760019 98.4320005,18.392 C99.0186701,18.0079981 99.3120005,17.453337 99.3120005,16.728 C99.3120005,16.1519971 99.1146691,15.6773352 98.7200005,15.304 C98.3253319,14.9306648 97.8240035,14.6266678 97.2160005,14.392 C96.6079975,14.1573322 95.7706725,13.8906682 94.7040005,13.592 C93.1679928,13.1653312 91.914672,12.7386688 90.9440005,12.312 C89.973329,11.8853312 89.136004,11.234671 88.4320005,10.36 C87.727997,9.48532896 87.3760005,8.32267392 87.3760005,6.872 C87.3760005,5.52799328 87.7386635,4.3493384 88.4640005,3.336 C89.1893375,2.3226616 90.2026607,1.54400272 91.5040005,1 C92.8053403,0.45599728 94.3199919,0.184 96.0480005,0.184 C97.5840082,0.184 99.0986597,0.40799776 100.592,0.856 C102.085341,1.30400224 103.407995,1.9013296 104.56,2.648 L102.608,6.84 C101.455995,6.13599648 100.234674,5.57600208 98.9440005,5.16 Z" id="BLISSS"></path>
            <circle id="Oval" cx="113" cy="18" r="4"></circle>
        </g>
    </g>
</svg>