<?xml version="1.0" encoding="UTF-8"?>
<svg width="24px" height="24px" viewBox="0 0 24 24" version="1.1" xmlns="http://www.w3.org/2000/svg" xmlns:xlink="http://www.w3.org/1999/xlink">
    <!-- Generator: Sketch 51.3 (57544) - http://www.bohemiancoding.com/sketch -->
    <title>twitter</title>
    <desc>Created with Sketch.</desc>
    <defs></defs>
    <g id="twitter" stroke="none" stroke-width="1" fill="none" fill-rule="evenodd">
        <g>
            <rect id="Rectangle-path" fill="#242424" fill-rule="nonzero" x="0" y="0" width="24" height="24"></rect>
            <path d="M20.126,7.6 C19.5320622,7.85877864 18.9027735,8.027308 18.259,8.1 C18.9359895,7.69774905 19.4430096,7.06237389 19.685,6.313 C19.0495553,6.69128289 18.3531896,6.95622668 17.627,7.096 C16.7159001,6.12597877 15.3050113,5.81034818 14.0674369,6.29968845 C12.8298626,6.78902871 12.0163469,7.98419481 12.015,9.315 C12.0162465,9.56474749 12.0430528,9.81371154 12.095,10.058 C9.48567657,9.92697426 7.0545129,8.69485514 5.406,6.668 C4.54078718,8.15076477 4.97888318,10.0507871 6.406,11.005 C5.89169029,10.9851361 5.38936221,10.8439634 4.94,10.593 L4.94,10.633 C4.93791194,12.1778417 6.02582667,13.5097004 7.54,13.816 C7.26141417,13.8883419 6.97482446,13.9252995 6.687,13.926 C6.48203533,13.924692 6.27745894,13.9079782 6.075,13.876 C6.50179965,15.1961498 7.71980544,16.0996112 9.107,16.125 C7.9586724,17.025909 6.54054908,17.5141153 5.081,17.511 C4.81944341,17.5129415 4.55799711,17.4995853 4.298,17.471 C7.1388943,19.2912312 10.7465544,19.4165053 13.7068668,17.7977179 C16.6671792,16.1789305 18.5084705,13.0740068 18.509,9.7 C18.509,9.559 18.509,9.419 18.499,9.278 C19.1319802,8.81430554 19.6820569,8.24698613 20.126,7.6 Z" id="Icon-Twitter" fill="#FFFFFF"></path>
        </g>
    </g>
</svg>