<svg width="180" height="180" viewBox="0 0 180 180" fill="none" xmlns="http://www.w3.org/2000/svg">
<rect width="180" height="180" fill="white"/>
<ellipse cx="86" cy="152.501" rx="56" ry="2.5" fill="white"/>
<path fill-rule="evenodd" clip-rule="evenodd" d="M26 75C26 75.5523 26.4477 76 27 76C27.5523 76 28 75.5523 28 75V71L32 71C32.5523 71 33 70.5523 33 70C33 69.4477 32.5523 69 32 69L28 69V65C28 64.4477 27.5523 64 27 64C26.4477 64 26 64.4477 26 65V69L22 69C21.4477 69 21 69.4477 21 70C21 70.5523 21.4477 71 22 71L26 71V75Z" fill="#E5E7EB"/>
<path fill-rule="evenodd" clip-rule="evenodd" d="M154 74.0002C154 74.5525 154.448 75.0002 155 75.0002C155.552 75.0002 156 74.5525 156 74.0002V70.0002L160 70.0002C160.552 70.0002 161 69.5525 161 69.0002C161 68.448 160.552 68.0002 160 68.0002L156 68.0002V65.0002C156 64.448 155.552 64.0002 155 64.0002C154.448 64.0002 154 64.448 154 65.0002L154 68.0002L151 68.0002C150.448 68.0002 150 68.448 150 69.0002C150 69.5525 150.448 70.0002 151 70.0002L154 70.0002L154 74.0002Z" fill="#E5E7EB"/>
<circle cx="138" cy="32" r="4" stroke="#E5E7EB" stroke-width="2"/>
<circle cx="23.5" cy="134.5" r="2.5" stroke="#E5E7EB" stroke-width="2"/>
<circle cx="157.5" cy="122.5" r="1.5" stroke="#E5E7EB" stroke-width="2"/>
<circle cx="58.5" cy="32.5" r="2.5" stroke="#E5E7EB" stroke-width="2"/>
<path d="M77.3314 61.5287C80.2779 52.4604 81.7511 47.9263 83.515 46.2046C87.3997 42.4127 93.6003 42.4127 97.485 46.2046C99.2489 47.9263 100.722 52.4604 103.669 61.5287C104.494 64.0704 104.907 65.3413 105.548 66.3727C106.925 68.5901 109.115 70.181 111.649 70.8057C112.828 71.0963 114.165 71.0963 116.837 71.0963C126.372 71.0963 131.14 71.0963 133.322 72.2418C138.129 74.7646 140.045 80.6617 137.639 85.5281C136.547 87.7376 132.69 90.5399 124.976 96.1444C122.814 97.7152 121.733 98.5007 120.95 99.4288C119.266 101.424 118.43 103.998 118.619 106.601C118.707 107.812 119.12 109.083 119.946 111.625C122.892 120.693 124.366 125.227 123.951 127.657C123.037 133.008 118.02 136.653 112.649 135.868C110.21 135.512 106.353 132.71 98.6386 127.106C96.4765 125.535 95.3955 124.749 94.2709 124.291C91.8533 123.307 89.1467 123.307 86.7291 124.291C85.6045 124.749 84.5235 125.535 82.3614 127.106C74.6474 132.71 70.7904 135.512 68.3515 135.868C62.9798 136.653 57.9635 133.008 57.0495 127.657C56.6345 125.227 58.1077 120.693 61.0542 111.625C61.88 109.083 62.2929 107.812 62.3809 106.601C62.5699 103.998 61.7335 101.424 60.0503 99.4288C59.2673 98.5007 58.1863 97.7152 56.0242 96.1444C48.3103 90.5399 44.4533 87.7376 43.3609 85.5281C40.9551 80.6617 42.8711 74.7646 47.6779 72.2418C49.8604 71.0963 54.6279 71.0963 64.1628 71.0963C66.8353 71.0963 68.1716 71.0963 69.3505 70.8057C71.8849 70.181 74.0746 68.5901 75.452 66.3727C76.0926 65.3413 76.5056 64.0704 77.3314 61.5287Z" fill="white" stroke="#6B7280" stroke-width="6"/>
<path d="M55.8915 98.4164C58.2864 91.0459 68.7136 91.0459 71.1085 98.4164L71.9193 100.912C72.9903 104.208 76.0619 106.44 79.5277 106.44H82.1516C89.9014 106.44 93.1236 116.357 86.8539 120.912L84.7311 122.454C81.9272 124.491 80.754 128.102 81.825 131.398L82.6358 133.894C85.0306 141.264 76.5947 147.393 70.325 142.838L68.2023 141.296C65.3984 139.259 61.6016 139.259 58.7977 141.296L56.675 142.838C50.4052 147.393 41.9694 141.264 44.3642 133.894L45.175 131.398C46.246 128.102 45.0728 124.491 42.2689 122.454L40.1461 120.912C33.8764 116.357 37.0986 106.44 44.8484 106.44H47.4723C50.9381 106.44 54.0097 104.208 55.0807 100.912L55.8915 98.4164Z" fill="#E5E7EB" stroke="#6B7280" stroke-width="6"/>
<path d="M105.975 23L103 34.5013" stroke="#6B7280" stroke-width="6" stroke-linecap="round"/>
<path d="M124.723 56.0552L113.275 52.8809" stroke="#6B7280" stroke-width="6" stroke-linecap="round"/>
<path d="M119.935 36.4167L108.28 43.1459" stroke="#6B7280" stroke-width="6" stroke-linecap="round"/>
</svg>
