<svg width="254" height="236" viewBox="0 0 254 236" fill="none" xmlns="http://www.w3.org/2000/svg">
<g opacity="0.5">
<g opacity="0.5">
<g opacity="0.5">
<path d="M1.62695 1.99023L35.3359 27.4658L35.6797 74.1641L35.3359 187.773L161.961 216.992L211.719 131.375L35.3359 73.7188" stroke="#9497B8" stroke-width="3"/>
<path d="M69.5 234.5C81.098 234.5 90.5 225.098 90.5 213.5C90.5 201.902 81.098 192.5 69.5 192.5C57.902 192.5 48.5 201.902 48.5 213.5C48.5 225.098 57.902 234.5 69.5 234.5Z" fill="white" stroke="#9497B8" stroke-width="3"/>
<path d="M70 219.5C73.0376 219.5 75.5 217.038 75.5 214C75.5 210.962 73.0376 208.5 70 208.5C66.9624 208.5 64.5 210.962 64.5 214C64.5 217.038 66.9624 219.5 70 219.5Z" fill="white" stroke="#9497B8" stroke-width="3"/>
<path d="M231.5 207.5C243.098 207.5 252.5 198.098 252.5 186.5C252.5 174.902 243.098 165.5 231.5 165.5C219.902 165.5 210.5 174.902 210.5 186.5C210.5 198.098 219.902 207.5 231.5 207.5Z" fill="white" stroke="#9497B8" stroke-width="3"/>
<path d="M232 192.5C235.038 192.5 237.5 190.038 237.5 187C237.5 183.962 235.038 181.5 232 181.5C228.962 181.5 226.5 183.962 226.5 187C226.5 190.038 228.962 192.5 232 192.5Z" fill="white" stroke="#9497B8" stroke-width="3"/>
<path fill-rule="evenodd" clip-rule="evenodd" d="M179.527 211.589L183.209 210.027L184.381 212.788L180.699 214.351L179.527 211.589ZM185.97 208.854L205.301 200.649L206.473 203.411L187.143 211.616L185.97 208.854Z" fill="#9497B8"/>
<path fill-rule="evenodd" clip-rule="evenodd" d="M174 224.94L177.682 223.378L178.854 226.139L175.172 227.702L174 224.94ZM180.444 222.205L199.774 214L200.946 216.762L181.616 224.967L180.444 222.205Z" fill="#9497B8"/>
<path fill-rule="evenodd" clip-rule="evenodd" d="M199.61 127.238L223.219 79.9333L164.963 60.4412L148.72 110.95L199.61 127.238Z" stroke="#9497B8" stroke-width="3"/>
<path d="M132.558 106.489L135.746 72.9424L158.438 80.0097" stroke="#9497B8" stroke-width="3"/>
</g>
</g>
</g>
</svg>
