<svg width="48" height="48" viewBox="0 0 48 48" fill="none" xmlns="http://www.w3.org/2000/svg">
<path d="M35.249 25.786L27.433 33.6C27.0758 33.9909 26.5327 34.154 26.0192 34.0246C25.5057 33.8952 25.1048 33.4943 24.9754 32.9808C24.846 32.4673 25.0091 31.9242 25.4 31.567L30.965 26H13.5C12.6716 26 12 25.3284 12 24.5C12 23.6716 12.6716 23 13.5 23H30.965L25.4 17.433C25.0091 17.0758 24.846 16.5327 24.9754 16.0192C25.1048 15.5057 25.5057 15.1048 26.0192 14.9754C26.5327 14.846 27.0758 15.0091 27.433 15.4L35.249 23.215C35.9382 23.9395 36.0377 24.7934 35.249 25.786Z" fill="white"/>
</svg>
