<svg width="48" height="48" viewBox="0 0 48 48" fill="none" xmlns="http://www.w3.org/2000/svg">
<path d="M12.751 25.786L20.567 33.6C20.9242 33.9909 21.4673 34.154 21.9808 34.0246C22.4943 33.8952 22.8952 33.4943 23.0246 32.9808C23.154 32.4673 22.9909 31.9242 22.6 31.567L17.035 26H34.5C35.3284 26 36 25.3284 36 24.5C36 23.6716 35.3284 23 34.5 23H17.035L22.6 17.433C22.9909 17.0758 23.154 16.5327 23.0246 16.0192C22.8952 15.5057 22.4943 15.1048 21.9808 14.9754C21.4673 14.846 20.9242 15.0091 20.567 15.4L12.751 23.215C12.0618 23.9395 11.9623 24.7934 12.751 25.786Z" fill="black"/>
</svg>
