<?xml version="1.0" encoding="utf-8"?>
<!-- Generator: Adobe Illustrator 21.0.2, SVG Export Plug-In . SVG Version: 6.00 Build 0)  -->
<svg version="1.1" id="Layer_1" xmlns="http://www.w3.org/2000/svg" xmlns:xlink="http://www.w3.org/1999/xlink" x="0px" y="0px"
	 width="41px" height="41px" viewBox="0 0 41 41" style="enable-background:new 0 0 41 41;" xml:space="preserve">
<style type="text/css">
	.st0{fill:#FFFFFF;}
	.st1{fill:#333333;}
	.st2{fill:#B1B1AE;}
</style>
<path class="st0" d="M31,21.5L31,21.5c5.2,0,9.5,4.3,9.5,9.5l0,0c0,5.2-4.3,9.5-9.5,9.5l0,0c-5.2,0-9.5-4.3-9.5-9.5l0,0
	C21.5,25.8,25.8,21.5,31,21.5z"/>
<circle class="st1" cx="31" cy="31" r="5"/>
<g id="checkbox">
	<path class="st0" d="M3.5,0.5h13c1.7,0,3,1.3,3,3v13c0,1.7-1.3,3-3,3h-13c-1.7,0-3-1.3-3-3v-13C0.5,1.8,1.8,0.5,3.5,0.5z"/>
	<path class="st2" d="M16.5,20h-13C1.6,20,0,18.4,0,16.5v-13C0,1.6,1.6,0,3.5,0h13C18.4,0,20,1.6,20,3.5v13C20,18.4,18.4,20,16.5,20
		z M3.5,1C2.1,1,1,2.1,1,3.5v13C1,17.9,2.1,19,3.5,19h13c1.4,0,2.5-1.1,2.5-2.5v-13C19,2.1,17.9,1,16.5,1H3.5z"/>
</g>
<path id="checkbox-checked" class="st1" d="M17,41H3c-1.7,0-3-1.3-3-3V24c0-1.7,1.3-3,3-3h14c1.7,0,3,1.3,3,3v14
	C20,39.7,18.7,41,17,41z M13.3,26l-5.9,5.7l-1.7-1.6L4,31.7L7.4,35l7.6-7.4L13.3,26z"/>
<g id="checkbox_1_">
	<path class="st0" d="M31,0.5L31,0.5c5.2,0,9.5,4.3,9.5,9.5l0,0c0,5.2-4.3,9.5-9.5,9.5l0,0c-5.2,0-9.5-4.3-9.5-9.5l0,0
		C21.5,4.8,25.8,0.5,31,0.5z"/>
	<path class="st2" d="M31,20c-5.5,0-10-4.5-10-10c0-5.5,4.5-10,10-10c5.5,0,10,4.5,10,10C41,15.5,36.5,20,31,20z M31,1c-5,0-9,4-9,9
		c0,5,4,9,9,9c5,0,9-4,9-9C40,5,36,1,31,1z"/>
</g>
<path id="radio-checked" class="st1" d="M31,41c-5.5,0-10-4.5-10-10s4.5-10,10-10s10,4.5,10,10S36.5,41,31,41z M31,22c-5,0-9,4-9,9
	s4,9,9,9s9-4,9-9S36,22,31,22z"/>
</svg>
