<?xml version="1.0" encoding="iso-8859-1"?>
<!-- Generator: Adobe Illustrator 18.1.1, SVG Export Plug-In . SVG Version: 6.00 Build 0)  -->
<svg version="1.1" id="Capa_1" xmlns="http://www.w3.org/2000/svg" xmlns:xlink="http://www.w3.org/1999/xlink" x="0px" y="0px"
	 viewBox="0 0 202.96 202.96" style="enable-background:new 0 0 202.96 202.96;" xml:space="preserve">
<g>
	<g>
		<path style="fill:#010002;" d="M155.082,77.378h-10.271l6.116-23.373c5.404-20.654-6.997-41.858-27.657-47.266l-20.897-5.472
			c-20.661-5.408-41.873,7-47.28,27.654l8.904,2.33C68.113,15.5,84.289,6.041,100.029,10.164l20.911,5.468
			c15.743,4.123,25.209,20.292,21.094,36.043l-6.732,25.7H47.885c-7.605,0-13.796,6.188-13.796,13.796v97.993
			c0,7.605,6.191,13.796,13.796,13.796h107.194c7.601,0,13.793-6.191,13.793-13.796V91.178
			C168.875,83.57,162.684,77.378,155.082,77.378z M159.674,189.171c0,2.537-2.061,4.595-4.592,4.595H47.885
			c-2.53,0-4.595-2.058-4.595-4.595V91.178c0-2.537,2.065-4.599,4.595-4.599h107.194c2.53,0,4.592,2.061,4.592,4.599v97.993H159.674
			z"/>
		<path style="fill:#010002;" d="M101.478,120.081c-9.563,0-17.347,7.777-17.347,17.343c0,5.894,3.035,11.345,7.995,14.527v19.358
			c0,5.161,4.191,9.352,9.348,9.352c5.154,0,9.355-4.191,9.355-9.352v-19.351c4.964-3.189,7.995-8.636,7.995-14.534
			C118.832,127.858,111.048,120.081,101.478,120.081z M107.444,148.615l-1.217,0.651v22.042c0,2.62-2.126,4.756-4.749,4.756
			c-2.613,0-4.753-2.137-4.753-4.756v-22.049l-1.217-0.644c-4.177-2.248-6.782-6.531-6.782-11.191
			c0-7.025,5.719-12.744,12.751-12.744c7.029,0,12.748,5.719,12.748,12.744C114.226,142.08,111.635,146.368,107.444,148.615z"/>
	</g>
</g>
<g>
</g>
<g>
</g>
<g>
</g>
<g>
</g>
<g>
</g>
<g>
</g>
<g>
</g>
<g>
</g>
<g>
</g>
<g>
</g>
<g>
</g>
<g>
</g>
<g>
</g>
<g>
</g>
<g>
</g>
</svg>
