<svg width="24" height="24" viewBox="0 0 24 24" fill="none" xmlns="http://www.w3.org/2000/svg">
<mask id="path-1-outside-1_508_8520" maskUnits="userSpaceOnUse" x="4" y="3.61935" width="17" height="16" fill="black">
<rect fill="white" x="4" y="3.61935" width="17" height="16"/>
<path fill-rule="evenodd" clip-rule="evenodd" d="M12.1828 5.61935C9.43468 5.61935 7.20688 7.84716 7.20688 10.5953V15.6095C6.5159 15.766 6 16.3838 6 17.1222C6 17.2649 6.11573 17.3807 6.25849 17.3807H7.20688H17.1587H18.4075C18.5503 17.3807 18.666 17.2649 18.666 17.1222C18.666 16.2802 17.9951 15.5949 17.1587 15.5718V10.5953C17.1587 7.84716 14.9309 5.61935 12.1828 5.61935Z"/>
</mask>
<path d="M7.20688 15.6095L7.64869 17.5601L9.20688 17.2072V15.6095H7.20688ZM17.1587 15.5718H15.1587V17.5173L17.1035 17.5711L17.1587 15.5718ZM9.20688 10.5953C9.20688 8.95173 10.5392 7.61935 12.1828 7.61935V3.61935C8.33011 3.61935 5.20688 6.74259 5.20688 10.5953H9.20688ZM9.20688 15.6095V10.5953H5.20688V15.6095H9.20688ZM8 17.1222C8 17.3385 7.84906 17.5147 7.64869 17.5601L6.76507 13.6589C5.18273 14.0173 4 15.4292 4 17.1222H8ZM6.25849 15.3807C7.2203 15.3807 8 16.1604 8 17.1222H4C4 18.3695 5.01116 19.3807 6.25849 19.3807V15.3807ZM7.20688 15.3807H6.25849V19.3807H7.20688V15.3807ZM17.1587 15.3807H7.20688V19.3807H17.1587V15.3807ZM18.4075 15.3807H17.1587V19.3807H18.4075V15.3807ZM16.666 17.1222C16.666 16.1604 17.4457 15.3807 18.4075 15.3807V19.3807C19.6549 19.3807 20.666 18.3695 20.666 17.1222H16.666ZM17.1035 17.5711C16.8602 17.5643 16.666 17.3663 16.666 17.1222H20.666C20.666 15.1941 19.13 13.6256 17.214 13.5726L17.1035 17.5711ZM15.1587 10.5953V15.5718H19.1587V10.5953H15.1587ZM12.1828 7.61935C13.8264 7.61935 15.1587 8.95173 15.1587 10.5953H19.1587C19.1587 6.74259 16.0355 3.61935 12.1828 3.61935V7.61935Z" fill="#8184AB" mask="url(#path-1-outside-1_508_8520)"/>
<mask id="path-3-outside-2_508_8520" maskUnits="userSpaceOnUse" x="9" y="18" width="7" height="5" fill="black">
<rect fill="white" x="9" y="18" width="7" height="5"/>
<path fill-rule="evenodd" clip-rule="evenodd" d="M11 19C11 19.8284 11.6716 20.5 12.5 20.5C13.3284 20.5 14 19.8284 14 19"/>
</mask>
<path d="M9 19C9 20.933 10.567 22.5 12.5 22.5V18.5C12.7761 18.5 13 18.7239 13 19H9ZM12.5 22.5C14.433 22.5 16 20.933 16 19H12C12 18.7239 12.2239 18.5 12.5 18.5V22.5Z" fill="#8184AB" mask="url(#path-3-outside-2_508_8520)"/>
<path d="M11.5 3C11.5 2.72386 11.7239 2.5 12 2.5C12.2761 2.5 12.5 2.72386 12.5 3V4.5H11.5V3Z" fill="#8184AB" stroke="#8184AB"/>
</svg>
