<svg width="48" height="48" viewBox="0 0 48 48" fill="none" xmlns="http://www.w3.org/2000/svg">
<path fill-rule="evenodd" clip-rule="evenodd" d="M33 10C33 7.23857 35.2386 5 38 5C40.7614 5 43 7.23857 43 10C43 12.7614 40.7614 15 38 15C35.2386 15 33 12.7614 33 10ZM38 7C36.3432 7 35 8.34315 35 10C35 11.6568 36.3432 13 38 13C39.6568 13 41 11.6568 41 10C41 8.34315 39.6568 7 38 7Z" fill="#0041FF"/>
<path d="M39 18.9451C38.6717 18.9814 38.338 19 38 19C37.662 19 37.3283 18.9814 37 18.9451V37H11V11H29.0549C29.0186 10.6717 29 10.338 29 10C29 9.66199 29.0186 9.32833 29.0549 9H10C9.44772 9 9 9.44772 9 10V38C9 38.5523 9.44772 39 10 39H38C38.5523 39 39 38.5523 39 38V18.9451Z" fill="#0041FF"/>
<path d="M32.3221 19.6353C32.673 19.2088 32.6117 18.5786 32.1852 18.2278C31.7586 17.8769 31.1285 17.9382 30.7776 18.3647L25.3233 24.9948L21.1762 22.2937C20.7398 22.0095 20.1584 22.1077 19.8396 22.5196L16.2092 27.2105C15.8712 27.6473 15.9512 28.2753 16.388 28.6134C16.8248 28.9514 17.4529 28.8713 17.7909 28.4346L20.8571 24.4727L24.9814 27.159C25.4082 27.437 25.9758 27.3497 26.2994 26.9563L32.3221 19.6353Z" fill="#0041FF"/>
</svg>
