<?xml version="1.0" encoding="iso-8859-1"?>
<!-- Uploaded to: SVG Repo, www.svgrepo.com, Generator: SVG Repo Mixer Tools -->
<svg height="800px" width="800px" version="1.1" id="Layer_1" xmlns="http://www.w3.org/2000/svg" xmlns:xlink="http://www.w3.org/1999/xlink" 
	 viewBox="0 0 512 512" xml:space="preserve">
<g transform="translate(1 1)">
	<polygon style="fill:#E2E3E5;" points="273.286,501.857 483.571,501.857 483.571,8.143 273.286,8.143 	"/>
	<polygon style="fill:#CCCCCC;" points="245.857,501.857 456.143,501.857 456.143,8.143 245.857,8.143 	"/>
	<polygon style="fill:#FFFFFF;" points="117.857,501.857 328.143,501.857 328.143,8.143 117.857,8.143 	"/>
	<g>
		<path style="fill:#E2E3E5;" d="M337.286,273.286H35.571c-5.486,0-9.143-3.657-9.143-9.143S30.086,255,35.571,255h301.714
			c5.486,0,9.143,3.657,9.143,9.143S342.771,273.286,337.286,273.286z"/>
		<polygon style="fill:#E2E3E5;" points="145.286,501.857 428.714,501.857 428.714,8.143 145.286,8.143 		"/>
	</g>
	<g>
		<path style="fill:#B6B6B6;" d="M337.286,264.143c-2.743,0-4.571-0.914-6.4-2.743L221.171,151.686c-3.657-3.657-3.657-9.143,0-12.8
			c3.657-3.657,9.143-3.657,12.8,0L343.686,248.6c3.657,3.657,3.657,9.143,0,12.8C341.857,263.229,340.029,264.143,337.286,264.143z
			"/>
		<path style="fill:#B6B6B6;" d="M227.571,373.857c-2.743,0-4.571-0.914-6.4-2.743c-3.657-3.657-3.657-9.143,0-12.8L330.886,248.6
			c3.657-3.657,9.143-3.657,12.8,0s3.657,9.143,0,12.8L233.971,371.114C232.143,372.943,230.314,373.857,227.571,373.857z"/>
		<path style="fill:#B6B6B6;" d="M337.286,264.143H35.571c-5.486,0-9.143-3.657-9.143-9.143c0-5.486,3.657-9.143,9.143-9.143
			h301.714c5.486,0,9.143,3.657,9.143,9.143C346.429,260.486,342.771,264.143,337.286,264.143z"/>
		<path style="fill:#B6B6B6;" d="M456.143,511H117.857c-5.486,0-9.143-3.657-9.143-9.143v-192c0-5.486,3.657-9.143,9.143-9.143
			s9.143,3.657,9.143,9.143v182.857h320V17.286H127v182.857c0,5.486-3.657,9.143-9.143,9.143s-9.143-3.657-9.143-9.143v-192
			c0-5.486,3.657-9.143,9.143-9.143h338.286c5.486,0,9.143,3.657,9.143,9.143v493.714C465.286,507.343,461.629,511,456.143,511z"/>
	</g>
</g>
</svg>