<svg width="18" height="18" viewBox="0 0 18 18" fill="none" xmlns="http://www.w3.org/2000/svg">
<path fill-rule="evenodd" clip-rule="evenodd" d="M9 18C13.9706 18 18 13.9706 18 9C18 4.02944 13.9706 0 9 0C4.02944 0 0 4.02944 0 9C0 13.9706 4.02944 18 9 18ZM13.9955 4.00447C14.692 4.70089 14.9062 5.55804 14.9598 6.52233C15.0134 7.5134 15.0134 10.4866 14.9598 11.4777C14.9062 12.442 14.692 13.2723 13.9955 13.9955C13.2991 14.692 12.442 14.9063 11.4777 14.9598C10.4866 15.0134 7.51339 15.0134 6.52232 14.9598C5.55804 14.9063 4.72768 14.692 4.00446 13.9955C3.30804 13.2723 3.09375 12.442 3.04018 11.4777C2.98661 10.4866 2.98661 7.5134 3.04018 6.52233C3.09375 5.55804 3.30804 4.70089 4.00446 4.00447C4.72768 3.30804 5.55804 3.09375 6.52232 3.04018C7.51339 2.98661 10.4866 2.98661 11.4777 3.04018C12.442 3.09375 13.2991 3.30804 13.9955 4.00447ZM12.8911 5.82322C12.8911 5.42143 12.5696 5.10001 12.1679 5.10001C11.7661 5.10001 11.4446 5.42143 11.4446 5.82322C11.4446 6.22501 11.7661 6.54643 12.1679 6.54643C12.5696 6.54643 12.8911 6.22501 12.8911 5.82322ZM8.98036 5.93036C7.26607 5.93036 5.9 7.32322 5.9 9.01072C5.9 10.725 7.26607 12.0911 8.98036 12.0911C10.6679 12.0911 12.0607 10.725 12.0607 9.01072C12.0607 7.32322 10.6679 5.93036 8.98036 5.93036ZM7 8.98658C7 10.1141 7.91275 11 9.01342 11C10.1141 11 11 10.1141 11 8.98658C11 7.88591 10.1141 7 9.01342 7C7.88591 7 7 7.88591 7 8.98658Z" fill="white"/>
</svg>
