<svg width="18" height="18" viewBox="0 0 18 18" fill="none" xmlns="http://www.w3.org/2000/svg">
<path fill-rule="evenodd" clip-rule="evenodd" d="M9 18C13.9706 18 18 13.9706 18 9C18 4.02944 13.9706 0 9 0C4.02944 0 0 4.02944 0 9C0 13.9706 4.02944 18 9 18ZM4.15625 7.34375V14H6.21875V7.34375H4.15625ZM3.96875 5.21875C3.96875 5.875 4.5 6.40625 5.1875 6.40625C5.84375 6.40625 6.375 5.875 6.375 5.21875C6.375 4.5625 5.84375 4 5.1875 4C4.5 4 3.96875 4.5625 3.96875 5.21875ZM11.9062 14H14V10.3438C14 8.5625 13.5938 7.15625 11.5 7.15625C10.5 7.15625 9.8125 7.71875 9.53125 8.25H9.5V7.34375H7.53125V14H9.59375V10.7188C9.59375 9.84375 9.75 9 10.8438 9C11.9062 9 11.9062 10 11.9062 10.75V14Z" fill="white"/>
</svg>
