<?xml version="1.0" encoding="UTF-8"?>
<svg width="24px" height="24px" viewBox="0 0 24 24" version="1.1" xmlns="http://www.w3.org/2000/svg" xmlns:xlink="http://www.w3.org/1999/xlink">
    <!-- Generator: Sketch 50 (54983) - http://www.bohemiancoding.com/sketch -->
    <title>Icon-Calendar</title>
    <desc>Created with Sketch.</desc>
    <defs></defs>
    <g id="Icon-Calendar" stroke="none" stroke-width="1" fill="none" fill-rule="evenodd">
        <g transform="translate(3.000000, 2.000000)">
            <path d="M2,9 L4,9 L4,11 L2,11 L2,9 Z M5,9 L7,9 L7,11 L5,11 L5,9 Z M8,9 L10,9 L10,11 L8,11 L8,9 Z M11,9 L13,9 L13,11 L11,11 L11,9 Z M14,9 L16,9 L16,11 L14,11 L14,9 Z M2,12 L4,12 L4,14 L2,14 L2,12 Z M5,12 L7,12 L7,14 L5,14 L5,12 Z M8,12 L10,12 L10,14 L8,14 L8,12 Z M11,12 L13,12 L13,14 L11,14 L11,12 Z M14,12 L16,12 L16,14 L14,14 L14,12 Z M11,15 L13,15 L13,17 L11,17 L11,15 Z M2,15 L4,15 L4,17 L2,17 L2,15 Z M5,15 L7,15 L7,17 L5,17 L5,15 Z M8,15 L10,15 L10,17 L8,17 L8,15 Z" id="Combined-Shape" fill="#8E8E8E"></path>
            <rect id="Rectangle-6" stroke="#8E8E8E" stroke-width="2" stroke-linecap="round" stroke-linejoin="round" x="0" y="2" width="18" height="18" rx="2"></rect>
            <path d="M0,7 L17.2233522,7" id="Path-2" stroke="#8E8E8E" stroke-width="2" stroke-linecap="round" stroke-linejoin="round"></path>
            <path d="M5.05517578,0.0166015625 L5.05517578,2" id="Path-3" stroke="#8E8E8E" stroke-width="2" stroke-linecap="round" stroke-linejoin="round"></path>
            <path d="M13,0 L13,1.91914536" id="Path-3-Copy" stroke="#8E8E8E" stroke-width="2" stroke-linecap="round" stroke-linejoin="round"></path>
        </g>
    </g>
</svg>