<?xml version="1.0" encoding="UTF-8"?>
<svg width="38px" height="38px" viewBox="0 0 38 38" version="1.1" xmlns="http://www.w3.org/2000/svg" xmlns:xlink="http://www.w3.org/1999/xlink">
    <!-- Generator: Sketch 51.1 (57501) - http://www.bohemiancoding.com/sketch -->
    <title>block</title>
    <desc>Created with Sketch.</desc>
    <defs></defs>
    <g id="Desktop" stroke="none" stroke-width="1" fill="none" fill-rule="evenodd">
        <g id="seller-blocked" transform="translate(-200.000000, -408.000000)" fill="#0031F0" fill-rule="nonzero">
            <g id="Group-4" transform="translate(200.000000, 408.000000)">
                <path d="M30.796681,28.2659281 C32.803143,25.7149942 34,22.4972676 34,19 C34,10.7157288 27.2842712,4 19,4 C15.1263579,4 11.5956624,5.46832949 8.93413143,7.87877078 L30.796681,28.2659281 Z M27.9248312,31.0571947 L6.34892388,10.9373356 C4.86185316,13.2658367 4,16.0322701 4,19 C4,27.2842712 10.7157288,34 19,34 C22.3431493,34 25.4308525,32.9063054 27.9248312,31.0571947 Z M19,0 C29.4934102,-1.92760819e-15 38,8.50658975 38,19 C38,29.4934102 29.4934102,38 19,38 C8.50658975,38 1.28507213e-15,29.4934102 0,19 C-1.28507213e-15,8.50658975 8.50658975,1.92760819e-15 19,0 Z" id="block"></path>
            </g>
        </g>
    </g>
</svg>