<?xml version="1.0" encoding="UTF-8"?>
<svg width="45px" height="15px" viewBox="0 0 45 15" version="1.1" xmlns="http://www.w3.org/2000/svg" xmlns:xlink="http://www.w3.org/1999/xlink">
    <!-- Generator: Sketch 51.1 (57501) - http://www.bohemiancoding.com/sketch -->
    <title>check-1</title>
    <desc>Created with Sketch.</desc>
    <defs></defs>
    <g id="check-1" stroke="none" stroke-width="1" fill="none" fill-rule="evenodd">
        <rect id="Rectangle-8" stroke="#D4D4D4" fill="#FFFFFF" fill-rule="nonzero" x="0.5" y="0.5" width="14" height="14" rx="2"></rect>
        <rect id="Rectangle-8" stroke="#00A7DE" fill="#FFFFFF" fill-rule="nonzero" x="15.5" y="0.5" width="14" height="14" rx="2"></rect>
        <rect id="Rectangle-8" stroke="#00A7DE" fill="#00A7DE" fill-rule="nonzero" x="30.5" y="0.5" width="14" height="14" rx="2"></rect>
        <g id="Group" transform="translate(37.596194, 6.596194) rotate(-45.000000) translate(-37.596194, -6.596194) translate(33.596194, 4.096194)" fill="#FFFFFF" fill-rule="nonzero">
            <path d="M0.99987793,0 C1.5522301,-1.01465447e-16 2,0.447769903 2,1.00012207 L2,3.99987793 C2,4.5522301 1.5522301,5 0.99987793,5 C0.447525762,5 -0.000244140625,4.5522301 -0.000244140625,3.99987793 L-0.000244140625,1.00012207 C-0.000244140625,0.447769903 0.447525762,1.01465447e-16 0.99987793,0 Z" id="Rectangle"></path>
            <path d="M8,4.00012207 C8,4.55247424 7.5522301,5.00024414 6.99987793,5.00024414 L1.00012207,5.00024414 C0.447769903,5.00024414 -1.77635684e-15,4.55247424 -1.77635684e-15,4.00012207 C-1.77635684e-15,3.4477699 0.447769903,3 1.00012207,3 L6.99987793,3 C7.5522301,3 8,3.4477699 8,4.00012207 Z" id="Rectangle"></path>
        </g>
    </g>
</svg>