<?xml version="1.0" encoding="UTF-8"?>
<svg width="48px" height="48px" viewBox="0 0 48 48" version="1.1" xmlns="http://www.w3.org/2000/svg" xmlns:xlink="http://www.w3.org/1999/xlink">
    <!-- Generator: Sketch 51.1 (57501) - http://www.bohemiancoding.com/sketch -->
    <title>Icon-Stripe-Active</title>
    <desc>Created with Sketch.</desc>
    <defs></defs>
    <g id="Icon-Stripe-Active" stroke="none" stroke-width="1" fill="none" fill-rule="evenodd">
        <g id="Group" transform="translate(3.000000, 11.000000)">
            <rect id="Rectangle-14" stroke="#0041FF" stroke-width="2" stroke-linecap="round" stroke-linejoin="round" fill-rule="nonzero" x="8" y="0" width="26" height="26" rx="13"></rect>
            <path d="M19.950954,9.66512042 C19.950954,9.05608008 20.4506794,8.82183379 21.2783496,8.82183379 C22.4651975,8.82183379 23.9643737,9.18101143 25.1512215,9.82128461 L25.1512215,6.15142614 C23.8550588,5.63608431 22.5745124,5.43307087 21.2783496,5.43307087 C18.1082166,5.43307087 16,7.08841128 16,9.85251745 C16,14.1626491 21.9342392,13.4755267 21.9342392,15.3338805 C21.9342392,16.0522358 21.3095825,16.2864821 20.435063,16.2864821 C19.1389002,16.2864821 17.4835598,15.7555238 16.1717806,15.0371686 L16.1717806,18.7538763 C17.6241076,19.378533 19.092051,19.6440122 20.435063,19.6440122 C23.6832782,19.6440122 25.9164261,18.035521 25.9164261,15.240182 C25.9008097,10.5864891 19.950954,11.4141593 19.950954,9.66512042 Z" id="path5528" fill="#0041FF"></path>
            <path d="M5.57150391,22.6666667 L9.8300659,20.1115295 C10.7152832,19.5803991 11.8516108,19.7425154 12.5529854,20.5 L12.5529854,20.5 C13.1829784,21.1803924 13.1421215,22.2426697 12.4617291,22.8726626 C12.4396624,22.8930948 12.4170507,22.9129304 12.3939185,22.9321479 L7.49742984,27 L0.756689097,27 L0.756689097,17.4666667 L5.57150391,14 L7.2566891,15 L5.7566891,14.5" id="Path-21" stroke="#0041FF" stroke-width="2" fill="#FFFFFF" fill-rule="nonzero" stroke-linecap="round" stroke-linejoin="round"></path>
            <polyline id="Path-22" stroke="#0041FF" stroke-width="2" stroke-linecap="round" stroke-linejoin="round" fill-rule="nonzero" points="11 25.5 11.5 26 13 23"></polyline>
        </g>
    </g>
</svg>