<?xml version="1.0" encoding="UTF-8"?>
<svg width="48px" height="48px" viewBox="0 0 48 48" version="1.1" xmlns="http://www.w3.org/2000/svg" xmlns:xlink="http://www.w3.org/1999/xlink">
    <!-- Generator: Sketch 51.1 (57501) - http://www.bohemiancoding.com/sketch -->
    <title>Icon-Stripe</title>
    <desc>Created with Sketch.</desc>
    <defs></defs>
    <g id="Icon-Stripe" stroke="none" stroke-width="1" fill="none" fill-rule="evenodd">
        <g id="Group" transform="translate(3.000000, 11.000000)">
            <rect id="Rectangle-14" stroke="#979797" stroke-width="2" stroke-linecap="round" stroke-linejoin="round" fill-rule="nonzero" x="8" y="0" width="26" height="26" rx="13"></rect>
            <path d="M19.952378,10.2335748 C19.952378,9.62431496 20.4522835,9.38998425 21.280252,9.38998425 C22.4675276,9.38998425 23.9672441,9.74929134 25.1545197,10.3897953 L25.1545197,6.71861417 C23.8578898,6.20308661 22.5768819,6 21.280252,6 C18.1089764,6 16,7.65593701 16,10.4210394 C16,14.7327244 21.936378,14.0453543 21.936378,15.904378 C21.936378,16.6229921 21.3114961,16.8573228 20.4366614,16.8573228 C19.1400315,16.8573228 17.4840945,16.3261732 16.1718425,15.6075591 L16.1718425,19.3256063 C17.6246929,19.9504882 19.0931654,20.216063 20.4366614,20.216063 C23.6860472,20.216063 25.92,18.6069921 25.92,15.8106457 C25.904378,11.1552756 19.952378,11.9832441 19.952378,10.2335748 Z" id="path5528" fill="#979797"></path>
            <path d="M5.57150391,22.6666667 L9.8300659,20.1115295 C10.7152832,19.5803991 11.8516108,19.7425154 12.5529854,20.5 L12.5529854,20.5 C13.1829784,21.1803924 13.1421215,22.2426697 12.4617291,22.8726626 C12.4396624,22.8930948 12.4170507,22.9129304 12.3939185,22.9321479 L7.49742984,27 L0.756689097,27 L0.756689097,17.4666667 L5.57150391,14 L7.2566891,15 L5.7566891,14.5" id="Path-21" stroke="#979797" stroke-width="2" fill="#FFFFFF" fill-rule="nonzero" stroke-linecap="round" stroke-linejoin="round"></path>
            <polyline id="Path-22" stroke="#979797" stroke-width="2" stroke-linecap="round" stroke-linejoin="round" fill-rule="nonzero" points="11 25.5 11.5 26 13 23"></polyline>
        </g>
    </g>
</svg>