<?xml version="1.0" encoding="UTF-8"?>
<svg width="150px" height="100px" viewBox="0 0 150 100" version="1.1" xmlns="http://www.w3.org/2000/svg" xmlns:xlink="http://www.w3.org/1999/xlink">
    <!-- Generator: Sketch 51.1 (57501) - http://www.bohemiancoding.com/sketch -->
    <title>mastro</title>
    <desc>Created with Sketch.</desc>
    <defs></defs>
    <g id="mastro" stroke="none" stroke-width="1" fill="none" fill-rule="evenodd">
        <rect fill="#00AAEE" x="0" y="0" width="150" height="100"></rect>
        <g id="download" transform="translate(16.000000, 37.000000)" fill="#FFFFFF">
            <path d="M48.1788728,17.3758801 L40.4825196,0 L30.6461724,0 L30.6461724,24.9872747 L19.528481,0 L11.1176914,0 L0,25.9916026 L6.70012055,25.9916026 L8.98101266,20.1033525 L21.6668174,20.1033525 L24.0902652,25.9916026 L36.9186257,25.9916026 L36.9186257,6.61378464 L45.3294153,26 L51.1742013,26 L59.7275467,7.04373103 L59.7275467,25.9916026 L66,25.9916026 L66,0 L55.8768837,0 L48.1788728,17.3758801 Z M15.3943641,14.5073316 L11.5453586,14.5073316 L15.3943641,5.45998321 L15.3943641,5.74717396 L19.2433695,14.5073316 L15.3943641,14.5073316 Z" id="Shape"></path>
            <path d="M106.820701,12.5701851 L111.369782,7.66066905 L118,0 L110.090353,0 L102.982415,7.93764209 L95.8744768,0 L71,0 L71,25.8564469 L95.163683,25.8564469 L102.698097,17.3361481 L110.090353,26 L118,26 L111.369782,18.0623579 L106.820701,12.5701851 Z M91.7535258,20.5078272 L77.3954912,20.5078272 L77.3954912,15.3145827 L91.3253965,15.3145827 L91.3253965,10.4050666 L77.3954912,10.4050666 L77.3954912,5.63910361 L91.7518728,5.63910361 L98.8598108,12.5634297 L91.7535258,20.5078272 Z" id="Shape" fill-rule="nonzero"></path>
        </g>
    </g>
</svg>