<?xml version="1.0" encoding="UTF-8"?>
<svg width="150px" height="100px" viewBox="0 0 150 100" version="1.1" xmlns="http://www.w3.org/2000/svg" xmlns:xlink="http://www.w3.org/1999/xlink">
    <!-- Generator: Sketch 51.1 (57501) - http://www.bohemiancoding.com/sketch -->
    <title>pci</title>
    <desc>Created with Sketch.</desc>
    <defs></defs>
    <g id="pci" stroke="none" stroke-width="1" fill="none" fill-rule="evenodd">
        <rect fill="#0D6B71" x="0" y="0" width="150" height="100"></rect>
        <g id="PCI" transform="translate(17.000000, 12.000000)" fill-rule="nonzero">
            <polygon id="Shape" fill="#FFFFFF" points="116 47.9616077 26.2061325 76 0 5.26574685 94.2686449 0"></polygon>
            <path d="M36.7685291,33.6682832 C36.7685291,31.0242483 34.8072976,29.7022308 30.9076397,29.7022308 L29.4937286,29.7022308 L29.4937286,37.8394762 L30.7936146,37.8394762 C32.732041,37.8394762 34.2143672,37.4975752 35.2405929,36.8365664 C36.2440137,36.1527643 36.7685291,35.1042677 36.7685291,33.6682832 Z M47.8973774,33.5315228 C47.8973774,35.3322017 47.5096921,36.9049467 46.6887115,38.2725509 C45.8905359,39.6401552 44.7730901,40.7798254 43.336374,41.6915616 C41.8996579,42.6032978 40.1664766,43.2870999 38.1368301,43.742968 C36.1071836,44.1988361 33.8722919,44.4267701 31.386545,44.4267701 L29.5621437,44.4267701 L29.5621437,53.5441319 L18,53.5441319 L18,23.1377304 L31.5917902,23.1377304 C36.677309,23.1377304 40.668187,24.0038797 43.5644242,25.7133851 C46.4606613,27.4456838 47.8973774,30.0441319 47.8973774,33.5315228 Z M76.5632839,53.4985451 C74.7844926,53.8404462 72.7548461,54 70.4971494,54 C67.281642,54 64.4310148,53.6353055 61.8996579,52.9059166 C59.391106,52.1765276 57.2474344,51.128031 55.5142531,49.7832202 C53.7582668,48.4384093 52.4355758,46.7972842 51.5233751,44.8598448 C50.6111745,42.9224054 50.1550741,40.757032 50.1550741,38.3865179 C50.1550741,36.0387973 50.6339795,33.8962173 51.6145952,31.9587779 C52.5952109,30.0213385 53.963512,28.35742 55.7194983,26.9898157 C57.4754846,25.6222114 59.5735462,24.5509214 62.036488,23.7987391 C64.4766249,23.0465567 67.1676169,22.6818623 70.0866591,22.6818623 C72.3443558,22.6818623 74.4424173,22.7502425 76.2668187,23.1377304 C78.1140251,23.5480116 78.1368301,23.5935984 79.6191562,24.1178468 L79.5963512,32.2778855 C78.4561003,31.6396702 77.1562144,31.0926285 75.7423033,30.6595538 C74.3283922,30.2264791 72.8004561,30.0213385 71.1584949,30.0213385 C68.5359179,30.0213385 66.4150513,30.7507274 64.7730901,32.1867119 C63.1311288,33.6226964 62.3101482,35.6741028 62.3101482,38.3637245 C62.3101482,39.7541222 62.5610034,40.9621726 63.0855188,41.9878758 C63.6100342,43.0363725 64.2941847,43.9025218 65.1607754,44.586324 C66.027366,45.2701261 67.0535918,45.7943744 68.2166477,46.1362755 C69.3797035,46.5009699 70.6339795,46.6605238 72.0022805,46.6605238 C73.3933865,46.6605238 74.7388826,46.5237633 76.0843786,46.2274491 C77.4070696,45.9311348 78.8209806,45.4980601 80.3261117,44.9510184 L80.3489168,52.5640155 C78.5017104,53.0882638 78.3420753,53.156644 76.5632839,53.4985451 Z M85.0923603,23.1377304 L96.7457241,23.1377304 L96.7457241,53.5213385 L85.0923603,53.5213385 L85.0923603,23.1377304 Z M98,13.6328807 C98,15.6842871 97.3158495,17.2798254 95.9703535,18.442289 C94.6248575,19.6047527 92.9372862,20.1973812 90.9304447,20.1973812 C88.9464082,20.1973812 87.2588369,19.6275461 85.8905359,18.442289 C84.5222349,17.2798254 83.8608894,15.6614937 83.8608894,13.6328807 C83.8608894,11.5358875 84.5450399,9.91755577 85.8905359,8.75509214 C87.2360319,7.59262852 88.9236032,7 90.9304447,7 C92.9144812,7 94.6020525,7.59262852 95.9703535,8.75509214 C97.3158495,9.91755577 98,11.5358875 98,13.6328807 Z" id="Shape" fill="#0D6B71"></path>
        </g>
    </g>
</svg>