<?xml version="1.0" encoding="UTF-8"?>
<svg width="150px" height="100px" viewBox="0 0 150 100" version="1.1" xmlns="http://www.w3.org/2000/svg" xmlns:xlink="http://www.w3.org/1999/xlink">
    <!-- Generator: Sketch 51.1 (57501) - http://www.bohemiancoding.com/sketch -->
    <title>visa</title>
    <desc>Created with Sketch.</desc>
    <defs></defs>
    <g id="visa" stroke="none" stroke-width="1" fill="none" fill-rule="evenodd">
        <path d="M141.428333,99.9991661 L8.57166667,99.9991661 C3.90384652,100.064057 0.0667249446,96.3336882 0,91.6659717 L0,8.33402827 C0.0667249446,3.66631182 3.90384652,-0.0640572114 8.57166667,0.000833922891 L141.428333,0.000833922891 C146.096153,-0.0640572114 149.933275,3.66631182 150,8.33402827 L150,91.6659717 C149.933275,96.3336882 146.096153,100.064057 141.428333,99.9991661 Z" id="Shape" fill="#EEEEEE" fill-rule="nonzero"></path>
        <polygon id="Shape" fill="#115599" fill-rule="nonzero" points="59.7972973 62.6262626 64.4753128 36.3636364 71.9594595 36.3636364 67.2780528 62.6262626"></polygon>
        <path d="M93.2398766,37.4730907 C91.1008126,36.7238149 88.847918,36.3486289 86.5806506,36.3640958 C79.2396787,36.3640958 74.0685102,39.9460991 74.0247438,45.0884129 C73.9826608,48.8834909 77.7162713,51.0008156 80.5341541,52.2641638 C83.4261031,53.5593894 84.4057972,54.384844 84.383914,55.540816 C84.3653974,57.3108458 82.0743947,58.1195228 79.9382578,58.1195228 C77.5323708,58.1892533 75.1418388,57.715482 72.9457337,56.7336986 L71.9879229,56.3142603 L70.9459459,62.2266629 C73.6004897,63.1749477 76.4013092,63.6519419 79.2211621,63.6359757 C87.0300978,63.6359757 92.1002669,60.0942385 92.1591832,54.6130184 C92.1877997,51.6081623 90.2082118,49.3213845 85.9207879,47.4372676 C83.3234204,46.2158632 81.7326801,45.4004751 81.7495134,44.1622931 C81.7495134,43.0650425 83.0961718,41.8906151 86.0049541,41.8906151 C87.9058889,41.8479057 89.7957288,42.1903761 91.5599202,42.8972671 L92.2332494,43.2026182 L93.2432432,37.478124" id="Shape" fill="#115599" fill-rule="nonzero"></path>
        <path d="M112.636942,36.3954066 L106.967072,36.3954066 C105.345777,36.1808748 103.778789,37.0689211 103.125655,38.5724209 L92.2297297,62.6262626 L99.9341714,62.6262626 C99.9341714,62.6262626 101.194143,59.3924128 101.478384,58.6822994 L110.873315,58.6939679 C111.092729,59.6124479 111.765933,62.6262626 111.765933,62.6262626 L118.581081,62.6262626 L112.636942,36.3954066 Z M103.589418,53.3097747 C104.196132,51.7978665 106.51162,45.9752699 106.51162,45.9752699 C106.468402,46.0452811 107.113348,44.4566941 107.484026,43.4748706 L107.982695,45.7368985 C107.982695,45.7368985 109.38728,52.0012323 109.681495,53.3147755 L103.589418,53.3097747 Z" id="Shape" fill="#115599" fill-rule="nonzero"></path>
        <path d="M53.9116409,36.3636364 L46.5981212,54.2995772 L45.819547,50.6556086 C43.8893441,45.8339939 40.1976774,41.9013036 35.472973,39.633522 L42.1602483,62.6262626 L50.0644689,62.6179126 L61.8243243,36.3636364 L53.9116409,36.3636364" id="Shape" fill="#115599" fill-rule="nonzero"></path>
        <path d="M39.569564,36.3863134 L27.4601476,36.3863134 L27.3648649,36.9254734 C36.7859466,39.0689229 43.0184591,44.2659636 45.6081081,50.5050505 L42.9742207,38.5775784 C42.5521144,37.1343437 41.1078306,36.204326 39.5712654,36.3863134" id="Shape" fill="#FFAA11" fill-rule="nonzero"></path>
        <path d="M0,21.2121212 L0,0 L8.45173466,1.18585045e-11 C8.49164964,-6.68187643e-08 8.53162759,0.000282342801 8.57166667,0.000849065312 L141.428333,0.000849065312 C141.468372,0.000282342801 141.50835,-6.6818767e-08 141.548265,2.37214341e-11 L150,0 L150,21.2121212 L0,21.2121212 Z" id="Combined-Shape" fill="#115599" fill-rule="nonzero"></path>
        <path d="M0,100.212121 L0,79 L8.45173466,79 C8.49164964,78.9999999 8.53162759,79.0002823 8.57166667,79.0008491 L141.428333,79.0008491 C141.468372,79.0002823 141.50835,78.9999999 141.548265,79 L150,79 L150,100.212121 L0,100.212121 Z" id="Combined-Shape-Copy" fill="#FFAA11" fill-rule="nonzero"></path>
    </g>
</svg>