<?xml version="1.0" encoding="UTF-8"?>
<svg width="216px" height="469px" viewBox="0 0 216 469" version="1.1" xmlns="http://www.w3.org/2000/svg" xmlns:xlink="http://www.w3.org/1999/xlink">
    <!-- Generator: Sketch 51.1 (57501) - http://www.bohemiancoding.com/sketch -->
    <title>feature-bg-2 copy</title>
    <desc>Created with Sketch.</desc>
    <defs></defs>
    <g id="Desktop" stroke="none" stroke-width="1" fill="none" fill-rule="evenodd">
        <g id="setup" transform="translate(0.000000, -321.000000)">
            <g id="installation" transform="translate(-312.000000, 321.000000)">
                <g id="feature-bg-2-copy">
                    <path d="M410.51882,469 L351,350 L410.51882,350 L410.51882,469 Z M467.609149,350.309935 L527,350.309935 L467.609149,468.904085 L467.609149,350.309935 Z" id="Combined-Shape" fill="#0041FF"></path>
                    <path d="M483.511111,261.037313 L396.488889,261.037313 L417.511111,219 L462.488889,219 L483.511111,261.037313 Z M506,306.007463 L528,350 L352,350 L374,306.007463 L506,306.007463 Z" id="Combined-Shape" fill="#000DBB"></path>
                    <path d="M294.962601,235.592166 L352,350 L294.962601,350 L294.962601,235.592166 Z M235.326798,350 L176,350 L235.326798,231 L235.326798,350 Z" id="Combined-Shape" fill="#000DBB"></path>
                    <polygon id="Combined-Shape" fill="#000DBB" points="411 469 293 469 322.012679 411 381.987321 411"></polygon>
                    <path d="M352.037313,174 L310,174 L310,84.0674157 L352.037313,0 L352.037313,174 Z M397.007463,174 L397.007463,86.0224719 L441,174 L397.007463,174 Z" id="Combined-Shape" fill="#000DBB"></path>
                    <path d="M323.155556,292.311111 L380.844444,292.311111 L352,350 L323.155556,292.311111 Z M293.337654,232.675308 L264,174 L440,174 L410.662346,232.675308 L293.337654,232.675308 Z" id="Combined-Shape" fill="#0041FF"></path>
                    <path d="M220.488889,88.9626866 L307.511111,88.9626866 L286.488889,131 L241.511111,131 L220.488889,88.9626866 Z M198,43.9925373 L176,0 L352,0 L330,43.9925373 L198,43.9925373 Z" id="Combined-Shape" fill="#0041FF"></path>
                    <path d="M221.488889,438.962687 L308.511111,438.962687 L287.488889,481 L242.511111,481 L221.488889,438.962687 Z M199,393.992537 L177,350 L353,350 L331,393.992537 L199,393.992537 Z" id="Combined-Shape" fill="#0041FF"></path>
                </g>
            </g>
        </g>
    </g>
</svg>