<?xml version="1.0" encoding="UTF-8"?>
<svg width="147px" height="60px" viewBox="0 0 147 60" version="1.1" xmlns="http://www.w3.org/2000/svg" xmlns:xlink="http://www.w3.org/1999/xlink">
    <!-- Generator: Sketch 51.1 (57501) - http://www.bohemiancoding.com/sketch -->
    <title>Logo+Text</title>
    <desc>Created with Sketch.</desc>
    <defs></defs>
    <g id="Desktop" stroke="none" stroke-width="1" fill="none" fill-rule="evenodd">
        <g id="setup" transform="translate(-579.000000, -48.000000)" fill-rule="nonzero">
            <g id="Logo+Text" transform="translate(579.000000, 48.000000)">
                <g id="Logo">
                    <rect id="Rectangle" fill="#0041FF" x="0" y="16" width="44" height="44"></rect>
                    <rect id="Rectangle" fill="#000311" x="0" y="54" width="44" height="6"></rect>
                    <path d="M36,15.2214765 L36,25.557047 C36,26.9062527 34.9580948,28 33.6728395,28 C32.3875843,28 31.345679,26.9062527 31.345679,25.557047 L31.345679,15.2214765 C31.345679,9.51329856 26.9376184,4.88590604 21.5,4.88590604 C16.0623816,4.88590604 11.654321,9.51329856 11.654321,15.2214765 L11.654321,25.557047 C11.654321,26.9062527 10.6124157,28 9.32716049,28 C8.04190524,28 7,26.9062527 7,25.557047 L7,15.2214765 C7,6.81488716 13.4918711,0 21.5,0 C29.5081289,0 36,6.81488716 36,15.2214765 Z" id="Combined-Shape" fill="#000311"></path>
                </g>
                <path d="M71.9723308,32.3208802 C72.8937067,32.8623364 73.6067609,33.627426 74.1115147,34.616172 C74.6162684,35.6049179 74.8686415,36.7427434 74.8686415,38.0296827 C74.8686415,39.3009276 74.6202744,40.4191354 74.1235325,41.3843398 C73.6267907,42.3495442 72.9257543,43.0989397 72.0204023,43.6325486 C71.1150503,44.1661575 70.0614928,44.432958 68.8596981,44.432958 C67.962358,44.432958 67.1651795,44.264246 66.4681386,43.9268168 C65.7710976,43.5893876 65.1822271,43.0989456 64.7015092,42.4554759 L64.7015092,44.2917093 L61,44.2917093 L61,26.8239509 L64.7015092,26.8239509 L64.7015092,33.4861822 C65.1662031,32.8427126 65.7470618,32.3522705 66.4441028,32.0148414 C67.1411437,31.6774122 67.9222986,31.5087001 68.7875907,31.5087001 C69.9893854,31.5087001 71.0509548,31.7794241 71.9723308,32.3208802 Z M70.2297372,40.4426817 C70.8226226,39.7913649 71.1190608,38.9478046 71.1190608,37.9119754 C71.1190608,36.8918407 70.8226226,36.0561274 70.2297372,35.4048106 C69.6368517,34.7534939 68.8677147,34.4278403 67.9223029,34.4278403 C66.9768911,34.4278403 66.2037481,34.7534939 65.6028507,35.4048106 C65.0019533,36.0561274 64.7015092,36.8918407 64.7015092,37.9119754 C64.7015092,38.963499 65.0019533,39.8109828 65.6028507,40.4544524 C66.2037481,41.097922 66.9768911,41.419652 67.9223029,41.419652 C68.8677147,41.419652 69.6368517,41.0939985 70.2297372,40.4426817 Z M84.4348797,44.2917093 L84.4348797,42.8085977 C84.0022336,43.3422067 83.4414045,43.7502545 82.7523756,44.0327533 C82.0633467,44.3152521 81.270174,44.4564995 80.372834,44.4564995 C79.0108,44.4564995 77.929201,44.0916106 77.1280045,43.3618219 C76.326808,42.6320332 75.9262158,41.6786139 75.9262158,40.5015353 C75.9262158,39.3087624 76.3548495,38.3788843 77.2121297,37.7118731 C78.0694099,37.0448619 79.2832044,36.7035143 80.8535494,36.6878199 L84.410844,36.6878199 L84.410844,36.4524053 C84.410844,35.777547 84.1825064,35.2557166 83.7258244,34.8868987 C83.2691424,34.5180807 82.6001534,34.3336745 81.7188373,34.3336745 C80.5170426,34.3336745 79.2351475,34.7024869 77.8731135,35.4401228 L76.7193963,32.9447288 C77.7449278,32.4425085 78.7063491,32.0736962 79.6036892,31.8382805 C80.5010293,31.6028647 81.4864861,31.4851586 82.5600894,31.4851586 C84.2906737,31.4851586 85.6326577,31.8853593 86.5860815,32.6857728 C87.5395054,33.4861862 88.0242219,34.6004705 88.0402458,36.0286592 L88.0642816,44.2917093 L84.4348797,44.2917093 Z M83.4013415,41.3254862 C83.962179,40.9645155 84.2986764,40.5093852 84.410844,39.9600819 L84.410844,38.8300921 L81.5025153,38.8300921 C80.7814385,38.8300921 80.2486508,38.9438746 79.9041364,39.1714432 C79.5596219,39.3990118 79.3873672,39.7639006 79.3873672,40.2661208 C79.3873672,40.7526466 79.5676337,41.1410767 79.9281721,41.4314227 C80.2887106,41.7217688 80.781439,41.8669396 81.4063722,41.8669396 C82.1755208,41.8669396 82.8405039,41.6864569 83.4013415,41.3254862 Z M102.990497,31.6264074 L102.990497,43.1146366 C102.990497,44.3074096 102.702071,45.3471467 102.125209,46.2338792 C101.548349,47.1206117 100.739152,47.8033071 99.6975964,48.2819857 C98.656041,48.7606642 97.4542643,49 96.0922303,49 C95.0346509,49 94.0291645,48.8509056 93.0757407,48.5527124 C92.1223168,48.2545192 91.2530317,47.8464713 90.4678592,47.3285568 L91.8378983,44.7860798 C93.055717,45.6335764 94.393695,46.0573183 95.8518725,46.0573183 C96.9094519,46.0573183 97.7506956,45.8022885 98.3756288,45.2922211 C99.000562,44.7821537 99.313024,44.0955349 99.313024,43.2323439 L99.313024,41.7963153 C98.8803779,42.3927017 98.3355725,42.8478319 97.6785914,43.1617195 C97.0216102,43.4756072 96.2684968,43.6325486 95.4192286,43.6325486 C94.3135775,43.6325486 93.3321266,43.3775188 92.4748463,42.8674514 C91.6175661,42.357384 90.952583,41.6393768 90.4798771,40.7134084 C90.0071711,39.7874399 89.7708218,38.7202381 89.7708218,37.5117707 C89.7708218,36.3189978 90.0071711,35.2714136 90.4798771,34.3689867 C90.952583,33.4665598 91.6175661,32.7642468 92.4748463,32.2620266 C93.3321266,31.7598064 94.3135775,31.5087001 95.4192286,31.5087001 C96.252473,31.5087001 96.9975745,31.6695651 97.6545556,31.9912999 C98.3115367,32.3130347 98.864354,32.7642413 99.313024,33.3449335 L99.313024,31.6264074 L102.990497,31.6264074 Z M98.4717719,39.9718526 C99.0326094,39.3676189 99.313024,38.5789882 99.313024,37.6059365 C99.313024,36.6328849 99.0326094,35.8403306 98.4717719,35.2282497 C97.9109344,34.6161689 97.1818565,34.3101331 96.2845165,34.3101331 C95.3871764,34.3101331 94.6580986,34.6161689 94.0972611,35.2282497 C93.5364235,35.8403306 93.2479971,36.6328849 93.2319732,37.6059365 C93.2479971,38.5789882 93.5324176,39.3676189 94.0852432,39.9718526 C94.6380688,40.5760863 95.3711525,40.8781986 96.2845165,40.8781986 C97.1818565,40.8781986 97.9109344,40.5760863 98.4717719,39.9718526 Z M105.99497,31.6264074 L109.696479,31.6264074 L109.696479,44.2917093 L105.99497,44.2917093 L105.99497,31.6264074 Z M109.275853,26.5649949 C109.652414,26.94166 109.840694,27.4281786 109.840694,28.024565 C109.840694,28.6209514 109.652414,29.10747 109.275853,29.4841351 C108.89929,29.8608002 108.414574,30.04913 107.821689,30.04913 C107.244827,30.04913 106.768121,29.8568767 106.39156,29.4723644 C106.014998,29.087852 105.826719,28.6052571 105.826719,28.024565 C105.826719,27.4281786 106.014998,26.94166 106.39156,26.5649949 C106.768121,26.1883298 107.244827,26 107.821689,26 C108.414574,26 108.89929,26.1883298 109.275853,26.5649949 Z M118.926216,34.4396111 C118.237187,34.2277369 117.620275,34.1218014 117.075461,34.1218014 C116.626792,34.1218014 116.266258,34.2002722 115.993852,34.357216 C115.721444,34.5141598 115.585244,34.749572 115.585244,35.0634596 C115.585244,35.408736 115.769516,35.6755364 116.138066,35.863869 C116.506617,36.0522016 117.107505,36.2640725 117.940749,36.4994882 C118.854113,36.7662927 119.607227,37.0291697 120.200112,37.2881269 C120.792998,37.5470842 121.305756,37.9315908 121.738402,38.4416581 C122.171048,38.9517255 122.387368,39.6226503 122.387368,40.4544524 C122.387368,41.7100029 121.894639,42.6869634 120.909167,43.3853634 C119.923696,44.0837633 118.66183,44.432958 117.123533,44.432958 C116.065954,44.432958 115.04845,44.2799402 114.07099,43.9738997 C113.09353,43.6678592 112.244274,43.2323468 111.523198,42.667349 L112.724986,40.2190379 C113.381967,40.7212581 114.115051,41.1096882 114.92426,41.3843398 C115.733468,41.6589915 116.498599,41.7963153 117.219676,41.7963153 C117.716417,41.7963153 118.113004,41.7139209 118.409447,41.54913 C118.705889,41.384339 118.854109,41.1371562 118.854109,40.8075742 C118.854109,40.4466035 118.665831,40.1641088 118.289268,39.9600819 C117.912706,39.756055 117.307811,39.5363369 116.474567,39.3009212 C115.59325,39.0498111 114.860167,38.7987048 114.275294,38.5475947 C113.69042,38.2964846 113.18968,37.9159016 112.773058,37.4058342 C112.356436,36.8957668 112.148128,36.2326892 112.148128,35.4165814 C112.148128,34.1610309 112.628838,33.1879939 113.590274,32.4974411 C114.55171,31.8068884 115.76951,31.4616172 117.243712,31.4616172 C118.125028,31.4616172 119.00633,31.5832469 119.887647,31.8265097 C120.768963,32.0697726 121.570147,32.4189674 122.291224,32.8741044 L121.017328,35.345957 C120.312275,34.9535975 119.615245,34.6514852 118.926216,34.4396111 Z M132.482393,43.5854657 C132.001675,43.8679645 131.468887,44.083759 130.884014,44.2328557 C130.29914,44.3819523 129.71027,44.4564995 129.117384,44.4564995 C127.91559,44.4564995 126.938145,44.1190753 126.18502,43.444217 C125.431895,42.7693587 125.055338,41.8041687 125.055338,40.5486182 L125.055338,34.6867963 L123.252655,34.6867963 L123.252655,32.1914023 L125.055338,32.1914023 L125.055338,28.7072671 L128.732812,28.7072671 L128.732812,32.1914023 L132.242035,32.1914023 L132.242035,34.7103378 L128.732812,34.7103378 L128.732812,39.9365404 C128.732812,40.9095921 129.125392,41.3961105 129.910565,41.3961105 C130.455379,41.3961105 131.056267,41.2391691 131.713248,40.9252815 L132.482393,43.5854657 Z M143.695081,32.3091095 C144.744648,32.8427184 145.557851,33.5960374 146.134712,34.569089 C146.711574,35.5421407 147,36.6721191 147,37.9590583 C147,39.2303032 146.711574,40.3563581 146.134712,41.3372569 C145.557851,42.3181557 144.744648,43.0793217 143.695081,43.6207779 C142.645514,44.1622341 141.439731,44.432958 140.077697,44.432958 C138.699639,44.432958 137.485845,44.1622341 136.436277,43.6207779 C135.38671,43.0793217 134.573508,42.3181557 133.996646,41.3372569 C133.419785,40.3563581 133.131358,39.2303032 133.131358,37.9590583 C133.131358,36.6721191 133.419785,35.5421407 133.996646,34.569089 C134.573508,33.5960374 135.38671,32.8427184 136.436277,32.3091095 C137.485845,31.7755006 138.699639,31.5087001 140.077697,31.5087001 C141.439731,31.5087001 142.645514,31.7755006 143.695081,32.3091095 Z M137.734209,35.4872057 C137.133312,36.1306754 136.832868,36.9703121 136.832868,38.0061412 C136.832868,39.0419704 137.133312,39.8816071 137.734209,40.5250768 C138.335107,41.1685464 139.116261,41.4902764 140.077697,41.4902764 C141.023109,41.4902764 141.796252,41.1685464 142.397149,40.5250768 C142.998047,39.8816071 143.298491,39.0419704 143.298491,38.0061412 C143.298491,36.9703121 142.998047,36.1306754 142.397149,35.4872057 C141.796252,34.8437361 141.023109,34.5220061 140.077697,34.5220061 C139.116261,34.5220061 138.335107,34.8437361 137.734209,35.4872057 Z" id="bagisto" fill="#0041FF"></path>
            </g>
        </g>
    </g>
</svg>