<?xml version="1.0" encoding="UTF-8"?>
<svg width="235px" height="348px" viewBox="0 0 235 348" version="1.1" xmlns="http://www.w3.org/2000/svg" xmlns:xlink="http://www.w3.org/1999/xlink">
    <!-- Generator: Sketch 51.1 (57501) - http://www.bohemiancoding.com/sketch -->
    <title>feature-bg-2</title>
    <desc>Created with Sketch.</desc>
    <defs></defs>
    <g id="Desktop" stroke="none" stroke-width="1" fill="none" fill-rule="evenodd">
        <g id="setup" transform="translate(-1069.000000, -442.000000)">
            <g id="installation" transform="translate(-312.000000, 321.000000)">
                <g id="feature-bg-2" transform="translate(1381.000000, 121.000000)">
                    <polygon id="Combined-Shape" fill="#0041FF" points="131.511111 260 88 173 264 173 220.488889 260"></polygon>
                    <path d="M206.962601,59.592166 L264,174 L206.962601,174 L206.962601,59.592166 Z M147.326798,174 L88,174 L147.326798,55 L147.326798,174 Z" id="Combined-Shape" fill="#000DBB"></path>
                    <path d="M131.511111,260.037313 L44.4888889,260.037313 L65.5111111,218 L110.488889,218 L131.511111,260.037313 Z M154,305.007463 L176,349 L0,349 L22,305.007463 L154,305.007463 Z" id="Combined-Shape" fill="#000DBB"></path>
                    <path d="M294.962601,235.592166 L352,350 L294.962601,350 L294.962601,235.592166 Z M235.326798,350 L176,350 L235.326798,231 L235.326798,350 Z" id="Combined-Shape" fill="#000DBB"></path>
                    <path d="M220.488889,88.9626866 L307.511111,88.9626866 L286.488889,131 L241.511111,131 L220.488889,88.9626866 Z M198,43.9925373 L176,0 L352,0 L330,43.9925373 L198,43.9925373 Z" id="Combined-Shape" fill="#0041FF"></path>
                </g>
            </g>
        </g>
    </g>
</svg>