<svg width="180" height="180" viewBox="0 0 180 180" fill="none" xmlns="http://www.w3.org/2000/svg">
<path d="M110.612 127.639C116.557 117.68 122.862 106.315 127.69 95.6124C132.462 85.0351 136 74.6664 136 66.8595C136 39.5369 115.388 17 89.5 17C63.6125 17 43 39.5369 43 66.8595C43 74.6664 46.5381 85.0351 51.3098 95.6124C56.1379 106.315 62.4429 117.68 68.3875 127.639C78.1003 143.91 100.9 143.91 110.612 127.639Z" fill="white" stroke="#6B7280" stroke-width="6" stroke-linejoin="round"/>
<path d="M90.5 87C102.296 87 112 77.6749 112 66C112 54.3251 102.296 45 90.5 45C78.7039 45 69 54.3251 69 66C69 77.6749 78.7039 87 90.5 87Z" fill="#E5E7EB" stroke="#6B7280" stroke-width="6"/>
<path d="M68 161H112" stroke="#6B7280" stroke-width="6" stroke-linecap="round"/>
</svg>
