<svg width="180" height="180" viewBox="0 0 180 180" fill="none" xmlns="http://www.w3.org/2000/svg">
<path d="M39.5377 51.9224H117.435C134.952 51.9224 143.71 51.9224 149.762 55.9642C153.317 58.3387 156.174 61.6199 158.036 65.4684C161.206 72.0192 160 80.694 157.588 98.0436V98.0436C155.711 111.544 154.772 118.294 151.201 123.174C149.088 126.061 146.356 128.44 143.206 130.135C137.881 133 131.066 133 117.435 133H91.7531C75.6683 133 67.6259 133 61.5845 128.978C60.2028 128.059 58.9203 126.998 57.7575 125.814C52.673 120.635 51.163 112.735 48.1428 96.9367L39.5377 51.9224Z" fill="white"/>
<path d="M39.5377 51.9224H117.435C134.952 51.9224 143.71 51.9224 149.762 55.9642C153.317 58.3387 156.174 61.6199 158.036 65.4684C161.206 72.0192 160 80.694 157.588 98.0436V98.0436C155.711 111.544 154.772 118.294 151.201 123.174C149.088 126.061 146.356 128.44 143.206 130.135C137.881 133 131.066 133 117.435 133H91.7531C75.6683 133 67.6259 133 61.5845 128.978C60.2028 128.059 58.9203 126.998 57.7575 125.814C52.673 120.635 51.163 112.735 48.1428 96.9367L39.5377 51.9224ZM39.5377 51.9224L37.4599 40.8172C35.5272 30.4872 26.5092 23 16 23V23" stroke="#6B7280" stroke-width="6" stroke-linecap="round" stroke-linejoin="round"/>
<circle cx="73.5" cy="140.5" r="14.5" fill="#E5E7EB" stroke="#6B7280" stroke-width="6"/>
<circle cx="133.5" cy="140.5" r="14.5" fill="#E5E7EB" stroke="#6B7280" stroke-width="6"/>
<circle cx="102" cy="93" r="25" fill="#E5E7EB" stroke="#6B7280" stroke-width="6"/>
<path d="M116 85L95.9665 101.883C95.7681 102.05 95.4762 102.037 95.2931 101.853L88 94.5245" stroke="#6B7280" stroke-width="6" stroke-linecap="round"/>
</svg>
