<svg width="130" height="36" viewBox="0 0 130 36" fill="none" xmlns="http://www.w3.org/2000/svg">
<rect x="5" y="10" width="25" height="24" fill="#2563EB"/>
<path fill-rule="evenodd" clip-rule="evenodd" d="M21.4043 4.95173C19.5325 3.07993 15.2678 3.07993 13.396 4.95173C12.2127 6.13505 11.5479 7.73997 11.5479 9.41344V14.9158C11.5479 15.6194 10.9775 16.1897 10.2739 16.1897C9.57036 16.1897 9 15.6194 9 14.9158V9.41344C9 7.06424 9.93322 4.81125 11.5944 3.15011C14.4612 0.283297 20.3391 0.283297 23.206 3.15011C24.8671 4.81125 26 7.06424 26 9.41344V14.9158C26 15.6194 25.4296 16.1897 24.7261 16.1897C24.0225 16.1897 23.4521 15.6194 23.4521 14.9158V9.41344C23.4521 7.73997 22.5877 6.13505 21.4043 4.95173Z" fill="white"/>
<rect x="5" y="31" width="25" height="4.24646" fill="white"/>
<path d="M45.36 14.896C46.56 14.896 47.648 15.176 48.624 15.736C49.616 16.28 50.392 17.056 50.952 18.064C51.512 19.056 51.792 20.216 51.792 21.544C51.792 22.872 51.512 24.04 50.952 25.048C50.392 26.04 49.616 26.816 48.624 27.376C47.648 27.92 46.56 28.192 45.36 28.192C43.584 28.192 42.232 27.632 41.304 26.512V28H37.728V10.192H41.472V16.456C42.416 15.416 43.712 14.896 45.36 14.896ZM44.712 25.12C45.672 25.12 46.456 24.8 47.064 24.16C47.688 23.504 48 22.632 48 21.544C48 20.456 47.688 19.592 47.064 18.952C46.456 18.296 45.672 17.968 44.712 17.968C43.752 17.968 42.96 18.296 42.336 18.952C41.728 19.592 41.424 20.456 41.424 21.544C41.424 22.632 41.728 23.504 42.336 24.16C42.96 24.8 43.752 25.12 44.712 25.12ZM59.2954 14.896C61.2954 14.896 62.8314 15.376 63.9034 16.336C64.9754 17.28 65.5114 18.712 65.5114 20.632V28H62.0074V26.392C61.3034 27.592 59.9914 28.192 58.0714 28.192C57.0794 28.192 56.2154 28.024 55.4794 27.688C54.7594 27.352 54.2074 26.888 53.8234 26.296C53.4394 25.704 53.2474 25.032 53.2474 24.28C53.2474 23.08 53.6954 22.136 54.5914 21.448C55.5034 20.76 56.9034 20.416 58.7914 20.416H61.7674C61.7674 19.6 61.5194 18.976 61.0234 18.544C60.5274 18.096 59.7834 17.872 58.7914 17.872C58.1034 17.872 57.4234 17.984 56.7514 18.208C56.0954 18.416 55.5354 18.704 55.0714 19.072L53.7274 16.456C54.4314 15.96 55.2714 15.576 56.2474 15.304C57.2394 15.032 58.2554 14.896 59.2954 14.896ZM59.0074 25.672C59.6474 25.672 60.2154 25.528 60.7114 25.24C61.2074 24.936 61.5594 24.496 61.7674 23.92V22.6H59.1994C57.6634 22.6 56.8954 23.104 56.8954 24.112C56.8954 24.592 57.0794 24.976 57.4474 25.264C57.8314 25.536 58.3514 25.672 59.0074 25.672ZM82.3605 15.088V25.84C82.3605 28.208 81.7445 29.968 80.5125 31.12C79.2805 32.272 77.4805 32.848 75.1125 32.848C73.8645 32.848 72.6805 32.696 71.5605 32.392C70.4405 32.088 69.5125 31.648 68.7765 31.072L70.2645 28.384C70.8085 28.832 71.4965 29.184 72.3285 29.44C73.1605 29.712 73.9925 29.848 74.8245 29.848C76.1205 29.848 77.0725 29.552 77.6805 28.96C78.3045 28.384 78.6165 27.504 78.6165 26.32V25.768C77.6405 26.84 76.2805 27.376 74.5365 27.376C73.3525 27.376 72.2645 27.12 71.2725 26.608C70.2965 26.08 69.5205 25.344 68.9445 24.4C68.3685 23.456 68.0805 22.368 68.0805 21.136C68.0805 19.904 68.3685 18.816 68.9445 17.872C69.5205 16.928 70.2965 16.2 71.2725 15.688C72.2645 15.16 73.3525 14.896 74.5365 14.896C76.4085 14.896 77.8325 15.512 78.8085 16.744V15.088H82.3605ZM75.2805 24.304C76.2725 24.304 77.0805 24.016 77.7045 23.44C78.3445 22.848 78.6645 22.08 78.6645 21.136C78.6645 20.192 78.3445 19.432 77.7045 18.856C77.0805 18.264 76.2725 17.968 75.2805 17.968C74.2885 17.968 73.4725 18.264 72.8325 18.856C72.1925 19.432 71.8725 20.192 71.8725 21.136C71.8725 22.08 72.1925 22.848 72.8325 23.44C73.4725 24.016 74.2885 24.304 75.2805 24.304ZM85.8452 15.088H89.5892V28H85.8452V15.088ZM87.7172 13.288C87.0292 13.288 86.4692 13.088 86.0372 12.688C85.6052 12.288 85.3892 11.792 85.3892 11.2C85.3892 10.608 85.6052 10.112 86.0372 9.712C86.4692 9.312 87.0292 9.112 87.7172 9.112C88.4052 9.112 88.9652 9.304 89.3972 9.688C89.8292 10.072 90.0452 10.552 90.0452 11.128C90.0452 11.752 89.8292 12.272 89.3972 12.688C88.9652 13.088 88.4052 13.288 87.7172 13.288ZM97.4079 28.192C96.3359 28.192 95.2879 28.064 94.2639 27.808C93.2399 27.536 92.4239 27.2 91.8159 26.8L93.0639 24.112C93.6399 24.48 94.3359 24.784 95.1519 25.024C95.9679 25.248 96.7679 25.36 97.5519 25.36C99.1359 25.36 99.9279 24.968 99.9279 24.184C99.9279 23.816 99.7119 23.552 99.2799 23.392C98.8479 23.232 98.1839 23.096 97.2879 22.984C96.2319 22.824 95.3599 22.64 94.6719 22.432C93.9839 22.224 93.3839 21.856 92.8719 21.328C92.3759 20.8 92.1279 20.048 92.1279 19.072C92.1279 18.256 92.3599 17.536 92.8239 16.912C93.3039 16.272 93.9919 15.776 94.8879 15.424C95.7999 15.072 96.8719 14.896 98.1039 14.896C99.0159 14.896 99.9199 15 100.816 15.208C101.728 15.4 102.48 15.672 103.072 16.024L101.824 18.688C100.688 18.048 99.4479 17.728 98.1039 17.728C97.3039 17.728 96.7039 17.84 96.3039 18.064C95.9039 18.288 95.7039 18.576 95.7039 18.928C95.7039 19.328 95.9199 19.608 96.3519 19.768C96.7839 19.928 97.4719 20.08 98.4159 20.224C99.4719 20.4 100.336 20.592 101.008 20.8C101.68 20.992 102.264 21.352 102.76 21.88C103.256 22.408 103.504 23.144 103.504 24.088C103.504 24.888 103.264 25.6 102.784 26.224C102.304 26.848 101.6 27.336 100.672 27.688C99.7599 28.024 98.6719 28.192 97.4079 28.192ZM114.142 27.376C113.774 27.648 113.318 27.856 112.774 28C112.246 28.128 111.686 28.192 111.094 28.192C109.558 28.192 108.366 27.8 107.518 27.016C106.686 26.232 106.27 25.08 106.27 23.56V18.256H104.278V15.376H106.27V12.232H110.014V15.376H113.23V18.256H110.014V23.512C110.014 24.056 110.15 24.48 110.422 24.784C110.71 25.072 111.11 25.216 111.622 25.216C112.214 25.216 112.718 25.056 113.134 24.736L114.142 27.376ZM121.989 28.192C120.629 28.192 119.405 27.912 118.317 27.352C117.245 26.776 116.405 25.984 115.797 24.976C115.189 23.968 114.885 22.824 114.885 21.544C114.885 20.264 115.189 19.12 115.797 18.112C116.405 17.104 117.245 16.32 118.317 15.76C119.405 15.184 120.629 14.896 121.989 14.896C123.349 14.896 124.565 15.184 125.637 15.76C126.709 16.32 127.549 17.104 128.157 18.112C128.765 19.12 129.069 20.264 129.069 21.544C129.069 22.824 128.765 23.968 128.157 24.976C127.549 25.984 126.709 26.776 125.637 27.352C124.565 27.912 123.349 28.192 121.989 28.192ZM121.989 25.12C122.949 25.12 123.733 24.8 124.341 24.16C124.965 23.504 125.277 22.632 125.277 21.544C125.277 20.456 124.965 19.592 124.341 18.952C123.733 18.296 122.949 17.968 121.989 17.968C121.029 17.968 120.237 18.296 119.613 18.952C118.989 19.592 118.677 20.456 118.677 21.544C118.677 22.632 118.989 23.504 119.613 24.16C120.237 24.8 121.029 25.12 121.989 25.12Z" fill="white"/>
</svg>
