<svg width="180" height="180" viewBox="0 0 180 180" fill="none" xmlns="http://www.w3.org/2000/svg">
<rect width="180" height="180" fill="white"/>
<ellipse cx="86" cy="151.5" rx="56" ry="2.5" fill="white"/>
<path fill-rule="evenodd" clip-rule="evenodd" d="M25.0002 63.9998C25.0002 64.552 25.4479 64.9998 26.0002 64.9998C26.5525 64.9998 27.0002 64.552 27.0002 63.9998V59.9998L30.9998 59.9998C31.552 59.9998 31.9998 59.552 31.9998 58.9998C31.9998 58.4475 31.552 57.9998 30.9998 57.9998L27.0002 57.9998V53.9998C27.0002 53.4475 26.5525 52.9998 26.0002 52.9998C25.4479 52.9998 25.0002 53.4475 25.0002 53.9998V57.9998L20.9998 57.9998C20.4475 57.9998 19.9998 58.4475 19.9998 58.9998C19.9998 59.552 20.4475 59.9998 20.9998 59.9998L25.0002 59.9998V63.9998Z" fill="#E5E7EB"/>
<path fill-rule="evenodd" clip-rule="evenodd" d="M154 63.0002C154 63.5525 154.448 64.0002 155 64.0002C155.552 64.0002 156 63.5525 156 63.0002V59.0002L159 59.0002C159.552 59.0002 160 58.5525 160 58.0002C160 57.448 159.552 57.0002 159 57.0002L156 57.0002V54.0002C156 53.448 155.552 53.0002 155 53.0002C154.448 53.0002 154 53.448 154 54.0002V57.0002L150 57.0002C149.448 57.0002 149 57.448 149 58.0002C149 58.5525 149.448 59.0002 150 59.0002L154 59.0002V63.0002Z" fill="#E5E7EB"/>
<circle cx="117" cy="19" r="4" stroke="#E5E7EB" stroke-width="2"/>
<circle cx="22.5" cy="123.5" r="2.5" stroke="#E5E7EB" stroke-width="2"/>
<circle cx="156.5" cy="110.5" r="1.5" stroke="#E5E7EB" stroke-width="2"/>
<circle cx="57.5" cy="21.5" r="2.5" stroke="#E5E7EB" stroke-width="2"/>
<path d="M91.2705 47.9382L91.2705 40.2847" stroke="#6B7280" stroke-width="6" stroke-linecap="round"/>
<rect x="70.0942" y="47.0886" width="41.5059" height="68.8819" rx="20.5714" fill="#E5E7EB" stroke="#6B7280" stroke-width="6"/>
<path d="M107.365 54.7417L111.6 50.4897" stroke="#6B7280" stroke-width="6" stroke-linecap="round"/>
<path d="M111.6 65.7964H117.59" stroke="#6B7280" stroke-width="6" stroke-linecap="round"/>
<path d="M111.6 81.1038H115.835" stroke="#6B7280" stroke-width="6" stroke-linecap="round"/>
<path d="M73.543 54.7417L69.3077 50.4897" stroke="#6B7280" stroke-width="6" stroke-linecap="round"/>
<path d="M69.3076 65.7964H63.318" stroke="#6B7280" stroke-width="6" stroke-linecap="round"/>
<path d="M69.2471 81.1038H65.0118" stroke="#6B7280" stroke-width="6" stroke-linecap="round"/>
<path d="M63.5745 116.114C62.7396 106.228 62.3221 101.286 64.7754 97.8429C65.3293 97.0655 65.9778 96.36 66.7057 95.7426C69.9297 93.0083 74.8901 93.0083 84.8109 93.0083H95.3097C105.184 93.0083 110.12 93.0083 113.339 95.726C114.066 96.3398 114.715 97.0414 115.269 97.8146C117.724 101.238 117.335 106.16 116.555 116.003L115.553 128.654C114.878 137.179 114.541 141.441 112.069 144.299C111.506 144.95 110.872 145.536 110.179 146.045C107.135 148.284 102.859 148.284 94.3079 148.284H85.8795C77.3695 148.284 73.1146 148.284 70.0762 146.06C69.3845 145.554 68.7515 144.972 68.1888 144.326C65.7174 141.485 65.3593 137.245 64.6431 128.766L63.5745 116.114Z" fill="white"/>
<path d="M70.0762 146.06L71.8479 143.639L70.0762 146.06ZM64.6431 128.766L67.6325 128.513L64.6431 128.766ZM68.1888 144.326L70.4521 142.356L68.1888 144.326ZM115.553 128.654L118.544 128.891L115.553 128.654ZM112.069 144.299L114.338 146.262L112.069 144.299ZM110.179 146.045L108.402 143.628L110.179 146.045ZM113.339 95.726L115.275 93.4338L113.339 95.726ZM116.555 116.003L113.565 115.766L116.555 116.003ZM115.269 97.8146L112.831 99.563L115.269 97.8146ZM63.5745 116.114L60.5852 116.366L63.5745 116.114ZM84.8109 96.0083H95.3097V90.0083H84.8109V96.0083ZM113.565 115.766L112.563 128.417L118.544 128.891L119.546 116.239L113.565 115.766ZM94.3079 145.284H85.8795V151.284H94.3079V145.284ZM67.6325 128.513L66.5639 115.861L60.5852 116.366L61.6537 129.018L67.6325 128.513ZM85.8795 145.284C81.5565 145.284 78.5603 145.28 76.2565 145.024C74.0162 144.776 72.7768 144.319 71.8479 143.639L68.3044 148.481C70.414 150.025 72.8212 150.68 75.5954 150.988C78.3063 151.288 81.6925 151.284 85.8795 151.284V145.284ZM61.6537 129.018C62.0061 133.19 62.2868 136.565 62.8144 139.241C63.3544 141.979 64.2097 144.323 65.9256 146.295L70.4521 142.356C69.6965 141.488 69.1371 140.291 68.7011 138.08C68.2527 135.806 67.9963 132.821 67.6325 128.513L61.6537 129.018ZM71.8479 143.639C71.3364 143.265 70.8682 142.835 70.4521 142.356L65.9256 146.295C66.6347 147.11 67.4326 147.843 68.3044 148.481L71.8479 143.639ZM112.563 128.417C112.22 132.748 111.978 135.749 111.539 138.036C111.112 140.26 110.555 141.463 109.8 142.337L114.338 146.262C116.055 144.277 116.903 141.92 117.431 139.167C117.948 136.477 118.212 133.085 118.544 128.891L112.563 128.417ZM94.3079 151.284C98.5152 151.284 101.917 151.288 104.64 150.986C107.426 150.676 109.842 150.017 111.957 148.462L108.402 143.628C107.472 144.312 106.228 144.772 103.977 145.022C101.663 145.28 98.6517 145.284 94.3079 145.284V151.284ZM109.8 142.337C109.384 142.818 108.915 143.251 108.402 143.628L111.957 148.462C112.83 147.82 113.629 147.082 114.338 146.262L109.8 142.337ZM95.3097 96.0083C100.321 96.0083 103.814 96.0132 106.468 96.3272C109.06 96.634 110.432 97.1974 111.404 98.0183L115.275 93.4338C113.028 91.5369 110.322 90.7414 107.173 90.3688C104.085 90.0034 100.173 90.0083 95.3097 90.0083V96.0083ZM119.546 116.239C119.93 111.392 120.243 107.492 120.123 104.385C120 101.216 119.421 98.4556 117.707 96.0662L112.831 99.563C113.573 100.597 114.026 102.009 114.127 104.617C114.231 107.287 113.96 110.77 113.565 115.766L119.546 116.239ZM111.404 98.0183C111.942 98.4723 112.421 98.9911 112.831 99.563L117.707 96.0662C117.008 95.0917 116.191 94.2074 115.275 93.4338L111.404 98.0183ZM84.8109 90.0083C79.9248 90.0083 75.9948 90.0033 72.8938 90.3709C69.7324 90.7457 67.0159 91.5459 64.7653 93.4547L68.6462 98.0305C69.6196 97.205 70.9952 96.638 73.6002 96.3292C76.2656 96.0133 79.7762 96.0083 84.8109 96.0083V90.0083ZM66.5639 115.861C66.1402 110.845 65.8496 107.346 65.9402 104.663C66.0286 102.042 66.4778 100.623 67.2185 99.5839L62.3322 96.1019C60.6197 98.5051 60.051 101.279 59.9436 104.461C59.8383 107.582 60.174 111.498 60.5852 116.366L66.5639 115.861ZM64.7653 93.4547C63.8477 94.2328 63.0305 95.1221 62.3322 96.1019L67.2185 99.5839C67.6282 99.0089 68.1078 98.4872 68.6462 98.0305L64.7653 93.4547Z" fill="#6B7280"/>
<rect x="54" y="93.0088" width="72" height="14.4567" rx="7.22835" fill="white" stroke="#6B7280" stroke-width="6"/>
</svg>
