<svg width="360" height="360" viewBox="0 0 360 360" fill="none" xmlns="http://www.w3.org/2000/svg">
<rect width="360" height="360" fill="white"/>
<path d="M240.421 231.664L223.281 248.942C221.988 250.246 221.341 250.898 220.661 251.277C218.999 252.203 216.982 252.203 215.32 251.276C214.639 250.896 213.992 250.244 212.698 248.939C211.404 247.635 210.757 246.982 210.38 246.297C209.461 244.621 209.46 242.587 210.379 240.913C210.756 240.227 211.402 239.575 212.696 238.271L229.836 220.994C231.129 219.69 231.776 219.038 232.456 218.658C234.118 217.732 236.135 217.733 237.797 218.66C238.478 219.039 239.125 219.692 240.419 220.996C241.713 222.301 242.36 222.953 242.736 223.639C243.656 225.314 243.657 227.348 242.738 229.023C242.361 229.709 241.715 230.36 240.421 231.664Z" fill="#E5E7EB"/>
<path d="M227.204 221.875C233.486 215.543 236.626 212.377 237.572 208.643C238.15 206.361 238.149 203.968 237.571 201.685C236.623 197.95 233.481 194.783 227.197 188.448C220.913 182.113 217.771 178.946 214.066 177.991C211.801 177.407 209.428 177.407 207.164 177.989C203.459 178.942 200.319 182.108 194.037 188.44L180.278 202.309C173.997 208.641 170.856 211.807 169.91 215.542C169.333 217.824 169.333 220.217 169.912 222.499C170.859 226.234 174.001 229.402 180.285 235.736C186.569 242.071 189.711 245.239 193.417 246.194C195.681 246.777 198.054 246.778 200.319 246.195C204.023 245.242 207.164 242.076 213.445 235.745L227.204 221.875Z" fill="white" stroke="#6B7280" stroke-width="6"/>
<path d="M196.224 183.228L182.11 169" stroke="#6B7280" stroke-width="6" stroke-linecap="round"/>
<path d="M202.993 301.388C208.969 307.414 217.076 310.799 225.528 310.799C233.98 310.799 242.087 307.414 248.063 301.389C254.04 295.363 257.398 287.191 257.398 278.67C257.398 270.148 254.041 261.976 248.064 255.951" stroke="#6B7280" stroke-width="6" stroke-linecap="round"/>
<path d="M175.085 204.477L161 190.278" stroke="#6B7280" stroke-width="6" stroke-linecap="round"/>
<path d="M234.009 214.531L236.285 216.827C240.782 221.359 243.03 223.625 243.355 226.391C243.429 227.019 243.429 227.652 243.355 228.279C243.031 231.045 240.784 233.31 236.29 237.841L229.411 244.775C224.917 249.305 222.67 251.57 219.926 251.897C219.304 251.971 218.675 251.971 218.053 251.896C215.309 251.568 213.061 249.302 208.565 244.77L206.288 242.474" stroke="#6B7280" stroke-width="6"/>
<path d="M240.653 237.402L246.605 243.403C246.985 243.786 247.175 243.977 247.326 244.148C250.022 247.195 250.023 251.795 247.328 254.841C247.177 255.012 246.987 255.203 246.608 255.586V255.586C246.228 255.969 246.038 256.16 245.869 256.312C242.847 259.029 238.284 259.028 235.261 256.31C235.091 256.157 234.901 255.966 234.522 255.583L228.569 249.583" stroke="#6B7280" stroke-width="6"/>
<path d="M118.563 98.5626L116.281 96.2926C114.02 94.0418 112.889 92.9163 111.508 92.7539C111.195 92.717 110.878 92.7171 110.565 92.754C109.184 92.9168 108.053 94.0425 105.791 96.2939L88.6127 113.388C86.3503 115.64 85.2191 116.765 85.0555 118.139C85.0184 118.451 85.0184 118.766 85.0554 119.077C85.2187 120.451 86.3496 121.577 88.6116 123.828L90.8928 126.098C93.1548 128.349 94.2858 129.474 95.6666 129.637C95.9797 129.673 96.2961 129.673 96.6092 129.636C97.99 129.474 99.1212 128.348 101.384 126.097L118.562 109.002C120.824 106.751 121.955 105.625 122.119 104.251C122.156 103.939 122.156 103.625 122.119 103.313C121.956 101.939 120.825 100.813 118.563 98.5626Z" fill="#E5E7EB"/>
<path d="M116.375 109.671C122.687 103.39 125.843 100.249 129.564 99.2989C131.851 98.7148 134.25 98.7145 136.537 99.2981C140.258 100.247 143.414 103.387 149.724 109.667C156.035 115.947 159.191 119.087 160.145 122.789C160.731 125.066 160.731 127.453 160.144 129.729C159.189 133.432 156.033 136.573 149.721 142.854L136.248 156.261C129.936 162.543 126.78 165.683 123.059 166.633C120.772 167.218 118.373 167.218 116.086 166.634C112.365 165.685 109.209 162.545 102.899 156.265C96.5876 149.985 93.4322 146.845 92.4782 143.143C91.8917 140.867 91.8919 138.48 92.4789 136.203C93.4336 132.501 96.5897 129.36 102.902 123.078L116.375 109.671Z" fill="white" stroke="#6B7280" stroke-width="6"/>
<path d="M123.796 103.77L121.526 101.512C117.002 97.01 114.741 94.7592 111.979 94.4343C111.353 94.3606 110.72 94.3607 110.094 94.4345C107.332 94.7601 105.07 97.0115 100.545 101.514L93.8841 108.142C89.3593 112.645 87.0969 114.897 86.7697 117.645C86.6956 118.268 86.6955 118.898 86.7695 119.521C87.0961 122.269 89.3581 124.52 93.8819 129.021L96.1514 131.28" stroke="#6B7280" stroke-width="6"/>
<path d="M101.072 97.0576L95.0458 91.0606C94.7174 90.7338 94.5532 90.5704 94.4076 90.4391C91.3515 87.6824 86.6919 87.683 83.6353 90.4404C83.4897 90.5718 83.3254 90.7352 82.9969 91.0621V91.0621C82.6684 91.389 82.5042 91.5524 82.3722 91.6973C79.6013 94.7391 79.6008 99.3759 82.3711 102.417C82.503 102.562 82.6673 102.725 82.9957 103.052L89.0222 109.049" stroke="#6B7280" stroke-width="6"/>
<path d="M141.057 126.115L131.69 117.1" stroke="#6B7280" stroke-width="6" stroke-linecap="round"/>
<path d="M129.049 137.128L119.683 128.113" stroke="#6B7280" stroke-width="6" stroke-linecap="round"/>
<path d="M118.041 149.142L108.675 140.127" stroke="#6B7280" stroke-width="6" stroke-linecap="round"/>
<path d="M82.0707 89.124C75.4216 84.7542 70.8674 77.7901 69.4102 69.7635C67.953 61.737 69.712 53.3055 74.3003 46.324C78.8886 39.3424 85.9304 34.3827 93.8765 32.5358C101.823 30.689 110.022 32.1063 116.671 36.4761" stroke="#6B7280" stroke-width="6" stroke-linecap="round"/>
<path d="M183.941 87.0345L184.132 113.049" stroke="#6B7280" stroke-width="6" stroke-linecap="round"/>
<path d="M242.913 147.07L216.926 146.881" stroke="#6B7280" stroke-width="6" stroke-linecap="round"/>
<path d="M221.923 108.047L200.685 129.238" stroke="#6B7280" stroke-width="6" stroke-linecap="round"/>
<path d="M276 76L276 64" stroke="#E5E7EB" stroke-width="2" stroke-linecap="round"/>
<path d="M282 70L270 70" stroke="#E5E7EB" stroke-width="2" stroke-linecap="round"/>
<circle cx="176" cy="48" r="4" stroke="#E5E7EB" stroke-width="2"/>
<circle cx="304" cy="150" r="6" stroke="#E5E7EB" stroke-width="2"/>
<path d="M88 249L78 249" stroke="#E5E7EB" stroke-width="2" stroke-linecap="round"/>
<path d="M83 254L83 244" stroke="#E5E7EB" stroke-width="2" stroke-linecap="round"/>
<circle cx="4" cy="4" r="4" transform="matrix(-4.35977e-08 1 1 4.38253e-08 60 152)" stroke="#E5E7EB" stroke-width="2"/>
<circle cx="4" cy="4" r="4" transform="matrix(-4.35977e-08 1 1 4.38253e-08 159 278)" stroke="#E5E7EB" stroke-width="2"/>
</svg>
