<svg width="180" height="180" viewBox="0 0 180 180" fill="none" xmlns="http://www.w3.org/2000/svg">
<path d="M90 18C90 18 42 40 42 90C42 140 90 162 90 162C90 162 138 140 138 90C138 40 90 18 90 18Z" fill="white" stroke="#6B7280" stroke-width="6" stroke-linecap="round" stroke-linejoin="round"/>
<path d="M90 18C90 18 42 40 42 90C42 140 90 162 90 162" fill="#E5E7EB"/>
<path d="M90 18C90 18 42 40 42 90C42 140 90 162 90 162C90 162 138 140 138 90C138 40 90 18 90 18Z" stroke="#6B7280" stroke-width="6" stroke-linecap="round" stroke-linejoin="round" fill="none"/>
<path d="M68 90L84 106L114 76" stroke="#6B7280" stroke-width="6" stroke-linecap="round" stroke-linejoin="round"/>
</svg>
