<svg width="180" height="180" viewBox="0 0 180 180" fill="none" xmlns="http://www.w3.org/2000/svg">
<rect x="56" y="10" width="69" height="74" rx="7.38626" fill="white" stroke="#6B7280" stroke-width="7.01695"/>
<path d="M100 25.0324V10H80V24.8854C80 27.7218 80 29.14 80.794 29.7242C80.9673 29.8518 81.1606 29.9498 81.366 30.0142C82.3066 30.3091 83.4503 29.4706 85.7379 27.7936L87.7271 26.3353C88.6533 25.6563 89.1164 25.3169 89.6431 25.2629C89.7642 25.2505 89.8862 25.2495 90.0075 25.2598C90.5351 25.3048 91.0039 25.6364 91.9415 26.2996L94.3117 27.9763C96.5858 29.5849 97.7228 30.3892 98.6521 30.0878C98.8553 30.0219 99.0462 29.9231 99.2173 29.7953C100 29.2107 100 27.8179 100 25.0324Z" fill="#E5E7EB" stroke="#6B7280" stroke-width="7.01695"/>
<rect x="95" y="91" width="69" height="74" rx="7.38626" fill="white" stroke="#6B7280" stroke-width="7.01695"/>
<path d="M139 108.032V93H119V107.885C119 110.722 119 112.14 119.794 112.724C119.967 112.852 120.161 112.95 120.366 113.014C121.307 113.309 122.45 112.471 124.738 110.794L126.727 109.335C127.653 108.656 128.116 108.317 128.643 108.263C128.764 108.25 128.886 108.249 129.008 108.26C129.535 108.305 130.004 108.636 130.941 109.3L133.312 110.976C135.586 112.585 136.723 113.389 137.652 113.088C137.855 113.022 138.046 112.923 138.217 112.795C139 112.211 139 110.818 139 108.032Z" fill="#E5E7EB" stroke="#6B7280" stroke-width="7.01695"/>
<rect x="15" y="91" width="69" height="74" rx="7.38626" fill="white" stroke="#6B7280" stroke-width="7.01695"/>
<path d="M59 108.032V93H39V107.885C39 110.722 39 112.14 39.794 112.724C39.9673 112.852 40.1606 112.95 40.366 113.014C41.3066 113.309 42.4503 112.471 44.7379 110.794L46.7271 109.335C47.6533 108.656 48.1164 108.317 48.6431 108.263C48.7642 108.25 48.8862 108.249 49.0075 108.26C49.5351 108.305 50.0039 108.636 50.9415 109.3L53.3117 110.976C55.5858 112.585 56.7228 113.389 57.6521 113.088C57.8553 113.022 58.0462 112.923 58.2173 112.795C59 112.211 59 110.818 59 108.032Z" fill="#E5E7EB" stroke="#6B7280" stroke-width="7.01695"/>
</svg>
