<svg width="180" height="180" viewBox="0 0 180 180" fill="none" xmlns="http://www.w3.org/2000/svg">
<path d="M32 63.4C32 44.2517 32 34.6775 37.1524 28.1417C38.3207 26.6597 39.6597 25.3207 41.1417 24.1524C47.6775 19 57.2517 19 76.4 19H103.6C122.748 19 132.322 19 138.858 24.1524C140.34 25.3207 141.679 26.6597 142.848 28.1417C148 34.6775 148 44.2517 148 63.4V138.26C148 149.079 135.514 155.122 127.029 148.409C122.324 144.687 115.676 144.687 110.971 148.409L104.5 153.529C96.0022 160.251 83.9978 160.251 75.5 153.529L69.0294 148.409C64.3237 144.687 57.6763 144.687 52.9706 148.409C44.4861 155.122 32 149.079 32 138.26V63.4Z" fill="white" stroke="#6B7280" stroke-width="6"/>
<rect x="56" y="44" width="31" height="25" rx="12.5" fill="#E5E7EB" stroke="#6B7280" stroke-width="6"/>
<path d="M56 111H102" stroke="#6B7280" stroke-width="6" stroke-linecap="round"/>
<path d="M56 90H126" stroke="#6B7280" stroke-width="6" stroke-linecap="round"/>
</svg>
