<?xml version="1.0" encoding="UTF-8"?>
<!-- Generated by Pixelmator Pro 3.6.18 -->
<svg width="200" height="47" viewBox="0 0 200 47" xmlns="http://www.w3.org/2000/svg">
    <path id="path1" fill="#edc55d" stroke="none" d="M 5.800464 5.351486 C 17.13225 5.351486 28.464037 5.351486 40.13921 5.351486 C 40.215778 7.271038 40.292343 9.190594 40.371231 11.168316 C 40.830624 11.552227 41.290024 11.936138 41.76334 12.331684 C 41.936584 12.913601 41.936584 12.913601 41.935432 13.538273 C 41.939812 13.895409 41.939812 13.895409 41.944279 14.259758 C 41.940369 14.518448 41.936455 14.777138 41.932426 15.043667 C 41.933746 15.318085 41.935066 15.592506 41.936432 15.875242 C 41.938564 16.626289 41.934486 17.376984 41.927414 18.127993 C 41.921284 18.915352 41.922527 19.702703 41.922794 20.49008 C 41.922142 21.812717 41.916107 23.135244 41.906597 24.457846 C 41.89566 25.984264 41.891983 27.510559 41.89249 29.037014 C 41.892963 30.665163 41.888123 32.293266 41.881741 33.921402 C 41.88026 34.388996 41.879761 34.856583 41.879486 35.324181 C 41.877972 36.198059 41.871872 37.071777 41.864452 37.945625 C 41.864925 38.332245 41.864925 38.332245 41.86541 38.726677 C 41.848457 40.093735 41.820915 41.182262 41.067284 42.346535 C 39.619423 43.330101 37.931252 43.142796 36.238853 43.134872 C 35.914368 43.135822 35.589882 43.137066 35.2654 43.13858 C 34.387661 43.14175 33.509972 43.140533 32.632225 43.138313 C 31.711761 43.136543 30.791302 43.138191 29.870832 43.139282 C 28.325346 43.140553 26.779881 43.138882 25.234398 43.135555 C 23.450003 43.131756 21.665663 43.132988 19.881268 43.136829 C 18.346643 43.140003 16.812037 43.140446 15.277411 43.138618 C 14.361974 43.137535 13.446565 43.137379 12.53113 43.13969 C 11.670309 43.141716 10.809562 43.140297 9.948749 43.136276 C 9.483865 43.134918 9.018975 43.136978 8.554095 43.139156 C 7.085594 43.128799 5.915566 43.11665 4.640371 42.346535 C 4.129847 41.578587 4.116877 41.343605 4.111164 40.450588 C 4.108514 40.202679 4.105865 39.954765 4.103135 39.699341 C 4.102616 39.427368 4.102097 39.155396 4.101563 38.875183 C 4.099258 38.588734 4.096955 38.302288 4.094581 38.007164 C 4.088962 37.221142 4.085501 36.435181 4.083439 35.649147 C 4.082078 35.158009 4.080173 34.66687 4.078101 34.175735 C 4.071756 32.638855 4.06727 31.101984 4.065478 29.565088 C 4.063399 27.791306 4.055254 26.017687 4.041812 24.243954 C 4.031781 22.872589 4.0271 21.501272 4.02648 20.129871 C 4.025993 19.31089 4.023254 18.492067 4.014963 17.673124 C 4.005893 16.759548 4.007913 15.84618 4.01093 14.932556 C 4.006654 14.661526 4.002378 14.390495 3.997973 14.111252 C 4.000557 13.862026 4.003141 13.612804 4.005804 13.356026 C 4.005123 13.140095 4.004443 12.924168 4.003742 12.701698 C 4.176334 12.09901 4.176334 12.09901 5.568446 10.935642 C 5.645011 9.092873 5.721578 7.250099 5.800464 5.351486 Z"/>
    <path id="path2" fill="#000000" stroke="none" d="M 111.186737 13.09605 C 112.859947 14.217793 114.003273 15.925901 114.507507 17.875851 C 115.264099 22.967489 114.081444 27.96026 111.035385 32.10891 C 108.951424 34.573608 105.997818 36.749107 102.683052 37.045605 C 99.507729 37.186935 96.688843 37.156425 94.132469 35.042774 C 92.240982 33.258549 91.627319 30.894236 91.537041 28.342001 C 91.492218 23.674309 92.824715 19.256748 95.929703 15.698175 C 97.700089 13.974613 99.707474 12.7686 102.088165 12.09901 C 102.229446 12.058613 102.370728 12.018215 102.516289 11.976597 C 105.366226 11.348072 108.676247 11.635235 111.186737 13.09605 Z M 101.62413 17.915842 C 101.423149 18.040611 101.22216 18.165384 101.015083 18.293936 C 98.621666 20.694107 97.847176 24.089018 97.837799 27.364727 C 97.860344 28.717651 98.03083 29.594509 98.839905 30.712872 C 99.8209 31.648643 100.648262 31.979609 102.015663 31.954401 C 103.730034 31.704651 105.085503 30.700937 106.142151 29.369547 C 108.092339 26.518526 108.819626 23.198668 108.352669 19.777227 C 107.964844 18.659864 107.30162 17.807178 106.264503 17.217821 C 104.535355 16.639812 103.135353 16.961151 101.62413 17.915842 Z"/>
    <path id="path3" fill="#000000" stroke="none" d="M 72.389793 12.331684 C 74.380508 12.331684 76.371231 12.331684 78.422272 12.331684 C 78.28183 13.74012 78.150513 15.000137 77.863075 16.361656 C 77.779152 16.763922 77.779152 16.763922 77.693535 17.174309 C 77.622971 17.505396 77.552399 17.836481 77.479698 18.177599 C 77.254791 19.242952 77.029869 20.308304 76.798141 21.405941 C 79.324829 21.405941 81.851509 21.405941 84.454758 21.405941 C 84.607887 20.407772 84.761024 19.409603 84.918793 18.381187 C 85.102242 17.350471 85.307297 16.324663 85.513344 15.298267 C 85.564636 15.036428 85.615929 14.77459 85.668777 14.504814 C 85.718277 14.256771 85.767776 14.008732 85.818771 13.75317 C 85.863205 13.529949 85.907631 13.306728 85.953415 13.076736 C 86.078888 12.564358 86.078888 12.564358 86.310905 12.331684 C 86.757927 12.311329 87.205688 12.306793 87.653168 12.30896 C 87.924591 12.309711 88.196014 12.310459 88.475655 12.311234 C 88.761429 12.313183 89.047211 12.315132 89.341644 12.317142 C 89.771652 12.318718 89.771652 12.318718 90.210358 12.320324 C 90.921379 12.323074 91.632378 12.326912 92.343384 12.331684 C 91.742897 15.383751 91.141922 18.435726 90.540321 21.487576 C 90.261002 22.904585 89.981865 24.321625 89.703102 25.738741 C 89.434212 27.105633 89.164886 28.472437 88.895248 29.83918 C 88.79232 30.361347 88.689545 30.883547 88.586922 31.405777 C 88.443481 32.135674 88.299477 32.865456 88.155327 33.595215 C 88.091492 33.921062 88.091492 33.921062 88.026367 34.253494 C 87.987007 34.452187 87.947639 34.650879 87.907082 34.855591 C 87.873077 35.028244 87.839073 35.200897 87.804039 35.378784 C 87.703018 35.831684 87.703018 35.831684 87.471001 36.529701 C 85.480278 36.529701 83.489555 36.529701 81.438515 36.529701 C 81.766289 34.278248 82.174728 32.054562 82.627609 29.825804 C 82.84774 28.736456 83.067863 27.64711 83.294662 26.524752 C 80.767975 26.524752 78.241302 26.524752 75.638054 26.524752 C 75.561485 27.215792 75.484917 27.906832 75.406029 28.618813 C 75.288048 29.267099 75.164406 29.909632 75.028099 30.553818 C 74.992371 30.726444 74.95665 30.899073 74.919846 31.076931 C 74.807297 31.619858 74.693405 32.162498 74.579468 32.705135 C 74.50219 33.076698 74.425003 33.44828 74.3479 33.819878 C 74.160416 34.723408 73.971115 35.62653 73.781906 36.529701 C 71.791183 36.529701 69.800461 36.529701 67.74942 36.529701 C 67.906273 34.956753 68.095856 33.468712 68.412453 31.93111 C 68.455482 31.717449 68.49852 31.503784 68.542847 31.283648 C 68.683624 30.58601 68.826012 29.88871 68.968422 29.191406 C 69.067032 28.704391 69.165535 28.217358 69.263939 27.730303 C 69.521919 26.45483 69.781265 25.179642 70.040916 23.904509 C 70.306145 22.600719 70.570061 21.296665 70.834091 19.992632 C 71.351387 17.438723 71.870247 14.885136 72.389793 12.331684 Z"/>
    <path id="path4" fill="#000000" stroke="none" d="M 195.823669 12.797031 C 196.077301 12.940994 196.330917 13.084965 196.592224 13.233292 C 197.215775 13.727722 197.215775 13.727722 198.37587 15.123762 C 197.150803 16.352278 195.925751 17.580791 194.663574 18.846535 C 193.735504 18.381187 193.735504 18.381187 193.024948 17.9013 C 191.761139 17.065378 190.5672 17.082211 189.095123 17.217821 C 187.430222 17.624205 186.004593 18.44038 184.918793 19.777227 C 183.230637 22.58539 182.538391 25.075624 182.830627 28.386139 C 183.176544 29.636826 183.800949 30.500399 184.918793 31.178219 C 186.746521 31.883175 188.194702 31.78944 190.023209 31.178219 C 190.367752 29.450619 190.367752 29.450619 190.719254 27.688118 C 189.494186 27.611336 188.269135 27.534554 187.006958 27.455446 C 187.313232 25.843019 187.619492 24.230595 187.935028 22.569307 C 190.997681 22.569307 194.060333 22.569307 197.215775 22.569307 C 196.953918 24.932652 196.953918 24.932652 196.816483 25.733288 C 196.76976 26.005789 196.76976 26.005789 196.722092 26.283796 C 196.577133 27.096968 196.427704 27.909227 196.275177 28.721004 C 196.196396 29.148005 196.120636 29.575581 196.047928 30.00366 C 195.941544 30.627934 195.825226 31.24963 195.706757 31.871693 C 195.676453 32.061497 195.646164 32.251301 195.61496 32.446854 C 195.346024 33.7775 194.849731 34.346626 193.728729 35.098164 C 193.122711 35.453575 192.518372 35.748627 191.864853 36.006187 C 191.642029 36.096169 191.419205 36.186146 191.189636 36.278854 C 188.187073 37.35117 184.293671 37.604828 181.291687 36.357018 C 180.395508 35.879478 179.630356 35.361279 178.886307 34.668316 C 178.667831 34.467663 178.667831 34.467663 178.444931 34.262955 C 176.638214 32.416672 176.246429 30.25066 176.218094 27.746286 C 176.268845 23.214722 177.804153 19.121328 180.974472 15.821783 C 184.567429 12.414261 191.189575 9.977627 195.823669 12.797031 Z"/>
    <path id="path5" fill="#000000" stroke="none" d="M 174.013916 12.797031 C 174.267548 12.940994 174.521179 13.084965 174.782486 13.233292 C 175.406036 13.727722 175.406036 13.727722 176.566132 15.123762 C 175.341064 16.352278 174.116013 17.580791 172.853821 18.846535 C 171.925751 18.381187 171.925751 18.381187 171.215195 17.9013 C 169.951401 17.065378 168.757446 17.082211 167.285385 17.217821 C 165.620483 17.624205 164.194855 18.44038 163.109055 19.777227 C 161.420898 22.58539 160.728653 25.075624 161.020889 28.386139 C 161.366806 29.636826 161.991196 30.500399 163.109055 31.178219 C 164.936783 31.883175 166.384949 31.78944 168.213455 31.178219 C 168.557999 29.450619 168.557999 29.450619 168.909515 27.688118 C 167.684448 27.611336 166.459396 27.534554 165.19722 27.455446 C 165.503479 25.843019 165.809753 24.230595 166.12529 22.569307 C 169.187943 22.569307 172.25058 22.569307 175.406036 22.569307 C 175.14418 24.932652 175.14418 24.932652 175.006744 25.733288 C 174.960007 26.005789 174.960007 26.005789 174.912338 26.283796 C 174.76738 27.096968 174.61795 27.909227 174.465439 28.721004 C 174.386642 29.148005 174.310898 29.575581 174.238174 30.00366 C 174.131805 30.627934 174.015472 31.24963 173.897003 31.871693 C 173.866714 32.061497 173.836426 32.251301 173.805206 32.446854 C 173.53627 33.7775 173.039993 34.346626 171.918991 35.098164 C 171.312973 35.453575 170.708633 35.748627 170.055099 36.006187 C 169.832291 36.096169 169.609467 36.186146 169.379898 36.278854 C 166.377335 37.35117 162.483932 37.604828 159.481949 36.357018 C 158.58577 35.879478 157.820618 35.361279 157.076569 34.668316 C 156.858093 34.467663 156.858093 34.467663 156.635193 34.262955 C 154.828476 32.416672 154.436691 30.25066 154.408356 27.746286 C 154.459091 23.214722 155.9944 19.121328 159.164734 15.821783 C 162.757675 12.414261 169.379837 9.977627 174.013916 12.797031 Z"/>
    <path id="path6" fill="#000000" stroke="none" d="M 143.387466 12.331684 C 145.837585 12.331684 148.287704 12.331684 150.812057 12.331684 C 151.145508 15.314861 151.478409 18.298098 151.810364 21.281445 C 151.964523 22.666702 152.118912 24.051935 152.273849 25.437107 C 152.42334 26.773687 152.57222 28.110336 152.720657 29.447035 C 152.777405 29.957186 152.834396 30.46731 152.891602 30.977411 C 152.971664 31.69146 153.050919 32.405598 153.12999 33.119755 C 153.153839 33.330963 153.177704 33.542171 153.202301 33.759781 C 153.22377 33.955196 153.245255 34.150612 153.26738 34.351952 C 153.295609 34.605141 153.295609 34.605141 153.324402 34.863445 C 153.368301 35.417278 153.364273 35.974121 153.364273 36.529701 C 151.296997 36.529701 149.229691 36.529701 147.099762 36.529701 C 146.889023 35.895664 146.82515 35.454208 146.794342 34.796471 C 146.785507 34.618706 146.776657 34.440941 146.767548 34.257786 C 146.757553 34.033344 146.747543 33.808903 146.737244 33.57766 C 146.686996 32.505112 146.686996 32.505112 146.635727 31.410892 C 143.190262 31.295717 143.190262 31.295717 139.675171 31.178219 C 139.44548 31.869259 139.215775 32.560299 138.979111 33.272278 C 138.703354 33.869785 138.426102 34.449554 138.12355 35.031868 C 137.869919 35.526154 137.616287 36.020439 137.354996 36.529701 C 135.287704 36.529701 133.220413 36.529701 131.090485 36.529701 C 131.354279 36.000927 131.618088 35.472149 131.889862 34.927345 C 132.496414 33.711197 133.102036 32.494579 133.706329 31.277287 C 137.175873 24.288399 137.175873 24.288399 138.615234 21.58766 C 139.588791 19.753712 140.505493 17.891157 141.423752 16.028893 C 141.544785 15.784187 141.665833 15.539482 141.790527 15.287361 C 141.897263 15.070585 142.003998 14.853809 142.113968 14.630466 C 142.515381 13.851791 142.953796 13.092758 143.387466 12.331684 Z M 145.939682 16.985149 C 145.488617 18.006634 145.038803 19.028666 144.590103 20.051199 C 144.437637 20.398159 144.284866 20.744978 144.131729 21.091639 C 143.910248 21.593199 143.689987 22.095287 143.46994 22.597483 C 143.402481 22.749537 143.335037 22.901592 143.265533 23.058252 C 142.765289 24.20458 142.394287 25.324594 141.995361 26.524752 C 143.450119 26.524752 144.904861 26.524752 146.403717 26.524752 C 146.428162 23.33568 146.341354 20.16951 146.171692 16.985149 C 146.095123 16.985149 146.01857 16.985149 145.939682 16.985149 Z"/>
    <path id="path7" fill="#000000" stroke="none" d="M 118.793503 12.331684 C 120.403145 12.313885 122.012772 12.30172 123.622505 12.293339 C 124.169327 12.289845 124.716148 12.285091 125.262947 12.279026 C 126.052025 12.270493 126.841026 12.266586 127.63015 12.263515 C 127.871925 12.259914 128.113708 12.25631 128.362823 12.252602 C 130.75946 12.252056 132.990891 12.768188 134.80278 14.425743 C 136.034363 16.196444 136.179382 18.146105 135.855927 20.235304 C 135.304642 22.758837 134.084335 24.939035 132.018555 26.524752 C 129.36644 28.116753 127.070152 28.700884 123.99942 28.647896 C 123.648361 28.644747 123.648361 28.644747 123.290222 28.641535 C 122.719322 28.636106 122.148552 28.628494 121.577728 28.618813 C 121.562958 28.819633 121.562958 28.819633 121.547874 29.024513 C 121.407013 30.674894 121.10083 32.2658 120.75116 33.883045 C 120.471222 35.193138 120.471222 35.193138 120.185616 36.529701 C 118.194901 36.529701 116.204178 36.529701 114.15313 36.529701 C 114.309982 34.956753 114.499565 33.468712 114.816162 31.93111 C 114.859192 31.717449 114.902229 31.503784 114.946564 31.283648 C 115.087341 30.58601 115.229721 29.88871 115.372139 29.191406 C 115.470741 28.704391 115.569244 28.217358 115.667656 27.730303 C 115.925629 26.45483 116.184982 25.179642 116.444626 23.904509 C 116.709854 22.600719 116.97377 21.296665 117.237801 19.992632 C 117.755096 17.438723 118.273842 14.885109 118.793503 12.331684 Z M 123.897911 16.985149 C 123.702728 17.930012 123.510063 18.875376 123.317863 19.820854 C 123.262535 20.088543 123.207207 20.35623 123.150192 20.632029 C 123.097855 20.890718 123.045517 21.149408 122.991592 21.415937 C 122.942986 21.65354 122.894386 21.89114 122.844315 22.135942 C 122.744545 22.759924 122.717628 23.334923 122.737816 23.965347 C 124.869347 24.047209 127.090988 24.052881 128.770294 22.569307 C 129.656342 21.317913 130.089325 20.154604 129.930389 18.613861 C 129.271378 17.684525 128.603195 17.278198 127.486946 17.047861 C 126.293037 16.917147 125.096581 16.957762 123.897911 16.985149 Z"/>
    <path id="path8" fill="#000000" stroke="none" d="M 62.122971 11.779083 C 62.430561 11.779644 62.430561 11.779644 62.744366 11.78022 C 65.283257 11.827934 67.260773 12.591328 69.112526 14.367573 C 69.275238 14.540333 69.437935 14.713093 69.605568 14.89109 C 69.299026 15.573357 68.968361 16.05135 68.436409 16.574335 C 68.301826 16.707806 68.167236 16.841272 68.028564 16.978786 C 67.888596 17.115253 67.748619 17.251724 67.604408 17.392326 C 67.462639 17.532394 67.320869 17.672462 67.174812 17.816774 C 66.826012 18.161093 66.475792 18.503958 66.12529 18.846535 C 65.33445 18.54668 64.624901 18.190693 63.892113 17.77042 C 62.33881 16.984602 60.913548 16.957911 59.266243 17.47958 C 58.563812 18.021433 58.426144 18.456795 58.23666 19.311882 C 59.438152 20.791939 61.165852 21.31636 62.879295 22.038521 C 64.694832 22.832577 66.161537 23.672823 67.279037 25.350479 C 67.564262 26.198774 67.632538 26.97641 67.618912 27.862623 C 67.616653 28.026875 67.614388 28.191122 67.612053 28.36035 C 67.522499 31.021654 66.403732 32.645069 64.50116 34.435642 C 61.584026 36.977119 58.350803 37.26033 54.635387 37.047993 C 52.550121 36.856018 50.809517 35.963028 49.187935 34.668316 C 49.049458 34.563042 48.910984 34.457764 48.768307 34.3493 C 48.491879 33.970299 48.491879 33.970299 48.541615 33.419743 C 48.749809 32.719822 48.987991 32.433678 49.507866 31.929861 C 49.664139 31.776146 49.820415 31.622433 49.981419 31.464062 C 50.14547 31.307346 50.309517 31.150635 50.478539 30.98917 C 50.643486 30.827959 50.808434 30.666746 50.978374 30.500648 C 51.38496 30.103859 51.793552 29.70941 52.204178 29.316832 C 52.902496 29.732405 53.58633 30.161749 54.26334 30.611076 C 55.734787 31.526775 57.217838 31.84071 58.932716 31.643564 C 59.727757 31.436298 60.36784 31.17457 60.904873 30.523825 C 61.0732 29.785301 61.017292 29.34527 60.788864 28.618813 C 60.219849 28.234808 59.740986 27.972771 59.121231 27.702662 C 58.872295 27.585491 58.872295 27.585491 58.618336 27.465954 C 58.106407 27.225138 57.591911 26.990776 57.076565 26.757425 C 53.00248 24.892929 53.00248 24.892929 52.00116 22.598391 C 51.411011 20.766579 51.684692 18.962917 52.436195 17.217821 C 53.919731 14.553303 56.142281 13.065117 58.978935 12.071743 C 60.043411 11.823795 61.033703 11.77702 62.122971 11.779083 Z"/>
    <path id="path9" fill="#d07c3f" stroke="none" d="M 6.032483 5.351486 C 17.134571 5.351486 28.236658 5.351486 39.675175 5.351486 C 38.994877 6.033703 38.455997 6.519073 37.674015 7.038368 C 37.493965 7.159538 37.313915 7.280712 37.128407 7.405556 C 36.658932 7.678219 36.658932 7.678219 36.194897 7.678219 C 36.194897 9.213863 36.194897 10.749504 36.194897 12.331684 C 27.389791 12.331684 18.584686 12.331684 9.512761 12.331684 C 9.512761 10.79604 9.512761 9.260395 9.512761 7.678219 C 8.938516 7.447868 8.938516 7.447868 8.352668 7.212872 C 7.93451 6.9478 7.523506 6.671074 7.12007 6.383972 C 6.915195 6.239704 6.710321 6.09544 6.499238 5.9468 C 6.345209 5.827129 6.19118 5.707458 6.032483 5.58416 C 6.032483 5.507378 6.032483 5.430592 6.032483 5.351486 Z"/>
    <path id="path10" fill="#dba14e" stroke="none" d="M 5.800464 5.351486 C 5.971242 5.46096 6.142021 5.570435 6.317974 5.683228 C 6.544383 5.828094 6.770791 5.972961 7.00406 6.122215 C 7.227478 6.265282 7.450895 6.408348 7.681083 6.555752 C 8.286427 6.938332 8.899196 7.30904 9.512761 7.678219 C 9.512761 9.213863 9.512761 10.749504 9.512761 12.331684 C 18.317865 12.331684 27.122971 12.331684 36.194897 12.331684 C 36.194897 10.79604 36.194897 9.260395 36.194897 7.678219 C 38.932716 5.351486 38.932716 5.351486 40.13921 5.351486 C 40.13895 5.521603 40.138687 5.691719 40.138416 5.866989 C 40.141232 6.640606 40.154613 7.413692 40.168213 8.187191 C 40.167614 8.454876 40.167015 8.722569 40.166401 8.998367 C 40.151852 10.383739 40.151852 10.383739 40.694561 11.606056 C 41.111576 11.96328 41.111576 11.96328 41.76334 12.331684 C 41.76334 12.408466 41.76334 12.485249 41.76334 12.564358 C 29.359629 12.564358 16.955917 12.564358 4.176334 12.564358 C 4.640371 11.633663 4.640371 11.633663 5.124574 11.307091 C 5.62547 10.965477 5.62547 10.965477 5.695104 10.343792 C 5.699964 10.113503 5.704824 9.883209 5.709832 9.645943 C 5.717309 9.396248 5.724786 9.146561 5.73249 8.889301 C 5.737425 8.498566 5.737425 8.498566 5.742459 8.099937 C 5.749338 7.83675 5.756217 7.573563 5.763305 7.302395 C 5.779722 6.652073 5.791942 6.001949 5.800464 5.351486 Z"/>
    <path id="path11" fill="#fcf9f4" stroke="none" d="M 12.296984 20.242575 C 13.117335 20.36722 13.117335 20.36722 13.457077 20.70792 C 13.532618 21.176908 13.598614 21.647453 13.660092 22.118502 C 14.059784 24.746725 14.922345 26.56448 16.969076 28.354328 C 18.838543 29.710739 21.140043 30.32225 23.433874 30.014851 C 26.30171 29.346821 28.308064 28.055609 29.930395 25.594059 C 30.026104 25.450993 30.121809 25.307926 30.220417 25.160524 C 31.053732 23.725761 31.149628 22.099415 31.322506 20.475248 C 31.709078 20.465307 32.096016 20.465792 32.482597 20.475248 C 32.714619 20.70792 32.714619 20.70792 32.772621 21.478651 C 32.720715 24.388437 31.575653 26.759552 29.582367 28.822401 C 27.21102 31.070084 24.889591 31.794239 21.676176 31.769785 C 18.748598 31.664164 16.489983 30.354338 14.486659 28.269802 C 12.959616 26.449781 11.809742 24.109276 11.789443 21.711325 C 11.786153 21.532866 11.782864 21.354408 11.779473 21.17054 C 11.832947 20.70792 11.832947 20.70792 12.296984 20.242575 Z"/>
    <path id="path12" fill="#cfae58" stroke="none" d="M 31.090487 26.757425 C 31.205336 26.987772 31.205336 26.987772 31.322506 27.222773 C 29.531929 29.717022 27.560192 31.70607 24.503336 32.48246 C 21.664209 32.912941 19.179136 32.591167 16.747026 30.976446 C 15.577712 30.076859 14.580492 29.096992 13.689095 27.920792 C 13.689095 27.767227 13.689095 27.613663 13.689095 27.455446 C 13.842228 27.455446 13.995359 27.455446 14.153132 27.455446 C 14.385143 27.723639 14.605454 28.002048 14.820186 28.284344 C 16.173962 29.886707 18.338718 31.235382 20.453262 31.465197 C 23.631748 31.649181 26.23838 31.318558 28.795679 29.260481 C 29.626623 28.485729 30.363705 27.629698 31.090487 26.757425 Z"/>
    <path id="path13" fill="#edc45c" stroke="none" d="M 40.13921 5.351486 C 40.13921 7.117474 40.13921 8.883465 40.13921 10.702969 C 38.934799 10.461407 38.467709 10.107288 37.630512 9.292389 C 37.514015 9.182465 37.397522 9.07254 37.277496 8.959286 C 36.992058 8.689396 36.709221 8.416752 36.426914 8.143566 C 36.781139 7.157825 37.426628 6.781437 38.283062 6.22401 C 38.531902 6.059647 38.780743 5.895287 39.037125 5.725945 C 39.675175 5.351486 39.675175 5.351486 40.13921 5.351486 Z"/>
    <path id="path14" fill="#edc45c" stroke="none" d="M 5.800464 5.351486 C 8.410673 7.003052 8.410673 7.003052 9.280743 7.678219 C 8.912072 8.620102 8.28161 9.161659 7.540603 9.830444 C 7.424857 9.937222 7.309111 10.043999 7.189857 10.154007 C 6.324588 10.935642 6.324588 10.935642 5.800464 10.935642 C 5.800464 9.092873 5.800464 7.250099 5.800464 5.351486 Z"/>
    <path id="path15" fill="#d4884c" stroke="none" d="M 32.714619 19.311882 C 33.294662 19.689976 33.294662 19.689976 33.642693 20.242575 C 33.600056 20.955194 33.49646 21.466558 33.178654 22.10396 C 33.02552 22.10396 32.872387 22.10396 32.714619 22.10396 C 32.63805 21.643269 32.561485 21.182575 32.482597 20.70792 C 32.09977 20.631138 31.716936 20.554356 31.322506 20.475248 C 31.322506 21.012722 31.322506 21.5502 31.322506 22.10396 C 31.169373 22.10396 31.016239 22.10396 30.858469 22.10396 C 30.321852 21.296761 30.295872 20.958729 30.394432 20.009901 C 30.923473 19.073662 31.737165 19.191504 32.714619 19.311882 Z"/>
    <path id="path16" fill="#d38545" stroke="none" d="M 12.398492 19.210087 C 13.612763 19.359629 13.612763 19.359629 14.153132 20.009901 C 14.254641 20.70792 14.254641 20.70792 14.153132 21.405941 C 13.805104 21.842203 13.805104 21.842203 13.457077 22.10396 C 13.303945 21.566486 13.150812 21.029009 12.993039 20.475248 C 12.686775 20.552031 12.38051 20.628813 12.064965 20.70792 C 11.988399 21.168613 11.911833 21.629307 11.832947 22.10396 C 11.679814 22.10396 11.526682 22.10396 11.36891 22.10396 C 10.865023 21.345997 10.798041 21.121056 10.904872 20.242575 C 11.286163 19.410364 11.480068 19.327307 12.398492 19.210087 Z"/>
    <path id="path17" fill="#d0b05c" stroke="none" d="M 31.090487 26.757425 C 31.167053 26.910992 31.24362 27.064554 31.322506 27.222773 C 29.816969 29.319967 28.291035 31.136126 25.754061 31.876238 C 25.754061 31.569109 25.754061 31.26198 25.754061 30.945545 C 25.877884 30.902655 26.001703 30.859766 26.129278 30.815575 C 28.221203 29.998945 29.733995 28.522415 31.090487 26.757425 Z"/>
    <path id="path18" fill="#d6b86d" stroke="none" d="M 31.090487 26.757425 C 31.167053 26.910992 31.24362 27.064554 31.322506 27.222773 C 30.786543 27.913813 30.250582 28.604853 29.698376 29.316832 C 29.468678 29.240049 29.238977 29.163267 29.002319 29.084158 C 29.691416 28.316336 30.38051 27.548515 31.090487 26.757425 Z"/>
</svg>
