<svg width="180" height="180" viewBox="0 0 180 180" fill="none" xmlns="http://www.w3.org/2000/svg">
<g clip-path="url(#clip0_3239_79789)">
<path d="M102.73 55.7429L119 71.9997L99.9086 91.0916L83.6451 74.8282L102.73 55.7429Z" fill="#E5E7EB"/>
<path fill-rule="evenodd" clip-rule="evenodd" d="M37.6832 152.317L99.7384 90.2618L83.4749 73.9984L21.413 136.06C18.2889 139.184 18.2899 144.249 21.4154 147.372L26.3672 152.319C29.4926 155.442 34.559 155.441 37.6832 152.317Z" fill="white"/>
<path d="M83.4749 73.9984L99.7384 90.2618M83.4749 73.9984L21.413 136.06M83.4749 73.9984L97.0735 60.3998M99.7384 90.2618L113.344 76.6566M99.7384 90.2618L37.6832 152.317M108.39 60.3975L113.341 65.3452M108.39 60.3975C105.264 57.2746 100.198 57.2756 97.0735 60.3998M108.39 60.3975V60.3975C105.264 57.2746 100.198 57.2756 97.0735 60.3998V60.3998M113.341 65.3452C116.467 68.4681 116.468 73.5324 113.344 76.6566M113.341 65.3452V65.3452C116.467 68.4681 116.468 73.5324 113.344 76.6566V76.6566M37.6832 152.317C34.559 155.441 29.4926 155.442 26.3672 152.319M37.6832 152.317V152.317C34.559 155.441 29.4926 155.442 26.3672 152.319V152.319M26.3672 152.319L21.4154 147.372M21.4154 147.372C18.2899 144.249 18.2889 139.184 21.413 136.06M21.4154 147.372V147.372C18.2899 144.249 18.2888 139.184 21.413 136.06V136.06" stroke="#6B7280" stroke-width="6" stroke-linecap="round" stroke-linejoin="round"/>
<path d="M118 107L117.969 93.9997" stroke="#6B7280" stroke-width="6" stroke-linecap="round"/>
<path d="M142 93.9996L131.072 85.2482" stroke="#6B7280" stroke-width="6" stroke-linecap="round"/>
<path d="M152 65.9996L138 65.9661" stroke="#6B7280" stroke-width="6" stroke-linecap="round"/>
<path d="M68 56.9996L81 57.0308" stroke="#6B7280" stroke-width="6" stroke-linecap="round"/>
<path d="M81 32.9996L89.7515 43.9272" stroke="#6B7280" stroke-width="6" stroke-linecap="round"/>
<path d="M109 21.9998L109.034 35.9998" stroke="#6B7280" stroke-width="6" stroke-linecap="round"/>
<path d="M136 39.9998L126.101 49.8993" stroke="#6B7280" stroke-width="6" stroke-linecap="round"/>
</g>
<defs>
<clipPath id="clip0_3239_79789">
<rect width="180" height="180" fill="white"/>
</clipPath>
</defs>
</svg>
