<svg width="24" height="24" viewBox="0 0 24 24" fill="none" xmlns="http://www.w3.org/2000/svg">
<path d="M5 19C4.44772 19 4 18.5523 4 18C4 17.4477 4.44772 17 5 17H6V10C6 8.61667 6.41667 7.38734 7.25 6.312C8.08333 5.23667 9.16667 4.53267 10.5 4.2V3.5C10.5 3.08334 10.646 2.729 10.938 2.437C11.23 2.145 11.584 1.99934 12 2C12.4167 2 12.771 2.146 13.063 2.438C13.355 2.73 13.5007 3.084 13.5 3.5V4.2C14.8333 4.53334 15.9167 5.23767 16.75 6.313C17.5833 7.38834 18 8.61734 18 10V17H19C19.5523 17 20 17.4477 20 18C20 18.5523 19.5523 19 19 19H5ZM12 22C11.45 22 10.979 21.804 10.587 21.412C10.195 21.02 9.99933 20.5493 10 20H14C14 20.55 13.804 21.021 13.412 21.413C13.02 21.805 12.5493 22.0007 12 22ZM8 17H16V10C16 8.9 15.6083 7.95834 14.825 7.175C14.0417 6.39167 13.1 6 12 6C10.9 6 9.95833 6.39167 9.175 7.175C8.39167 7.95834 8 8.9 8 10V17Z" fill="black"/>
</svg>
