<svg width="180" height="180" viewBox="0 0 180 180" fill="none" xmlns="http://www.w3.org/2000/svg">
<rect x="18" y="15" width="144" height="150" rx="22.7368" fill="white" stroke="#6B7280" stroke-width="5.68421"/>
<path d="M110 39.9235V15H70V40.2528C70 45.4688 70 48.0768 70.947 49.5558C72.1101 51.3724 74.1587 52.4248 76.3128 52.3124C78.0667 52.2208 80.1867 50.7019 84.4268 47.6642C86.1381 46.4382 86.9938 45.8251 87.9138 45.5374C89.047 45.1831 90.2598 45.1729 91.3987 45.5082C92.3234 45.7803 93.1893 46.3789 94.921 47.576L95.1306 47.7209C99.8425 50.9782 102.199 52.6069 104.156 52.5561C106.016 52.5079 107.748 51.5994 108.845 50.0968C110 48.5159 110 45.6517 110 39.9235Z" fill="#E5E7EB" stroke="#6B7280" stroke-width="5.68421"/>
<path d="M67.9388 90.6175C68.2266 86.7644 68.9441 82.6419 72.2914 80.7118C72.812 80.4117 73.3342 80.12 73.8463 79.8407C77.1808 78.0225 80.9792 79.297 84.3922 80.9632C86.298 81.8937 88.3858 82.3759 90.5003 82.3742C92.6149 82.3759 94.7027 81.8937 96.6085 80.9632C99.95 79.3318 103.754 78.3187 106.961 80.2014L108.492 81.1002C111.743 83.0092 112.781 86.8541 113.062 90.6139C113.222 92.7534 113.854 94.8288 114.912 96.6862C115.968 98.5471 117.423 100.142 119.169 101.353C122.226 103.473 125 106.261 125 109.981V111.408C125 115.574 122.353 119.196 118.886 121.506C117.251 122.595 115.716 123.898 114.912 125.31C113.853 127.168 113.221 129.244 113.061 131.384C112.78 135.145 111.742 138.991 108.489 140.9L106.961 141.797C103.754 143.679 99.9499 142.666 96.608 141.035C94.7022 140.105 92.6146 139.624 90.5003 139.626C88.3858 139.624 86.298 140.106 84.3922 141.037C81.0505 142.668 77.2465 143.682 74.0393 141.8L72.5114 140.903C69.259 138.994 68.2205 135.149 67.9397 131.388C67.7798 129.248 67.1472 127.172 66.0888 125.314C65.0327 123.454 63.5773 121.859 61.8308 120.649C58.8372 118.574 56.0004 115.634 56.001 111.991C56.0011 111.34 56.0012 110.682 56.0013 110.017C56.0017 106.375 58.838 103.433 61.8313 101.357C63.5779 100.146 65.0331 98.5507 66.0888 96.6898C67.1467 94.8324 67.779 92.757 67.9388 90.6175ZM95.7858 120.294C96.9977 119.594 98.0613 118.658 98.9154 117.539C99.7696 116.42 100.397 115.141 100.763 113.775C101.128 112.409 101.223 110.983 101.044 109.579C100.864 108.175 100.413 106.821 99.7156 105.595C99.0185 104.37 98.0896 103.296 96.9822 102.436C95.8747 101.576 94.6108 100.947 93.263 100.585C91.9152 100.223 90.5103 100.136 89.129 100.328C87.7478 100.519 86.4176 100.987 85.2149 101.703C82.8068 103.136 81.0549 105.479 80.3414 108.219C79.6279 110.959 80.0108 113.875 81.4065 116.33C82.8023 118.784 85.0975 120.579 87.7914 121.322C90.4853 122.064 93.3591 121.695 95.7858 120.294Z" fill="#E5E7EB" stroke="#6B7280" stroke-width="5.68421"/>
</svg>
