<svg width="120" height="120" viewBox="0 0 120 120" fill="none" xmlns="http://www.w3.org/2000/svg">
<rect width="120" height="120" fill="white"/>
<path d="M60 15L86.7057 63.5C86.8995 64.1526 87 64.8204 87 65.5C87 72.9558 74.9117 79 60 79C45.0883 79 33 72.9558 33 65.5C33 64.8204 33.1005 64.1526 33.2943 63.5L60 15Z" fill="#E5E7EB"/>
<path d="M38 63.5C40.1667 67.1667 48 74 62 72" stroke="white" stroke-linecap="round"/>
<path d="M66 34L81.4 62M82.5 64L82.2 63.4546" stroke="white" stroke-linecap="round"/>
<path d="M64.131 13.5175C63.8645 13.4451 63.5898 13.6025 63.5175 13.869L62.3383 18.2117C62.266 18.4782 62.4233 18.7529 62.6898 18.8253C62.9563 18.8977 63.231 18.7403 63.3034 18.4738L64.3515 14.6135L68.2117 15.6617C68.4782 15.734 68.7529 15.5767 68.8253 15.3102C68.8977 15.0437 68.7403 14.769 68.4738 14.6966L64.131 13.5175ZM91.369 62.4825C91.6355 62.5549 91.9102 62.3975 91.9825 62.131L93.1617 57.7883C93.234 57.5218 93.0767 57.2471 92.8102 57.1747C92.5437 57.1023 92.269 57.2597 92.1966 57.5262L91.1485 61.3865L87.2883 60.3383C87.0218 60.266 86.7471 60.4233 86.6747 60.6898C86.6024 60.9563 86.7597 61.231 87.0262 61.3034L91.369 62.4825ZM63.5662 14.2486L91.0662 62.2486L91.9338 61.7514L64.4338 13.7514L63.5662 14.2486Z" fill="#E5E7EB"/>
<path d="M29.9504 66.7831C29.8306 66.5343 29.5318 66.4297 29.283 66.5495L25.2285 68.5016C24.9797 68.6214 24.8751 68.9202 24.9949 69.1691C25.1147 69.4179 25.4135 69.5224 25.6623 69.4027L29.2663 67.6674L31.0016 71.2714C31.1213 71.5202 31.4202 71.6248 31.669 71.505C31.9178 71.3852 32.0223 71.0864 31.9026 70.8376L29.9504 66.7831ZM92.4902 69.4019C92.436 69.1312 92.1726 68.9556 91.9018 69.0097L87.4892 69.8922C87.2184 69.9464 87.0428 70.2098 87.097 70.4806C87.1511 70.7514 87.4145 70.927 87.6853 70.8728L91.6076 70.0883L92.3921 74.0107C92.4463 74.2815 92.7097 74.4571 92.9805 74.4029C93.2512 74.3487 93.4268 74.0853 93.3727 73.8146L92.4902 69.4019ZM77.9999 80.236L77.8176 79.7704L77.9999 80.236ZM29.028 66.8348C28.1906 69.2274 29.4113 71.9401 31.842 74.4075C34.2962 76.8989 38.0981 79.2709 42.7792 81.0468C52.1463 84.6004 65.1403 85.8068 78.1821 80.7016L77.8176 79.7704C65.0365 84.7735 52.3008 83.5895 43.1339 80.1118C38.548 78.372 34.8817 76.0682 32.5544 73.7057C30.2036 71.3193 29.3296 69.0002 29.9718 67.1652L29.028 66.8348ZM78.1821 80.7016C80.5898 79.7592 83.3786 78.1762 85.9431 76.2637C88.5054 74.3529 90.8734 72.0911 92.4159 69.7774L91.5839 69.2226C90.1263 71.4089 87.8535 73.5917 85.3453 75.4621C82.8393 77.3309 80.1281 78.866 77.8176 79.7704L78.1821 80.7016Z" fill="#E5E7EB"/>
</svg>
