<svg width="180" height="180" viewBox="0 0 180 180" fill="none" xmlns="http://www.w3.org/2000/svg">
<rect x="18" y="19" width="144" height="143" rx="24" fill="white" stroke="#6B7280" stroke-width="6"/>
<path d="M56.3594 68.2021L55.9335 67.4838C54.3589 64.8282 50.5014 64.869 48.9833 67.5573C42.6404 78.7896 26.3128 78.3394 20.5984 66.7746L19.7649 65.0877C18.6039 62.7381 18 60.1526 18 57.5319V43C18 29.7452 28.7452 19 42 19H138C151.255 19 162 29.7452 162 43V57.7374C162 60.2246 161.441 62.6801 160.365 64.9224L159.382 66.9698C153.95 78.286 138.001 78.7309 131.947 67.7351C130.471 65.0551 126.612 65.0761 125.166 67.7721L124.896 68.2751C118.795 79.6474 102.644 80.0771 95.9466 69.0453L95.1313 67.7023C93.4206 64.8843 89.331 64.8843 87.6203 67.7023L87.2197 68.3623C80.1702 79.9747 63.2879 79.8871 56.3594 68.2021Z" fill="#E5E7EB" stroke="#6B7280" stroke-width="6" stroke-linecap="round"/>
<path d="M72.5161 101.014C72.746 97.892 73.3237 94.5564 76.0272 92.9779C76.4241 92.7462 76.8218 92.5208 77.2123 92.3047C79.8699 90.8335 82.9093 91.8571 85.6312 93.2056V93.2056C87.1503 93.9581 88.8145 94.3482 90.5001 94.3468C92.1856 94.3482 93.8498 93.9581 95.3689 93.2056V93.2056C98.0325 91.886 101.076 91.0733 103.63 92.5947L104.795 93.289C107.419 94.8524 108.26 97.9649 108.484 101.011V101.011C108.611 102.742 109.115 104.42 109.959 105.923C110.8 107.428 111.96 108.718 113.352 109.698V109.698C115.784 111.409 118 113.639 118 116.612V117.834C118 121.204 115.864 124.135 113.078 126.03C111.793 126.905 110.592 127.946 109.959 129.074C109.115 130.577 108.611 132.256 108.483 133.987V133.987C108.259 137.034 107.418 140.148 104.793 141.711L103.63 142.404C101.076 143.924 98.0324 143.112 95.3685 141.793V141.793C93.8494 141.041 92.1854 140.651 90.5001 140.653C88.8145 140.652 87.1503 141.042 85.6312 141.794V141.794C82.9675 143.114 79.924 143.927 77.3698 142.406L76.2069 141.714C73.5817 140.151 72.741 137.037 72.5168 133.99V133.99C72.3894 132.259 71.8851 130.58 71.0414 129.077C70.1996 127.573 69.0395 126.283 67.6474 125.304V125.304C65.266 123.629 62.9999 121.276 63.0004 118.365C63.0005 117.797 63.0006 117.222 63.0006 116.642C63.001 113.731 65.2667 111.376 67.6478 109.701V109.701C69.04 108.721 70.2 107.431 71.0414 105.926C71.8847 104.423 72.3887 102.745 72.5161 101.014V101.014Z" stroke="#6B7280" stroke-width="6"/>
<rect x="81.3333" y="109.25" width="16.5" height="16.5" rx="8.25" fill="#E5E7EB" stroke="#6B7280" stroke-width="6"/>
</svg>
