<svg width="180" height="180" viewBox="0 0 180 180" fill="none" xmlns="http://www.w3.org/2000/svg">
<rect x="18" y="19" width="144" height="143" rx="24" fill="white" stroke="#6B7280" stroke-width="6"/>
<path d="M56.3594 68.2021L55.9335 67.4838C54.3589 64.8282 50.5014 64.869 48.9833 67.5573C42.6404 78.7896 26.3128 78.3394 20.5984 66.7746L19.7649 65.0877C18.6039 62.7381 18 60.1526 18 57.5319V43C18 29.7452 28.7452 19 42 19H138C151.255 19 162 29.7452 162 43V57.7374C162 60.2246 161.441 62.6801 160.365 64.9224L159.382 66.9698C153.95 78.286 138.001 78.7309 131.947 67.7351C130.471 65.0551 126.612 65.0761 125.166 67.7721L124.896 68.2751C118.795 79.6474 102.644 80.0771 95.9466 69.0453L95.1313 67.7023C93.4206 64.8843 89.331 64.8843 87.6203 67.7023L87.2197 68.3623C80.1702 79.9747 63.2879 79.8871 56.3594 68.2021Z" fill="#E5E7EB" stroke="#6B7280" stroke-width="6" stroke-linecap="round"/>
<path d="M89.2222 143L89.2222 124.078C89.2222 117.635 83.9989 112.412 77.5556 112.412V112.412M89.2222 143L77 143M89.2222 143L102 143" stroke="#6B7280" stroke-width="6" stroke-linecap="round"/>
<ellipse cx="89.5" cy="97.6274" rx="6.5" ry="6.62745" fill="#E5E7EB" stroke="#6B7280" stroke-width="6"/>
</svg>
