<svg width="180" height="180" viewBox="0 0 180 180" fill="none" xmlns="http://www.w3.org/2000/svg">
<path d="M67.7369 17.8421H113.263C124.251 17.8421 133.158 26.7493 133.158 37.7368V59.5312V78.75V92.1495C133.158 98.0092 128.408 102.759 122.548 102.759C113.549 102.759 106.254 110.055 106.254 119.054V146.195C106.254 155.011 99.107 162.158 90.2911 162.158C81.4751 162.158 74.3284 155.011 74.3284 146.195V118.845C74.3284 109.961 67.1268 102.759 58.2431 102.759C52.4988 102.759 47.8421 98.1027 47.8421 92.3584L47.8421 78.2149L47.8421 56.7188L47.8421 37.7368C47.8421 26.7493 56.7493 17.8421 67.7369 17.8421Z" fill="white" stroke="#6B7280" stroke-width="5.68421"/>
<path d="M120.096 47.1768L122.488 48.7103L120.096 47.1768L116.737 52.4175C114.693 55.6068 110.092 55.7713 107.826 52.7361L103.385 46.7895C96.8415 38.0262 83.4852 38.7522 77.9299 48.1731L76.3375 50.8736C73.7592 55.2459 67.7712 56.0573 64.1223 52.5289L59.7607 48.3112C57.0912 45.7299 52.8773 45.6616 50.1256 48.155C49.2475 48.9507 47.8421 48.3276 47.8421 47.1427L47.8421 27.3146C47.8421 22.0831 52.0831 17.8421 57.3146 17.8421H126.054C129.977 17.8421 133.158 21.0225 133.158 24.9458V46.4405C133.158 47.5417 131.731 47.9759 131.118 47.0615C128.474 43.1201 122.656 43.181 120.096 47.1768Z" fill="#E5E7EB" stroke="#6B7280" stroke-width="5.68421"/>
<rect x="84" y="136" width="13" height="13" rx="6.5" fill="#E5E7EB" stroke="#6B7280" stroke-width="5.68421"/>
</svg>
