<svg width="120" height="120" viewBox="0 0 120 120" fill="none" xmlns="http://www.w3.org/2000/svg">
<path d="M46.1905 33L30.0102 59.9727C22.8818 71.8558 19.3176 77.7974 18.629 82.5797C17.0715 93.3974 23.0193 103.901 33.0971 108.13C37.5524 110 44.481 110 58.3381 110C72.8747 110 80.143 110 84.6828 108.048C94.9632 103.627 100.824 92.6873 98.809 81.6794C97.9194 76.8183 93.8928 70.7673 85.8396 58.6655L85.8396 58.6653L68.7607 33H46.1905Z" fill="white" stroke="#6B7280" stroke-width="4"/>
<path d="M48 81C48 85.4183 50.9848 89 54.6667 89H61.3333C65.0152 89 68 85.4183 68 81C68 76.5817 65.0152 73 61.3333 73H54.6667C50.9848 73 48 69.4183 48 65C48 60.5817 50.9848 57 54.6667 57H61.3333C65.0152 57 68 60.5817 68 65M58 53V93" stroke="#6B7280" stroke-width="4" stroke-linecap="round" stroke-linejoin="round"/>
<path d="M41.0433 22.9005L44.5769 33H58.0769H69.5L72.2489 21.5174C72.8821 18.8723 69.9659 16.8069 67.6809 18.282C66.2254 19.2215 64.2794 18.7444 63.4237 17.2382L62.0517 14.8235C59.8662 10.977 54.3051 11.0295 52.1927 14.9165L51.1425 16.8489C50.1854 18.61 48.0001 19.2889 46.2136 18.3802C43.2406 16.868 39.9417 19.7521 41.0433 22.9005Z" fill="#E5E7EB" stroke="#6B7280" stroke-width="4"/>
</svg>
