<svg width="120" height="120" viewBox="0 0 120 120" fill="none" xmlns="http://www.w3.org/2000/svg">
<path d="M21 45.2616C21 38.5105 21 35.1349 21.6745 32.3503C23.7908 23.6128 30.6128 16.7908 39.3503 14.6745C42.1349 14 45.5105 14 52.2616 14H65.7384C72.4895 14 75.8651 14 78.6497 14.6745C87.3872 16.7908 94.2092 23.6128 96.3255 32.3503C97 35.1349 97 38.5105 97 45.2616V92.4631C97 99.5495 88.8155 103.502 83.2658 99.0953C80.1822 96.6469 75.8178 96.6469 72.7342 99.0953L68.5 102.457C62.9368 106.874 55.0632 106.874 49.5 102.457L45.2658 99.0953C42.1822 96.6469 37.8178 96.6469 34.7342 99.0953C29.1845 103.502 21 99.5495 21 92.4631V45.2616Z" fill="white" stroke="#6B7280" stroke-width="4"/>
<path d="M50.2699 38.8852C49.5964 33.6424 53.6805 29 58.9665 29C64.2759 29 68.3669 33.6815 67.6554 38.943L65.1392 57.5508C64.7171 60.6717 62.0529 63 58.9035 63C55.7383 63 53.0658 60.6488 52.6625 57.5094L50.2699 38.8852Z" fill="white" stroke="#6B7280" stroke-width="4"/>
<rect x="52" y="71" width="15" height="15" rx="7.5" fill="#E5E7EB" stroke="#6B7280" stroke-width="4"/>
</svg>
