<svg version="1.1" id="Layer_1" xmlns="http://www.w3.org/2000/svg" x="0" y="0" viewBox="0 0 28 28" xml:space="preserve"><style></style><path d="M17.7 13.9c1.3-1.1 2.1-2.7 2.1-4.5 0-3.2-2.6-5.8-5.8-5.8S8.2 6.2 8.2 9.4c0 1.8.8 3.4 2.1 4.5-3.9 1.5-6.6 5.2-6.6 9.6 0 .6.4 1 1 1s1-.4 1-1c0-3.2 1.9-6.1 4.6-7.4l2.6 2.1v3.4c0 .6.4 1 1 1s1-.4 1-1v-3.5l2.4-2.2c2.8 1.3 4.8 4.2 4.8 7.5 0 .6.4 1 1 1s1-.4 1-1c.2-4.3-2.6-8.1-6.4-9.5zm-7.5-4.5c0-2.1 1.7-3.8 3.8-3.8s3.8 1.7 3.8 3.8-1.7 3.8-3.8 3.8-3.8-1.7-3.8-3.8zm3.8 6.9l-1.3-1.1c.4-.1.9-.1 1.4-.1.4 0 .8 0 1.2.1L14 16.3z"/></svg>