<svg version="1.0" xmlns="http://www.w3.org/2000/svg"
 width="150.000000pt" height="34.000000pt" viewBox="0 0 150.000000 34.000000"
 preserveAspectRatio="xMidYMid meet">

<g transform="translate(0.000000,34.000000) scale(0.100000,-0.100000)"
fill="#000000" stroke="none">
<path d="M139 325 c-56 -15 -71 -23 -64 -36 4 -5 14 -5 26 2 12 6 23 8 26 5
10 -9 -59 -136 -93 -173 -38 -40 -40 -43 -20 -43 23 0 67 60 108 148 30 63 44
82 59 82 19 0 20 -4 14 -42 -4 -24 -16 -71 -27 -106 -20 -65 -20 -103 0 -66 6
11 22 62 37 113 25 88 25 94 9 112 -9 11 -20 19 -23 18 -3 0 -27 -7 -52 -14z"/>
<path d="M553 312 c-44 -5 -55 -22 -57 -96 -1 -47 -6 -70 -19 -83 -16 -16 -17
-16 -17 3 0 11 7 29 15 40 17 22 19 34 5 34 -11 0 -35 -36 -44 -66 -4 -14 -1
-28 11 -39 16 -17 18 -16 46 15 27 31 29 38 24 91 -6 64 3 79 44 79 15 0 30 4
34 9 8 13 -5 17 -42 13z"/>
<path d="M1300 310 c0 -5 8 -10 18 -10 26 0 42 -20 42 -52 0 -23 -4 -28 -24
-28 -53 0 -92 -109 -43 -118 62 -12 119 156 69 201 -20 19 -62 23 -62 7z m50
-124 c0 -16 -38 -66 -51 -66 -14 0 -11 33 7 58 17 24 44 30 44 8z"/>
<path d="M1001 264 l-20 -25 -21 21 c-25 25 -66 21 -87 -7 -19 -24 -16 -46 10
-81 12 -16 36 -48 52 -71 17 -22 33 -40 36 -41 17 -1 106 69 126 99 44 65 21
131 -45 131 -21 0 -37 -8 -51 -26z m97 4 c18 -18 14 -69 -8 -106 -11 -18 -41
-46 -66 -62 l-47 -29 -41 46 c-69 77 -80 109 -48 134 15 13 16 12 3 -3 -20
-26 -7 -61 43 -117 l44 -50 46 29 c52 33 79 77 74 123 -3 28 -7 32 -38 35 -24
3 -38 -2 -47 -14 -7 -10 -13 -13 -13 -8 0 19 24 34 55 34 17 0 36 -5 43 -12z
m-128 -28 c11 -11 16 -20 12 -20 -5 0 -17 9 -27 20 -10 11 -15 20 -12 20 4 0
16 -9 27 -20z"/>
<path d="M270 213 c0 -10 -7 -31 -15 -47 -8 -15 -15 -37 -15 -47 0 -31 18 -30
29 1 12 35 51 43 51 11 0 -42 59 -39 78 4 34 75 -9 123 -59 65 -32 -38 -63
-41 -49 -6 9 24 5 36 -12 36 -4 0 -8 -8 -8 -17z m120 -35 c0 -22 -26 -58 -42
-58 -14 0 -9 44 8 68 18 26 34 21 34 -10z"/>
<path d="M686 201 c-20 -39 -32 -111 -18 -111 6 0 12 12 14 27 4 31 28 44 28
15 0 -48 50 -45 89 4 50 63 -2 113 -60 58 -31 -30 -47 -28 -30 5 7 12 7 22 1
26 -5 3 -16 -8 -24 -24z m114 -15 c0 -17 -48 -76 -61 -76 -16 0 -10 37 12 64
22 28 49 35 49 12z"/>
<path d="M1176 200 c-28 -34 -32 -51 -16 -81 13 -22 52 -25 70 -4 10 12 6 13
-24 8 -32 -5 -36 -3 -36 16 0 15 6 21 23 21 32 0 60 23 55 46 -6 32 -42 29
-72 -6z m54 0 c0 -13 -28 -25 -38 -16 -3 4 0 11 8 16 20 13 30 12 30 0z"/>
<path d="M1406 183 c-14 -40 -14 -49 -2 -61 11 -11 18 -12 36 -2 20 11 21 10
15 -12 -12 -40 -36 -69 -67 -82 -18 -8 -26 -16 -19 -20 18 -11 63 16 83 50 10
17 22 53 28 80 5 27 12 59 16 72 3 12 2 22 -3 22 -6 0 -15 -18 -22 -40 -6 -22
-21 -45 -33 -51 -19 -10 -20 -9 -15 17 3 16 8 39 12 52 14 44 -13 21 -29 -25z"/>
<path d="M567 209 c13 -13 1 -53 -24 -82 -9 -9 -14 -20 -10 -23 11 -11 29 8
49 52 10 24 23 44 28 44 12 0 12 -7 0 -50 -5 -19 -6 -38 -1 -43 4 -4 14 12 21
37 15 55 4 76 -43 76 -23 0 -28 -3 -20 -11z"/>
</g>
</svg>
