<?xml version="1.0" standalone="no"?>
<!DOCTYPE svg PUBLIC "-//W3C//DTD SVG 20010904//EN"
 "http://www.w3.org/TR/2001/REC-SVG-20010904/DTD/svg10.dtd">
<svg version="1.0" xmlns="http://www.w3.org/2000/svg"
 width="512.000000pt" height="512.000000pt" viewBox="0 0 512.000000 512.000000"
 preserveAspectRatio="xMidYMid meet">

<g transform="translate(0.000000,512.000000) scale(0.100000,-0.100000)"
fill="#000000" stroke="none">
<path d="M1350 5000 c-81 -11 -147 -61 -181 -135 -16 -35 -19 -69 -19 -292 l0
-251 -172 -57 c-95 -32 -191 -68 -214 -81 -52 -30 -111 -94 -138 -153 l-21
-46 -3 -1342 -2 -1343 -33 0 c-53 0 -146 -28 -227 -67 -106 -51 -223 -169
-274 -275 -57 -119 -66 -179 -66 -453 0 -213 3 -245 19 -281 23 -51 72 -90
131 -103 63 -15 4757 -15 4820 0 59 13 108 52 131 103 17 37 19 70 19 341 0
327 -4 363 -58 473 -33 69 -128 167 -198 204 -71 38 -155 58 -246 58 l-78 0 0
633 c0 686 0 689 -55 760 -14 20 -50 47 -78 62 l-51 25 -683 0 -683 0 0 937 0
938 88 -86 c48 -47 179 -175 292 -283 113 -109 213 -212 222 -229 16 -29 17
-80 18 -525 l0 -493 25 -24 c31 -32 74 -33 104 -2 l22 24 -3 514 -3 514 -27
55 c-23 47 -89 116 -394 410 -201 195 -379 361 -394 369 -27 13 -65 2 -669
-201 l-641 -214 0 151 c0 104 -5 167 -15 201 -34 116 -141 182 -265 164z m75
-156 c21 -10 38 -27 44 -46 6 -17 11 -105 11 -199 l0 -167 -90 -30 -90 -31 0
213 c0 199 1 215 20 239 11 14 30 28 43 30 12 2 24 5 25 6 2 0 19 -6 37 -15z
m1415 -318 l0 -204 -422 -141 c-925 -309 -1242 -419 -1255 -437 -33 -46 0
-114 56 -114 16 0 384 119 818 265 433 146 791 265 796 265 4 0 7 -85 7 -189
l0 -189 -482 -161 c-906 -302 -1181 -398 -1195 -417 -33 -46 0 -114 56 -114
16 0 384 119 819 265 434 146 793 265 796 265 3 0 6 -85 6 -189 l0 -189 -527
-176 c-897 -299 -1136 -383 -1150 -402 -33 -46 0 -114 56 -114 16 0 384 119
819 265 434 146 792 265 795 265 4 0 7 -85 7 -188 l0 -189 -827 -277 c-575
-193 -833 -284 -845 -298 -39 -44 -6 -118 52 -118 15 0 383 119 817 265 434
146 792 265 796 265 4 0 7 -83 7 -185 0 -169 -2 -185 -19 -194 -10 -6 -240
-85 -512 -176 -271 -91 -503 -172 -515 -180 -30 -19 -39 -61 -19 -92 36 -55
24 -58 555 121 271 91 496 166 501 166 5 0 8 -366 7 -867 l-3 -868 -322 -3
-323 -2 0 397 c0 230 -4 413 -10 433 -19 69 -114 129 -179 113 -105 -24 -735
-204 -757 -216 -16 -8 -36 -23 -45 -33 -43 -49 -44 -59 -49 -379 l-5 -310
-195 0 -195 0 -3 1835 -2 1836 22 44 c13 24 35 53 49 63 15 11 395 143 845
294 451 151 896 301 989 333 94 32 173 59 178 59 4 1 7 -91 7 -203z m1524
-1927 l26 -31 0 -651 0 -652 -51 -30 c-154 -90 -248 -260 -249 -447 l0 -58
-550 0 -550 0 0 950 0 950 674 0 674 0 26 -31z m-3764 -1659 l0 -210 -225 0
-225 0 6 28 c25 112 72 199 145 266 79 73 185 122 272 125 l27 1 0 -210z
m4178 177 c119 -62 183 -164 190 -304 l5 -83 -368 0 -368 0 6 79 c6 95 40 177
95 234 81 84 148 108 287 104 86 -3 107 -7 153 -30z m-2740 -463 l-3 -389
-145 0 -145 0 -3 356 -2 355 142 41 c79 22 146 37 151 34 4 -4 6 -182 5 -397z
m-448 -59 l0 -335 -145 0 -145 0 2 297 3 298 130 37 c72 20 136 37 143 37 9 1
12 -72 12 -334z m-990 -175 l0 -160 -199 0 c-110 0 -211 4 -225 10 l-26 10 0
150 0 150 225 0 225 0 0 -160z m3490 0 l0 -160 -550 0 -550 0 0 160 0 160 550
0 550 0 0 -160z m880 18 c0 -79 -5 -150 -10 -158 -8 -13 -59 -15 -362 -15
l-353 0 -3 158 -3 157 366 0 365 0 0 -142z"/>
<path d="M1331 1656 c-93 -31 -159 -59 -167 -71 -33 -45 0 -115 54 -115 39 0
328 98 343 117 7 8 13 31 13 50 0 40 -31 74 -68 72 -11 0 -90 -24 -175 -53z"/>
<path d="M3249 2427 c-52 -35 -59 -58 -59 -195 0 -136 9 -165 60 -196 25 -14
76 -16 433 -16 l404 0 34 23 c49 33 61 79 57 207 -5 121 -19 159 -72 184 -30
14 -84 16 -429 16 -394 0 -394 0 -428 -23z m781 -192 l0 -65 -345 0 -345 0 0
65 0 65 345 0 345 0 0 -65z"/>
<path d="M3249 1857 c-18 -12 -39 -34 -46 -47 -19 -38 -17 -263 2 -300 31 -60
34 -60 484 -60 l409 0 31 26 c41 35 54 88 49 209 -5 116 -20 154 -72 179 -30
14 -84 16 -429 16 -394 0 -394 0 -428 -23z m781 -192 l0 -65 -345 0 -345 0 0
65 0 65 345 0 345 0 0 -65z"/>
<path d="M3249 1283 c-50 -31 -59 -60 -59 -195 0 -138 7 -160 60 -196 34 -22
41 -23 198 -20 l164 3 34 37 34 38 0 130 c0 211 -10 220 -247 220 -128 0 -163
-4 -184 -17z m281 -198 l0 -65 -95 0 -95 0 0 65 0 65 95 0 95 0 0 -65z"/>
</g>
</svg>
