<svg width="60" height="60" viewBox="0 0 60 60" fill="none" xmlns="http://www.w3.org/2000/svg">
<g clip-path="url(#clip0_1659_3447)">
<path d="M12.8668 21.8363C12.2339 22.5794 11.2213 23.1656 10.2087 23.0818C10.0821 22.0771 10.5779 21.0095 11.158 20.3501C11.7909 19.5861 12.8985 19.0419 13.7951 19C13.9005 20.0466 13.4892 21.0723 12.8668 21.8363ZM13.7845 23.2807C12.3183 23.197 11.0631 24.1075 10.3669 24.1075C9.6602 24.1075 8.59485 23.3225 7.43456 23.3435C5.92618 23.3644 4.52329 24.2122 3.75328 25.5623C2.17106 28.2626 3.3419 32.2607 4.87137 34.4586C5.62029 35.5471 6.51687 36.7402 7.69826 36.6984C8.81636 36.6565 9.25937 35.9762 10.6095 35.9762C11.9702 35.9762 12.3605 36.6984 13.5419 36.6774C14.7655 36.6565 15.5355 35.589 16.2844 34.5005C17.1388 33.2655 17.4869 32.0618 17.508 31.999C17.4869 31.9781 15.1452 31.0885 15.1241 28.4091C15.103 26.1694 16.97 25.1018 17.0544 25.039C15.9996 23.49 14.3541 23.3226 13.7845 23.2807ZM22.2546 20.2455V36.5623H24.8073V30.9838H28.3409C31.5686 30.9838 33.8364 28.7859 33.8364 25.6042C33.8364 22.4225 31.6108 20.2455 28.4252 20.2455H22.2546V20.2455ZM24.8073 22.3806H27.7502C29.9653 22.3806 31.231 23.5528 31.231 25.6147C31.231 27.6765 29.9653 28.8592 27.7396 28.8592H24.8073V22.3806V22.3806ZM38.4987 36.6879C40.102 36.6879 41.5892 35.882 42.2643 34.6051H42.3171V36.5623H44.6798V28.4405C44.6798 26.0856 42.7812 24.568 39.8594 24.568C37.1485 24.568 35.1444 26.1066 35.0705 28.2207H37.37C37.5599 27.216 38.4987 26.5566 39.7855 26.5566C41.3466 26.5566 42.2221 27.2788 42.2221 28.608V29.5081L39.0366 29.6965C36.0726 29.8744 34.4693 31.078 34.4693 33.1713C34.4693 35.2854 36.1253 36.6879 38.4987 36.6879ZM39.1843 34.7517C37.8236 34.7517 36.9586 34.1028 36.9586 33.1085C36.9586 32.0828 37.7919 31.4862 39.3847 31.392L42.2221 31.2141V32.1351C42.2221 33.6632 40.9142 34.7517 39.1843 34.7517ZM47.8337 41C50.3231 41 51.4939 40.058 52.5171 37.2008L57 24.725H54.4052L51.399 34.3644H51.3462L48.34 24.725H45.6714L49.9961 36.6042L49.764 37.3264C49.3737 38.5509 48.7409 39.0219 47.6122 39.0219C47.4118 39.0219 47.0215 39.001 46.8633 38.98V40.9372C47.011 40.9791 47.6439 41 47.8337 41Z" fill="black"/>
</g>
<defs>
<clipPath id="clip0_1659_3447">
<rect width="60" height="60" fill="white"/>
</clipPath>
</defs>
</svg>
