<svg width="60" height="60" viewBox="0 0 60 60" fill="none" xmlns="http://www.w3.org/2000/svg">
<g clip-path="url(#clip0_1659_3482)">
<rect x="8" y="21" width="40" height="28" rx="2" transform="rotate(-15 8 21)" fill="#060C3B" fill-opacity="0.1"/>
<path d="M14.0077 27.9678C14.2527 28.8823 15.1927 29.425 16.1072 29.18L18.591 28.5145C19.5055 28.2694 20.0483 27.3294 19.8032 26.4149L19.1377 23.9311C18.8926 23.0166 17.9526 22.4739 17.0381 22.7189L14.5543 23.3844C13.6398 23.6295 13.0971 24.5695 13.3421 25.484L14.0077 27.9678Z" fill="white"/>
<rect x="30.5469" y="20.1328" width="2" height="4" transform="rotate(-15 30.5469 20.1328)" fill="white"/>
<rect x="34.4062" y="19.1016" width="2" height="4" transform="rotate(-15 34.4062 19.1016)" fill="white"/>
<rect x="38.2734" y="18.0625" width="2" height="4" transform="rotate(-15 38.2734 18.0625)" fill="white"/>
<rect x="42.1328" y="17.0312" width="2" height="4" transform="rotate(-15 42.1328 17.0312)" fill="white"/>
<rect x="18.0781" y="43.1484" width="2" height="3" transform="rotate(-105 18.0781 43.1484)" fill="white"/>
<rect x="22.9062" y="41.8516" width="2" height="3" transform="rotate(-105 22.9062 41.8516)" fill="white"/>
<rect x="27.7344" y="40.5625" width="2" height="3" transform="rotate(-105 27.7344 40.5625)" fill="white"/>
<rect x="32.5625" y="39.2656" width="2" height="3" transform="rotate(-105 32.5625 39.2656)" fill="white"/>
<rect x="46.0859" y="35.6406" width="2" height="3" transform="rotate(-105 46.0859 35.6406)" fill="white"/>
</g>
<rect x="10" y="16" width="40" height="28" rx="2" fill="#060C3B"/>
<path d="M14 24.2857C14 25.2325 14.7675 26 15.7143 26H18.2857C19.2325 26 20 25.2325 20 24.2857V21.7143C20 20.7675 19.2325 20 18.2857 20H15.7143C14.7675 20 14 20.7675 14 21.7143V24.2857Z" fill="white"/>
<rect x="32" y="21" width="2" height="4" fill="white"/>
<rect x="36" y="21" width="2" height="4" fill="white"/>
<rect x="40" y="21" width="2" height="4" fill="white"/>
<rect x="44" y="21" width="2" height="4" fill="white"/>
<rect x="14" y="40" width="2" height="3" transform="rotate(-90 14 40)" fill="white"/>
<rect x="19" y="40" width="2" height="3" transform="rotate(-90 19 40)" fill="white"/>
<rect x="24" y="40" width="2" height="3" transform="rotate(-90 24 40)" fill="white"/>
<rect x="29" y="40" width="2" height="3" transform="rotate(-90 29 40)" fill="white"/>
<rect x="43" y="40" width="2" height="3" transform="rotate(-90 43 40)" fill="white"/>
<defs>
<clipPath id="clip0_1659_3482">
<rect x="8" y="21" width="40" height="28" rx="2" transform="rotate(-15 8 21)" fill="white"/>
</clipPath>
</defs>
</svg>
