<svg width="24" height="24" viewBox="0 0 24 24" fill="none" xmlns="http://www.w3.org/2000/svg">
<rect x="2" y="4" width="20" height="17" rx="2" stroke="#8184AB" stroke-width="2"/>
<path d="M7 2V6" stroke="#8184AB" stroke-width="2" stroke-linecap="round"/>
<path d="M17 2V6" stroke="#8184AB" stroke-width="2" stroke-linecap="round"/>
<mask id="path-4-inside-1_705_8554" fill="white">
<rect x="9" y="8" width="3" height="3" rx="1"/>
</mask>
<rect x="9" y="8" width="3" height="3" rx="1" fill="#8184AB" stroke="#8184AB" stroke-width="3" mask="url(#path-4-inside-1_705_8554)"/>
<mask id="path-5-inside-2_705_8554" fill="white">
<rect x="13" y="8" width="3" height="3" rx="1"/>
</mask>
<rect x="13" y="8" width="3" height="3" rx="1" fill="#8184AB" stroke="#8184AB" stroke-width="3" mask="url(#path-5-inside-2_705_8554)"/>
<mask id="path-6-inside-3_705_8554" fill="white">
<rect x="17" y="8" width="3" height="3" rx="1"/>
</mask>
<rect x="17" y="8" width="3" height="3" rx="1" fill="#8184AB" stroke="#8184AB" stroke-width="3" mask="url(#path-6-inside-3_705_8554)"/>
<mask id="path-7-inside-4_705_8554" fill="white">
<rect x="5" y="12" width="3" height="3" rx="1"/>
</mask>
<rect x="5" y="12" width="3" height="3" rx="1" fill="#8184AB" stroke="#8184AB" stroke-width="3" mask="url(#path-7-inside-4_705_8554)"/>
<mask id="path-8-inside-5_705_8554" fill="white">
<rect x="9" y="12" width="3" height="3" rx="1"/>
</mask>
<rect x="9" y="12" width="3" height="3" rx="1" fill="#8184AB" stroke="#8184AB" stroke-width="3" mask="url(#path-8-inside-5_705_8554)"/>
<mask id="path-9-inside-6_705_8554" fill="white">
<rect x="13" y="12" width="3" height="3" rx="1"/>
</mask>
<rect x="13" y="12" width="3" height="3" rx="1" fill="#8184AB" stroke="#8184AB" stroke-width="3" mask="url(#path-9-inside-6_705_8554)"/>
<mask id="path-10-inside-7_705_8554" fill="white">
<rect x="17" y="12" width="3" height="3" rx="1"/>
</mask>
<rect x="17" y="12" width="3" height="3" rx="1" fill="#8184AB" stroke="#8184AB" stroke-width="3" mask="url(#path-10-inside-7_705_8554)"/>
<mask id="path-11-inside-8_705_8554" fill="white">
<rect x="5" y="16" width="3" height="3" rx="1"/>
</mask>
<rect x="5" y="16" width="3" height="3" rx="1" fill="#8184AB" stroke="#8184AB" stroke-width="3" mask="url(#path-11-inside-8_705_8554)"/>
<mask id="path-12-inside-9_705_8554" fill="white">
<rect x="9" y="16" width="3" height="3" rx="1"/>
</mask>
<rect x="9" y="16" width="3" height="3" rx="1" fill="#8184AB" stroke="#8184AB" stroke-width="3" mask="url(#path-12-inside-9_705_8554)"/>
</svg>
