<svg width="18" height="18" viewBox="0 0 18 18" fill="none" xmlns="http://www.w3.org/2000/svg">
<path d="M5.9879 14.4948C5.9879 14.4204 5.91532 14.3461 5.80645 14.3461C5.69758 14.3461 5.625 14.4204 5.625 14.4948C5.625 14.5691 5.69758 14.6434 5.80645 14.6063C5.91532 14.6063 5.9879 14.5691 5.9879 14.4948ZM4.8629 14.3089C4.8629 14.3833 4.93548 14.4948 5.04435 14.4948C5.11694 14.5319 5.22581 14.4948 5.2621 14.4204C5.2621 14.3461 5.22581 14.2718 5.11694 14.2346C5.00806 14.1974 4.89919 14.2346 4.8629 14.3089ZM6.49597 14.2718C6.3871 14.2718 6.31452 14.3461 6.31452 14.4576C6.31452 14.5319 6.42339 14.5691 6.53226 14.5319C6.64113 14.4948 6.71371 14.4576 6.67742 14.3833C6.67742 14.3089 6.56855 14.2346 6.49597 14.2718ZM8.85484 0C3.84677 0 0 3.9396 0 9.06851C0 13.1939 2.50403 16.7247 6.13306 17.9884C6.60484 18.0627 6.75 17.7654 6.75 17.5424C6.75 17.2822 6.75 16.0186 6.75 15.2381C6.75 15.2381 4.20968 15.7956 3.66532 14.1231C3.66532 14.1231 3.26613 13.0453 2.68548 12.7851C2.68548 12.7851 1.85081 12.1905 2.72177 12.1905C2.72177 12.1905 3.62903 12.2648 4.1371 13.1568C4.93548 14.6063 6.24194 14.1974 6.78629 13.9373C6.85887 13.3426 7.07661 12.9338 7.36694 12.6736C5.33468 12.4506 3.26613 12.1533 3.26613 8.58535C3.26613 7.5447 3.55645 7.06155 4.1371 6.39256C4.02823 6.1324 3.7379 5.16608 4.24597 3.86527C4.97177 3.64227 6.75 4.86875 6.75 4.86875C7.47581 4.64575 8.2379 4.57142 9 4.57142C9.79839 4.57142 10.5605 4.64575 11.2863 4.86875C11.2863 4.86875 13.0282 3.60511 13.7903 3.86527C14.2984 5.16608 13.9718 6.1324 13.8992 6.39256C14.4798 7.06155 14.8427 7.5447 14.8427 8.58535C14.8427 12.1533 12.7016 12.4506 10.6694 12.6736C10.996 12.9709 11.2863 13.5284 11.2863 14.4204C11.2863 15.6469 11.25 17.2079 11.25 17.5052C11.25 17.7654 11.4315 18.0627 11.9032 17.9512C15.5323 16.7247 18 13.1939 18 9.06851C18 3.9396 13.8992 0 8.85484 0ZM3.52016 12.8223C3.44758 12.8594 3.48387 12.9709 3.52016 13.0453C3.59274 13.0824 3.66532 13.1196 3.7379 13.0824C3.77419 13.0453 3.77419 12.9338 3.70161 12.8594C3.62903 12.8223 3.55645 12.7851 3.52016 12.8223ZM3.12097 12.525C3.08468 12.5993 3.12097 12.6365 3.19355 12.6736C3.26613 12.7108 3.33871 12.7108 3.375 12.6365C3.375 12.5993 3.33871 12.5621 3.26613 12.525C3.19355 12.4878 3.15726 12.4878 3.12097 12.525ZM4.28226 13.8629C4.24597 13.9001 4.24597 14.0116 4.35484 14.0859C4.42742 14.1603 4.53629 14.1974 4.57258 14.1231C4.60887 14.0859 4.60887 13.9744 4.53629 13.9001C4.46371 13.8258 4.35484 13.7886 4.28226 13.8629ZM3.88306 13.3054C3.81048 13.3426 3.81048 13.4541 3.88306 13.5284C3.95565 13.6028 4.02823 13.6399 4.10081 13.6028C4.1371 13.5656 4.1371 13.4541 4.10081 13.3798C4.02823 13.3054 3.95565 13.2683 3.88306 13.3054Z" fill="white"/>
</svg>
