<svg width="18" height="18" viewBox="0 0 18 18" fill="none" xmlns="http://www.w3.org/2000/svg">
<path fill-rule="evenodd" clip-rule="evenodd" d="M9 18C13.9706 18 18 13.9706 18 9C18 4.02944 13.9706 0 9 0C4.02944 0 0 4.02944 0 9C0 13.9706 4.02944 18 9 18ZM14.9099 8.20562C14.9561 8.50041 15 8.77964 15 9.14516C15 12.5806 12.6148 15 9.09836 15C5.70492 15 3 12.3387 3 9C3 5.68548 5.70492 3 9.09836 3C10.7213 3 12.123 3.60484 13.1803 4.57258L11.5082 6.14516C9.34426 4.08871 5.31148 5.6371 5.31148 9C5.31148 11.1048 7.0082 12.7984 9.09836 12.7984C11.5082 12.7984 12.418 11.1048 12.541 10.2097H9.09836V8.15323H14.9016C14.9044 8.17076 14.9071 8.18821 14.9099 8.20562Z" fill="white"/>
</svg>
