<svg width="18" height="18" viewBox="0 0 18 18" fill="none" xmlns="http://www.w3.org/2000/svg">
<path fill-rule="evenodd" clip-rule="evenodd" d="M9 18C13.9706 18 18 13.9706 18 9C18 4.02944 13.9706 0 9 0C4.02944 0 0 4.02944 0 9C0 13.9706 4.02944 18 9 18ZM16 5.2988C15.6164 5.85542 15.1233 6.33253 14.5753 6.73012V7.1012C14.5753 10.7855 11.6986 15 6.41096 15C4.76712 15 3.26027 14.5494 2 13.7542C2.21918 13.7807 2.43836 13.8072 2.68493 13.8072C4.0274 13.8072 5.26027 13.3566 6.24658 12.6145C4.9863 12.588 3.91781 11.7928 3.56164 10.6795C3.58322 10.6825 3.60445 10.6855 3.6254 10.6884C3.79076 10.7117 3.93938 10.7325 4.10959 10.7325C4.35616 10.7325 4.63014 10.6795 4.84932 10.6265C3.53425 10.3614 2.54795 9.24819 2.54795 7.89639V7.86988C2.93151 8.08193 3.39726 8.18795 3.86301 8.21446C3.06849 7.71084 2.57534 6.86265 2.57534 5.90843C2.57534 5.37831 2.71233 4.9012 2.9589 4.50361C4.38356 6.17349 6.52055 7.28675 8.90411 7.41928C8.84931 7.20723 8.82192 6.99518 8.82192 6.78313C8.82192 5.24578 10.1096 4 11.6986 4C12.5205 4 13.2603 4.31807 13.8082 4.8747C14.4384 4.74217 15.0685 4.50361 15.6164 4.18554C15.3973 4.84819 14.9589 5.37831 14.3562 5.72289C14.9315 5.66988 15.5068 5.51084 16 5.2988Z" fill="white"/>
</svg>
