<svg width="48" height="48" viewBox="0 0 48 48" fill="none" xmlns="http://www.w3.org/2000/svg">
<path fill-rule="evenodd" clip-rule="evenodd" d="M44.405 12.4699C44.7912 13.6664 45 14.9437 45 16.2701C45 23.0466 39.5508 28.5401 32.8288 28.5401C31.4775 28.5401 30.1777 28.3181 28.9632 27.9083L14.7535 42.118C12.5755 44.2961 9.04413 44.2961 6.86605 42.118C4.68798 39.9399 4.68798 36.4086 6.86605 34.2305L21.1985 19.8981C20.8469 18.7515 20.6576 17.5331 20.6576 16.2701C20.6576 9.49349 26.1069 4 32.8288 4C33.7074 4 34.5643 4.09386 35.3901 4.27216L28.8495 10.8128L29.5406 18.997L37.4558 19.4191L44.405 12.4699Z" stroke="#0041FF" stroke-width="2" stroke-linecap="round" stroke-linejoin="round"/>
<path d="M11.5 39C12.3284 39 13 38.3284 13 37.5C13 36.6716 12.3284 36 11.5 36C10.6716 36 10 36.6716 10 37.5C10 38.3284 10.6716 39 11.5 39Z" stroke="#0041FF" stroke-width="2"/>
</svg>
