<?xml version="1.0" encoding="UTF-8"?>
<svg width="48px" height="48px" viewBox="0 0 48 48" version="1.1" xmlns="http://www.w3.org/2000/svg" xmlns:xlink="http://www.w3.org/1999/xlink">
    <!-- Generator: Sketch 50.2 (55047) - http://www.bohemiancoding.com/sketch -->
    <title>Icon-Settings</title>
    <desc>Created with Sketch.</desc>
    <defs></defs>
    <g id="Icon-Settings" stroke="none" stroke-width="1" fill="none" fill-rule="evenodd" stroke-linecap="round" stroke-linejoin="round">
        <g transform="translate(8.000000, 8.000000)" stroke="#8E8E8E" stroke-width="2">
            <path d="M21.6087486,26.3724154 C20.9023676,26.7551882 20.152486,27.0679078 19.3684211,27.301257 L19.3684211,32 L12.6315789,32 L12.6315789,27.301257 C11.847514,27.0679078 11.0976324,26.7551882 10.3912514,26.3724154 L7.06812487,29.6955419 L2.30445813,24.9318751 L5.62758462,21.6087486 C5.2448118,20.9023676 4.93209217,20.152486 4.69874304,19.3684211 L-3.55271368e-15,19.3684211 L-3.55271368e-15,12.6315789 L4.69874304,12.6315789 C4.93209217,11.847514 5.2448118,11.0976324 5.62758462,10.3912514 L2.30445813,7.06812487 L7.06812487,2.30445813 L10.3912514,5.62758462 C11.0976324,5.2448118 11.847514,4.93209217 12.6315789,4.69874304 L12.6315789,0 L19.3684211,0 L19.3684211,4.69874304 C20.152486,4.93209217 20.9023676,5.2448118 21.6087486,5.62758462 L24.9318751,2.30445813 L29.6955419,7.06812487 L26.3724154,10.3912514 C26.7551882,11.0976324 27.0679078,11.847514 27.301257,12.6315789 L32,12.6315789 L32,19.3684211 L27.301257,19.3684211 C27.0679078,20.152486 26.7551882,20.9023676 26.3724154,21.6087486 L29.6955419,24.9318751 L24.9318751,29.6955419 L21.6087486,26.3724154 Z" id="Combined-Shape"></path>
            <circle id="Oval-6" cx="16" cy="16" r="5"></circle>
        </g>
    </g>
</svg>