<svg width="48" height="48" viewBox="0 0 48 48" fill="none" xmlns="http://www.w3.org/2000/svg">
<path d="M38 10H10V38H38V10Z" stroke="#0041FF" stroke-width="2" stroke-linecap="round" stroke-linejoin="round"/>
<path d="M38 19C42.9706 19 47 14.9706 47 10C47 5.02944 42.9706 1 38 1C33.0294 1 29 5.02944 29 10C29 14.9706 33.0294 19 38 19Z" fill="white"/>
<path d="M38 14C40.2091 14 42 12.2091 42 10C42 7.79086 40.2091 6 38 6C35.7909 6 34 7.79086 34 10C34 12.2091 35.7909 14 38 14Z" stroke="#0041FF" stroke-width="2"/>
<path d="M17 27.8225L20.6304 23.1316L25.5271 26.321L31.5498 19" stroke="#0041FF" stroke-width="2" stroke-linecap="round" stroke-linejoin="round"/>
</svg>
