<svg width="48" height="48" viewBox="0 0 48 48" fill="none" xmlns="http://www.w3.org/2000/svg">
<path fill-rule="evenodd" clip-rule="evenodd" d="M29.6087 34.3724C28.9024 34.7552 28.1525 35.0679 27.3684 35.3013V40H20.6316V35.3013C19.8475 35.0679 19.0976 34.7552 18.3913 34.3724L15.0681 37.6955L10.3045 32.9319L13.6276 29.6087C13.2448 28.9024 12.9321 28.1525 12.6987 27.3684H8V20.6316H12.6987C12.9321 19.8475 13.2448 19.0976 13.6276 18.3913L10.3045 15.0681L15.0681 10.3045L18.3913 13.6276C19.0976 13.2448 19.8475 12.9321 20.6316 12.6987V8H27.3684V12.6987C28.1525 12.9321 28.9024 13.2448 29.6087 13.6276L32.9319 10.3045L37.6955 15.0681L34.3724 18.3913C34.7552 19.0976 35.0679 19.8475 35.3013 20.6316H40V27.3684H35.3013C35.0679 28.1525 34.7552 28.9024 34.3724 29.6087L37.6955 32.9319L32.9319 37.6955L29.6087 34.3724Z" stroke="#0041FF" stroke-width="2" stroke-linecap="round" stroke-linejoin="round"/>
<path d="M24 29C26.7614 29 29 26.7614 29 24C29 21.2386 26.7614 19 24 19C21.2386 19 19 21.2386 19 24C19 26.7614 21.2386 29 24 29Z" stroke="#0041FF" stroke-width="2" stroke-linecap="round" stroke-linejoin="round"/>
</svg>
