<svg width="47" height="42" viewBox="0 0 47 42" fill="none" xmlns="http://www.w3.org/2000/svg">
<g clip-path="url(#clip0_2:421)">
<path fill-rule="evenodd" clip-rule="evenodd" d="M44.4001 41.969H2.65008C2.17573 41.9738 1.70884 41.8504 1.29877 41.612C0.888687 41.3735 0.550551 41.0287 0.320128 40.614C0.089704 40.1994 -0.0244989 39.7302 -0.0104387 39.256C0.00362138 38.7819 0.145496 38.3203 0.400084 37.92C1.31008 36.306 19.66 4.06899 21.23 1.31999C21.4522 0.913348 21.7797 0.574017 22.1783 0.337616C22.5768 0.101215 23.0317 -0.0235291 23.4951 -0.0235291C23.9584 -0.0235291 24.4133 0.101215 24.8118 0.337616C25.2104 0.574017 25.5379 0.913348 25.7601 1.31999C26.9101 3.30099 45.3601 35.662 46.6401 38.005C46.8763 38.4022 47.0035 38.8547 47.0086 39.3168C47.0138 39.7789 46.8967 40.2341 46.6694 40.6365C46.442 41.0388 46.1124 41.3739 45.7139 41.6079C45.3154 41.8419 44.8622 41.9665 44.4001 41.969V41.969ZM43.0001 39.969H4.00006C2.39006 39.969 1.67005 39.609 2.62005 37.931C3.35005 36.631 20.2701 6.34499 21.6201 4.06799C23.3101 1.21899 23.7901 1.28399 25.3701 4.06799C26.3201 5.72599 42.9401 36.015 44.0001 37.968C44.7801 39.4 44.7701 39.969 43.0001 39.969ZM24.0001 15.969C24.2653 15.969 24.5197 16.0744 24.7072 16.2619C24.8947 16.4494 25.0001 16.7038 25.0001 16.969V27.969C25.0001 28.2342 24.8947 28.4886 24.7072 28.6761C24.5197 28.8636 24.2653 28.969 24.0001 28.969C23.7348 28.969 23.4804 28.8636 23.2929 28.6761C23.1054 28.4886 23.0001 28.2342 23.0001 27.969V16.969C23.0001 16.7038 23.1054 16.4494 23.2929 16.2619C23.4804 16.0744 23.7348 15.969 24.0001 15.969ZM24.0001 30.969C24.1978 30.969 24.3912 31.0276 24.5556 31.1375C24.7201 31.2474 24.8482 31.4036 24.9239 31.5863C24.9996 31.769 25.0195 31.9701 24.9809 32.1641C24.9423 32.3581 24.8471 32.5362 24.7072 32.6761C24.5674 32.816 24.3891 32.9112 24.1951 32.9498C24.0011 32.9884 23.8001 32.9686 23.6174 32.8929C23.4346 32.8172 23.2785 32.689 23.1686 32.5246C23.0588 32.3601 23.0001 32.1668 23.0001 31.969C23.0001 31.7038 23.1054 31.4494 23.2929 31.2619C23.4804 31.0744 23.7348 30.969 24.0001 30.969Z" fill="#9497B8"/>
</g>
<defs>
<clipPath id="clip0_2:421">
<rect width="47" height="41.969" fill="white"/>
</clipPath>
</defs>
</svg>
