<svg width="180" height="180" viewBox="0 0 180 180" fill="none" xmlns="http://www.w3.org/2000/svg">
<path d="M138 19H42C28.7452 19 18 29.7452 18 43V138C18 151.255 28.7452 162 42 162H138C151.255 162 162 151.255 162 138V43C162 29.7452 151.255 19 138 19Z" fill="white" stroke="#6B7280" stroke-width="6"/>
<path d="M56.3594 68.2021L55.9335 67.4838C54.3589 64.8282 50.5014 64.869 48.9833 67.5573C42.6404 78.7896 26.3128 78.3394 20.5984 66.7746L19.7649 65.0877C18.6039 62.7381 18 60.1526 18 57.5319V43C18 29.7452 28.7452 19 42 19H138C151.255 19 162 29.7452 162 43V57.7374C162 60.2246 161.441 62.6801 160.365 64.9224L159.382 66.9698C153.95 78.286 138.001 78.7309 131.947 67.7351C130.471 65.0551 126.612 65.0761 125.166 67.7721L124.896 68.2751C118.795 79.6474 102.644 80.0771 95.9466 69.0453L95.1313 67.7023C93.4206 64.8843 89.331 64.8843 87.6203 67.7023L87.2197 68.3623C80.1702 79.9747 63.2879 79.8871 56.3594 68.2021Z" fill="#E5E7EB" stroke="#6B7280" stroke-width="6" stroke-linecap="round"/>
<path d="M89.9949 92.1667C82.2243 92.1667 77.1868 97.3825 71.2296 99.2838C68.8064 100.059 67.5948 100.444 67.104 100.989C66.6132 101.531 66.4711 102.33 66.1843 103.921C63.1102 120.961 69.8268 136.714 85.8435 142.847C87.5614 143.505 88.4217 143.833 90.0027 143.833C91.5837 143.833 92.4465 143.503 94.167 142.844C110.181 136.714 116.89 120.961 113.816 103.921C113.529 102.33 113.384 101.531 112.894 100.986C112.403 100.441 111.194 100.056 108.771 99.2838C102.811 97.3825 97.7656 92.1667 89.9949 92.1667Z" stroke="#6B7280" stroke-width="6" stroke-linecap="round" stroke-linejoin="round"/>
<path d="M82.25 120.583C82.25 120.583 84.8333 120.583 87.4167 125.75C87.4167 125.75 95.6239 112.833 102.917 110.25" stroke="#6B7280" stroke-width="6" stroke-linecap="round" stroke-linejoin="round"/>
</svg>
