<svg width="100" height="100" viewBox="0 0 100 100" fill="none" xmlns="http://www.w3.org/2000/svg">
<rect width="100" height="100" fill="white"/>
<rect x="19" y="19" width="62" height="62" rx="4" fill="#2563EB"/>
<path d="M38.9259 49.9333L47.4444 56L57.6667 43L73 69H27L38.9259 49.9333Z" fill="white"/>
<path d="M40 37C40 33.6863 42.6863 31 46 31C49.3137 31 52 33.6863 52 37C52 40.3137 49.3137 43 46 43C42.6863 43 40 40.3137 40 37Z" fill="white"/>
<path d="M10 29.0355C10 27.2938 11.2808 25.817 13.005 25.5707C15.1135 25.2695 17 26.9056 17 29.0355V70.9645C17 73.0944 15.1135 74.7305 13.005 74.4293C11.2808 74.183 10 72.7062 10 70.9645V29.0355Z" fill="#2563EB"/>
<path d="M83 29.0355C83 27.2938 84.2808 25.817 86.005 25.5707C88.1135 25.2695 90 26.9056 90 29.0355V70.9645C90 73.0944 88.1135 74.7305 86.005 74.4293C84.2808 74.183 83 72.7062 83 70.9645V29.0355Z" fill="#2563EB"/>
</svg>
