<svg width="100" height="100" viewBox="0 0 100 100" fill="none" xmlns="http://www.w3.org/2000/svg">
<rect width="100" height="100" fill="white"/>
<rect x="15" y="15" width="70" height="70" rx="4" fill="#2563EB"/>
<path d="M42.2911 38.4411C43.219 39.3174 43.2198 40.7935 42.2928 41.6708L33.4926 50L42.2928 58.3292C43.2198 59.2065 43.219 60.6826 42.2911 61.5589C41.4346 62.3678 40.0958 62.3678 39.2393 61.5589L28.1144 51.0525C27.5095 50.4812 27.5095 49.5188 28.1144 48.9475L39.2393 38.4411C40.0958 37.6322 41.4346 37.6322 42.2911 38.4411Z" fill="white"/>
<path d="M57.7089 61.5589C56.781 60.6826 56.7802 59.2065 57.7072 58.3292L66.5074 50L57.7072 41.6708C56.7802 40.7935 56.781 39.3174 57.7089 38.4411C58.5654 37.6322 59.9042 37.6322 60.7607 38.4411L71.8856 48.9475C72.4905 49.5188 72.4905 50.4812 71.8856 51.0525L60.7607 61.5589C59.9042 62.3678 58.5654 62.3678 57.7089 61.5589Z" fill="white"/>
<path d="M48 67L52 33" stroke="white" stroke-width="4" stroke-linecap="round" stroke-linejoin="round"/>
</svg>
