<svg width="190" height="190" viewBox="0 0 190 190" fill="none" xmlns="http://www.w3.org/2000/svg">
<path d="M22 43.5C22 43.0358 22 42.8036 22.0032 42.6073C22.2151 29.6599 32.6599 19.2151 45.6073 19.0032C45.8036 19 46.0358 19 46.5 19H69.5H123.6C142.748 19 152.322 19 158.858 24.1524C160.34 25.3207 161.679 26.6597 162.848 28.1417C168 34.6775 168 44.2517 168 63.4V126.6C168 145.748 168 155.322 162.848 161.858C161.679 163.34 160.34 164.679 158.858 165.848C152.322 171 142.748 171 123.6 171H66.4C47.2517 171 37.6775 171 31.1417 165.848C29.6597 164.679 28.3207 163.34 27.1524 161.858C22 155.322 22 145.748 22 126.6V43.5Z" fill="white" stroke="#6B7280" stroke-width="6"/>
<path d="M22 43.5C22 43.0358 22 42.8036 22.0032 42.6073C22.2151 29.6599 32.6599 19.2151 45.6073 19.0032C45.8036 19 46.0358 19 46.5 19H69.5H140C143.715 19 145.573 19 147.133 19.2053C157.902 20.6232 166.377 29.0978 167.795 39.8674C168 41.427 168 43.2846 168 47H22V43.5Z" fill="#E5E7EB" stroke="#6B7280" stroke-width="6"/>
<path d="M22 146.5C22 146.964 22 147.196 22.0032 147.393C22.2151 160.34 32.6599 170.785 45.6073 170.997C45.8036 171 46.0358 171 46.5 171H69.5H140C143.715 171 145.573 171 147.133 170.795C157.902 169.377 166.377 160.902 167.795 150.133C168 148.573 168 146.715 168 143H22V146.5Z" fill="#E5E7EB" stroke="#6B7280" stroke-width="6"/>
<path d="M47.1446 45.942C46.6346 47.5184 47.5324 49.0873 49.1499 49.4463C50.7674 49.8052 52.4921 48.8183 53.0021 47.2419L47.1446 45.942ZM56.0713 18.35L47.1446 45.942L53.0021 47.2419L61.9287 19.65L56.0713 18.35Z" fill="#6B7280"/>
<path d="M87.1446 45.942C86.6346 47.5184 87.5324 49.0873 89.1499 49.4463C90.7674 49.8052 92.4921 48.8183 93.0021 47.2419L87.1446 45.942ZM96.0713 18.35L87.1446 45.942L93.0021 47.2419L101.929 19.65L96.0713 18.35Z" fill="#6B7280"/>
<path d="M127.145 45.942C126.635 47.5184 127.532 49.0873 129.15 49.4463C130.767 49.8052 132.492 48.8183 133.002 47.2419L127.145 45.942ZM136.071 18.35L127.145 45.942L133.002 47.2419L141.929 19.65L136.071 18.35Z" fill="#6B7280"/>
<path d="M47.1446 144.058C46.6346 142.482 47.5324 140.913 49.1499 140.554C50.7674 140.195 52.4921 141.182 53.0021 142.758L47.1446 144.058ZM56.0713 171.65L47.1446 144.058L53.0021 142.758L61.9287 170.35L56.0713 171.65Z" fill="#6B7280"/>
<path d="M87.1446 144.058C86.6346 142.482 87.5324 140.913 89.1499 140.554C90.7674 140.195 92.4921 141.182 93.0021 142.758L87.1446 144.058ZM96.0713 171.65L87.1446 144.058L93.0021 142.758L101.929 170.35L96.0713 171.65Z" fill="#6B7280"/>
<path d="M127.145 144.058C126.635 142.482 127.532 140.913 129.15 140.554C130.767 140.195 132.492 141.182 133.002 142.758L127.145 144.058ZM136.071 171.65L127.145 144.058L133.002 142.758L141.929 170.35L136.071 171.65Z" fill="#6B7280"/>
<path d="M68.3419 109.342L62.66 95.3735M42.6093 105.202L46.2713 94.0171M46.2713 94.0171L51.5595 78.2704C52.1441 76.5298 54.5832 76.4408 55.3054 78.1337L62.66 95.3735M46.2713 94.0171L62.66 95.3735" stroke="#6B7280" stroke-width="6" stroke-linecap="round"/>
<path d="M127.856 109.826L121.374 85.8012C120.816 83.7302 123.469 82.3615 124.844 84.0114L134.595 95.7097C135.69 97.0226 137.819 96.456 138.106 94.7755L140.661 79.8022C141.022 77.6905 144.009 77.5581 144.567 79.6291L151.049 103.654" stroke="#6B7280" stroke-width="6" stroke-linecap="round"/>
<path d="M84 78L77.8835 100.672C77.3964 102.477 79.4345 103.896 80.9663 102.818L90.464 96.1341C91.4862 95.4147 92.9087 95.7933 93.4318 96.9239L98.2922 107.429C99.0761 109.123 101.556 108.906 102.043 107.101L108.159 84.4293" stroke="#6B7280" stroke-width="6" stroke-linecap="round"/>
</svg>
