<svg width="180" height="180" viewBox="0 0 180 180" fill="none" xmlns="http://www.w3.org/2000/svg">
<path d="M17 82.4C17 63.2517 17 53.6775 22.1524 47.1417C23.3207 45.6597 24.6597 44.3207 26.1417 43.1524C32.6775 38 42.2517 38 61.4 38H118.6C137.748 38 147.322 38 153.858 43.1524C155.34 44.3207 156.679 45.6597 157.848 47.1417C163 53.6775 163 63.2517 163 82.4V106.6C163 125.748 163 135.322 157.848 141.858C156.679 143.34 155.34 144.679 153.858 145.848C147.322 151 137.748 151 118.6 151H61.4C42.2517 151 32.6775 151 26.1417 145.848C24.6597 144.679 23.3207 143.34 22.1524 141.858C17 135.322 17 125.748 17 106.6V82.4Z" fill="white" stroke="#6B7280" stroke-width="6"/>
<path d="M81.293 102.2H89.75H97.707C104.465 102.2 110.911 99.3504 115.459 94.3514L157.848 47.1417C156.679 45.6597 155.34 44.3207 153.858 43.1524C147.322 38 137.748 38 118.6 38H89.75H61.4C42.2517 38 32.6775 38 26.1417 43.1524C24.6597 44.3207 23.3207 45.6597 22.1524 47.1417L63.541 94.3514C68.0893 99.3504 74.5345 102.2 81.293 102.2Z" fill="#E5E7EB"/>
<path d="M153.858 43.1524L155.716 40.7964V40.7964L153.858 43.1524ZM160 82.4C160 84.0569 161.343 85.4 163 85.4C164.657 85.4 166 84.0569 166 82.4H160ZM157.848 47.1417L160.204 45.2845L160.204 45.2845L157.848 47.1417ZM26.1417 43.1524L27.999 45.5083L26.1417 43.1524ZM14 82.4C14 84.0569 15.3431 85.4 17 85.4C18.6569 85.4 20 84.0569 20 82.4H14ZM37.125 111.658C35.8316 112.694 35.6226 114.582 36.6581 115.875C37.6937 117.168 39.5816 117.377 40.875 116.342L37.125 111.658ZM138.618 116.359C139.921 117.383 141.807 117.156 142.831 115.853C143.854 114.55 143.628 112.664 142.325 111.641L138.618 116.359ZM89.75 99.2H81.293V105.2H89.75V99.2ZM81.293 99.2C75.3793 99.2 69.7398 96.7066 65.76 92.3325L61.322 96.3703C66.4388 101.994 73.6897 105.2 81.293 105.2V99.2ZM89.75 105.2H97.707V99.2H89.75V105.2ZM97.707 105.2C105.31 105.2 112.561 101.994 117.678 96.3703L113.24 92.3325C109.26 96.7066 103.621 99.2 97.707 99.2V105.2ZM118.6 41C128.245 41 135.223 41.0046 140.616 41.6244C145.947 42.237 149.348 43.417 152.001 45.5083L155.716 40.7964C151.833 37.7354 147.179 36.3392 141.301 35.6637C135.486 34.9954 128.103 35 118.6 35V41ZM166 82.4C166 72.8971 166.005 65.5138 165.336 59.6987C164.661 53.8208 163.265 49.1674 160.204 45.2845L155.492 48.999C157.583 51.6518 158.763 55.0534 159.376 60.3837C159.995 65.7767 160 72.7546 160 82.4H166ZM152.001 45.5083C153.298 46.5306 154.469 47.7023 155.492 48.999L160.204 45.2845C158.889 43.6172 157.383 42.1108 155.716 40.7964L152.001 45.5083ZM61.4 35C51.8971 35 44.5138 34.9954 38.6986 35.6637C32.8208 36.3392 28.1674 37.7354 24.2845 40.7964L27.999 45.5083C30.6518 43.417 34.0534 42.237 39.3837 41.6244C44.7767 41.0046 51.7546 41 61.4 41V35ZM20 82.4C20 72.7546 20.0046 65.7767 20.6244 60.3837C21.237 55.0534 22.417 51.6518 24.5083 48.999L19.7964 45.2845C16.7354 49.1674 15.3392 53.8208 14.6637 59.6986C13.9954 65.5138 14 72.8971 14 82.4H20ZM24.2845 40.7964C22.6172 42.1108 21.1108 43.6172 19.7964 45.2845L24.5083 48.999C25.5306 47.7023 26.7023 46.5306 27.999 45.5083L24.2845 40.7964ZM65.7968 92.3737L24.4082 45.1641L19.8966 49.1194L61.2852 96.3291L65.7968 92.3737ZM117.691 96.3557L160.08 49.146L155.615 45.1375L113.227 92.3471L117.691 96.3557ZM61.666 92.0095L37.125 111.658L40.875 116.342L65.416 96.6933L61.666 92.0095ZM61.4 41H89.75V35H61.4V41ZM89.75 41H118.6V35H89.75V41ZM113.606 96.7105L138.618 116.359L142.325 111.641L117.312 91.9922L113.606 96.7105Z" fill="#6B7280"/>
</svg>
