<svg width="24" height="24" viewBox="0 0 24 24" fill="none" xmlns="http://www.w3.org/2000/svg">
<path fill-rule="evenodd" clip-rule="evenodd" d="M5 11H7V13H5V11ZM8 11H10V13H8V11ZM11 11H13V13H11V11ZM14 11H16V13H14V11ZM17 11H19V13H17V11ZM5 14H7V16H5V14ZM8 14H10V16H8V14ZM11 14H13V16H11V14ZM14 14H16V16H14V14ZM17 14H19V16H17V14ZM14 17H16V19H14V17ZM5 17H7V19H5V17ZM8 17H10V19H8V17ZM11 17H13V19H11V17Z" fill="#9497B8"/>
<path d="M19 4H5C3.89543 4 3 4.89543 3 6V20C3 21.1046 3.89543 22 5 22H19C20.1046 22 21 21.1046 21 20V6C21 4.89543 20.1046 4 19 4Z" stroke="#9497B8" stroke-width="2" stroke-linecap="round" stroke-linejoin="round"/>
<path d="M3 9H20.2234" stroke="#9497B8" stroke-width="2" stroke-linecap="round" stroke-linejoin="round"/>
<path d="M8.05518 2.0166V4" stroke="#9497B8" stroke-width="2" stroke-linecap="round" stroke-linejoin="round"/>
<path d="M16 2V3.91915" stroke="#9497B8" stroke-width="2" stroke-linecap="round" stroke-linejoin="round"/>
</svg>
