<svg width="180" height="180" viewBox="0 0 180 180" fill="none" xmlns="http://www.w3.org/2000/svg">
<rect width="180" height="180" fill="white"/>
<ellipse cx="86" cy="152.501" rx="56" ry="2.5" fill="white"/>
<path d="M50.5723 94.6632C50.5723 88.7583 53.1097 83.1381 57.5388 79.2329L61.8324 75.4473C69.6071 68.5924 81.2674 68.5924 89.0421 75.4473L93.3356 79.233C97.7648 83.1381 100.302 88.7583 100.302 94.6632V126.09C100.302 137.451 91.0921 146.661 79.7308 146.661H71.1437C59.7824 146.661 50.5723 137.451 50.5723 126.09V94.6632Z" fill="white" stroke="#6B7280" stroke-width="6"/>
<path d="M58.3947 87.9038C56.926 82.4182 57.79 76.5687 60.782 71.7407L67.4394 60.9984C73.1628 51.763 85.0776 48.5679 94.6483 53.7019L105.781 59.6737C110.784 62.3576 114.454 66.9911 115.923 72.4767L128.528 119.556C131.466 130.531 124.952 141.813 113.979 144.756L96.1891 149.526C85.2155 152.469 73.9377 145.958 70.9994 134.983L58.3947 87.9038Z" fill="white" stroke="#6B7280" stroke-width="6"/>
<rect width="11.2613" height="11.2661" rx="5.63066" transform="matrix(0.965894 -0.258937 0.258701 0.965957 77.2212 108.011)" fill="#E5E7EB" stroke="#6B7280" stroke-width="6"/>
<rect width="11.2613" height="11.2661" rx="5.63066" transform="matrix(0.965894 -0.258937 0.258701 0.965957 103.75 119.341)" fill="#E5E7EB" stroke="#6B7280" stroke-width="6"/>
<path d="M91.5913 136.094L101.497 100.649" stroke="#6B7280" stroke-width="6" stroke-linecap="round"/>
<rect width="17.5629" height="17.5703" rx="8.78143" transform="matrix(0.965894 -0.258937 0.258701 0.965957 75.4912 72.0327)" fill="#E5E7EB" stroke="#6B7280" stroke-width="6"/>
<path fill-rule="evenodd" clip-rule="evenodd" d="M26 75C26 75.5523 26.4477 76 27 76C27.5523 76 28 75.5523 28 75V71L32 71C32.5523 71 33 70.5523 33 70C33 69.4477 32.5523 69 32 69L28 69V65C28 64.4477 27.5523 64 27 64C26.4477 64 26 64.4477 26 65V69L22 69C21.4477 69 21 69.4477 21 70C21 70.5523 21.4477 71 22 71L26 71V75Z" fill="#E5E7EB"/>
<path fill-rule="evenodd" clip-rule="evenodd" d="M154 74.0002C154 74.5525 154.448 75.0002 155 75.0002C155.552 75.0002 156 74.5525 156 74.0002V70.0002L160 70.0002C160.552 70.0002 161 69.5525 161 69.0002C161 68.448 160.552 68.0002 160 68.0002L156 68.0002V65.0002C156 64.448 155.552 64.0002 155 64.0002C154.448 64.0002 154 64.448 154 65.0002L154 68.0002L151 68.0002C150.448 68.0002 150 68.448 150 69.0002C150 69.5525 150.448 70.0002 151 70.0002L154 70.0002L154 74.0002Z" fill="#E5E7EB"/>
<circle cx="118" cy="30" r="4" stroke="#E5E7EB" stroke-width="2"/>
<circle cx="23.5" cy="134.5" r="2.5" stroke="#E5E7EB" stroke-width="2"/>
<circle cx="157.5" cy="122.5" r="1.5" stroke="#E5E7EB" stroke-width="2"/>
<circle cx="58.5" cy="32.5" r="2.5" stroke="#E5E7EB" stroke-width="2"/>
</svg>
