<svg width="180" height="180" viewBox="0 0 180 180" fill="none" xmlns="http://www.w3.org/2000/svg">
<rect width="180" height="180" fill="white"/>
<ellipse cx="89.4287" cy="149.929" rx="56" ry="2.5" fill="#E5E7EB"/>
<path fill-rule="evenodd" clip-rule="evenodd" d="M30.7909 33.3513C30.7909 33.9035 31.2387 34.3513 31.7909 34.3513C32.3432 34.3513 32.7909 33.9035 32.7909 33.3513V27.3662H38.7763C39.3286 27.3662 39.7763 26.9185 39.7763 26.3662C39.7763 25.8139 39.3286 25.3662 38.7763 25.3662L32.7909 25.3662V19.3811C32.7909 18.8288 32.3432 18.3811 31.7909 18.3811C31.2387 18.3811 30.7909 18.8288 30.7909 19.3811V25.3662L24.8062 25.3662C24.2539 25.3662 23.8062 25.8139 23.8062 26.3662C23.8062 26.9185 24.2539 27.3662 24.8062 27.3662H30.7909V33.3513Z" fill="#E5E7EB"/>
<path fill-rule="evenodd" clip-rule="evenodd" d="M161.179 84.5747C161.179 85.1269 161.627 85.5747 162.179 85.5747C162.731 85.5747 163.179 85.1269 163.179 84.5747V80.9179L166.836 80.9179C167.388 80.9179 167.836 80.4702 167.836 79.9179C167.836 79.3657 167.388 78.9179 166.836 78.9179L163.179 78.9179V75.2612C163.179 74.7089 162.731 74.2612 162.179 74.2612C161.627 74.2612 161.179 74.7089 161.179 75.2612V78.9179L157.522 78.9179C156.97 78.9179 156.522 79.3657 156.522 79.9179C156.522 80.4702 156.97 80.9179 157.522 80.9179L161.179 80.9179V84.5747Z" fill="#E5E7EB"/>
<circle cx="15.4925" cy="85.7392" r="3.49254" stroke="#E5E7EB" stroke-width="2"/>
<circle cx="156.94" cy="22.2911" r="4.07463" stroke="#E5E7EB" stroke-width="2"/>
<circle cx="17.2389" cy="141.037" r="1.74627" stroke="#E5E7EB" stroke-width="2"/>
<circle cx="163.343" cy="136.963" r="3.49254" stroke="#E5E7EB" stroke-width="2"/>
<rect x="42" y="40" width="96" height="100" rx="24" fill="white" stroke="#6B7280" stroke-width="4"/>
<path fill-rule="evenodd" clip-rule="evenodd" d="M94.6669 88C94.6669 85.4227 92.5776 83.3333 90.0002 83.3333C87.4229 83.3333 85.3336 85.4227 85.3336 88V93.3333C85.3336 96.647 82.6473 99.3333 79.3336 99.3333L74.0002 99.3333C71.4229 99.3333 69.3336 101.423 69.3336 104C69.3336 106.577 71.4229 108.667 74.0002 108.667H79.3336C82.6473 108.667 85.3336 111.353 85.3336 114.667V120C85.3336 122.577 87.4229 124.667 90.0002 124.667C92.5776 124.667 94.6669 122.577 94.6669 120V114.667C94.6669 111.353 97.3532 108.667 100.667 108.667H106C108.578 108.667 110.667 106.577 110.667 104C110.667 101.423 108.578 99.3333 106 99.3333L100.667 99.3333C97.3532 99.3333 94.6669 96.647 94.6669 93.3333V88Z" fill="#E5E7EB"/>
<path d="M87.3336 93.3333V88H83.3336V93.3333H87.3336ZM74.0002 101.333H79.3336L79.3336 97.3333L74.0002 97.3333L74.0002 101.333ZM79.3336 106.667H74.0002V110.667H79.3336V106.667ZM87.3336 120V114.667H83.3336V120H87.3336ZM92.6669 114.667V120H96.6669V114.667H92.6669ZM106 106.667H100.667V110.667H106V106.667ZM100.667 101.333H106V97.3333L100.667 97.3333V101.333ZM92.6669 88V93.3333H96.6669V88H92.6669ZM100.667 97.3333C98.4578 97.3333 96.6669 95.5425 96.6669 93.3333H92.6669C92.6669 97.7516 96.2486 101.333 100.667 101.333V97.3333ZM112.667 104C112.667 100.318 109.682 97.3333 106 97.3333V101.333C107.473 101.333 108.667 102.527 108.667 104H112.667ZM106 110.667C109.682 110.667 112.667 107.682 112.667 104H108.667C108.667 105.473 107.473 106.667 106 106.667V110.667ZM96.6669 114.667C96.6669 112.458 98.4578 110.667 100.667 110.667V106.667C96.2486 106.667 92.6669 110.248 92.6669 114.667H96.6669ZM90.0002 126.667C93.6821 126.667 96.6669 123.682 96.6669 120H92.6669C92.6669 121.473 91.473 122.667 90.0002 122.667V126.667ZM83.3336 120C83.3336 123.682 86.3183 126.667 90.0002 126.667V122.667C88.5275 122.667 87.3336 121.473 87.3336 120H83.3336ZM79.3336 110.667C81.5427 110.667 83.3336 112.458 83.3336 114.667H87.3336C87.3336 110.248 83.7519 106.667 79.3336 106.667V110.667ZM67.3336 104C67.3336 107.682 70.3183 110.667 74.0002 110.667V106.667C72.5275 106.667 71.3336 105.473 71.3336 104H67.3336ZM74.0002 97.3333C70.3183 97.3333 67.3336 100.318 67.3336 104H71.3336C71.3336 102.527 72.5275 101.333 74.0002 101.333L74.0002 97.3333ZM83.3336 93.3333C83.3336 95.5425 81.5427 97.3333 79.3336 97.3333L79.3336 101.333C83.7519 101.333 87.3336 97.7516 87.3336 93.3333H83.3336ZM90.0002 85.3333C91.473 85.3333 92.6669 86.5272 92.6669 88H96.6669C96.6669 84.3181 93.6821 81.3333 90.0002 81.3333V85.3333ZM90.0002 81.3333C86.3183 81.3333 83.3336 84.3181 83.3336 88H87.3336C87.3336 86.5272 88.5275 85.3333 90.0002 85.3333V81.3333Z" fill="#6B7280"/>
<path d="M104.667 57.8539V40H74.6665V58.1075C74.6665 59.5975 74.6665 60.3424 74.7479 60.8316C75.4024 64.7636 79.6382 66.9761 83.2392 65.267C83.6872 65.0543 84.2987 64.6287 85.5215 63.7775L85.5216 63.7775C86.0106 63.4371 86.2551 63.2669 86.492 63.1321C88.3007 62.103 90.5135 62.0846 92.339 63.0835C92.5782 63.2143 92.8255 63.3804 93.32 63.7126L93.3201 63.7126L93.4767 63.8178L93.4767 63.8178C95.062 64.8825 95.8546 65.4149 96.4518 65.6521C99.8966 67.0202 103.746 64.9688 104.53 61.3464C104.667 60.7184 104.667 59.7635 104.667 57.8539Z" fill="#E5E7EB" stroke="#6B7280" stroke-width="4"/>
</svg>
