<svg xmlns="http://www.w3.org/2000/svg" width="47" height="41.969" viewBox="0 0 47 41.969">
  <metadata><?xpacket begin="﻿" id="W5M0MpCehiHzreSzNTczkc9d"?>
<x:xmpmeta xmlns:x="adobe:ns:meta/" x:xmptk="Adobe XMP Core 5.6-c140 79.160451, 2017/05/06-01:08:21        ">
   <rdf:RDF xmlns:rdf="http://www.w3.org/1999/02/22-rdf-syntax-ns#">
      <rdf:Description rdf:about=""/>
   </rdf:RDF>
</x:xmpmeta>
                                                                                                    
                                                                                                    
                                                                                                    
                                                                                                    
                                                                                                    
                                                                                                    
                                                                                                    
                                                                                                    
                                                                                                    
                                                                                                    
                                                                                                    
                                                                                                    
                                                                                                    
                                                                                                    
                                                                                                    
                                                                                                    
                                                                                                    
                                                                                                    
                                                                                                    
                                                                                                    
                           
<?xpacket end="w"?></metadata>
<defs>
    <style>
      .cls-1 {
        fill: #c7c7c7;
        fill-rule: evenodd;
      }
    </style>
  </defs>
  <path id="Rounded_Rectangle_1" data-name="Rounded Rectangle 1" class="cls-1" d="M1246.4,242h-41.75a2.635,2.635,0,0,1-2.25-4.049c0.91-1.614,19.26-33.851,20.83-36.6a2.581,2.581,0,0,1,4.53,0c1.15,1.981,19.6,34.342,20.88,36.685A2.623,2.623,0,0,1,1246.4,242Zm-1.4-2h-39c-1.61,0-2.33-.36-1.38-2.038,0.73-1.3,17.65-31.586,19-33.863,1.69-2.849,2.17-2.784,3.75,0,0.95,1.658,17.57,31.947,18.63,33.9C1246.78,239.431,1246.77,240,1245,240Zm-19-24a1,1,0,0,1,1,1v11a1,1,0,0,1-2,0V217A1,1,0,0,1,1226,216Zm0,15a1,1,0,1,1-1,1A1,1,0,0,1,1226,231Z" transform="translate(-1202 -200.031)"/>
</svg>
