<svg width="18" height="18" viewBox="0 0 18 18" fill="none" xmlns="http://www.w3.org/2000/svg">
<path fill-rule="evenodd" clip-rule="evenodd" d="M9 8.35558L12.2221 5.13346C12.4001 4.95551 12.6886 4.95551 12.8665 5.13346C13.0445 5.31142 13.0445 5.59993 12.8665 5.77789L9.64442 9L12.8665 12.2221C13.0445 12.4001 13.0445 12.6886 12.8665 12.8665C12.6886 13.0445 12.4001 13.0445 12.2221 12.8665L9 9.64442L5.77789 12.8665C5.59993 13.0445 5.31142 13.0445 5.13346 12.8665C4.95551 12.6886 4.95551 12.4001 5.13346 12.2221L8.35558 9L5.13346 5.77789C4.95551 5.59993 4.95551 5.31142 5.13346 5.13346C5.31142 4.95551 5.59993 4.95551 5.77789 5.13346L9 8.35558Z" fill="#9497B8"/>
</svg>
