<?xml version="1.0" encoding="UTF-8"?>
<svg width="119px" height="39px" viewBox="0 0 119 39" version="1.1" xmlns="http://www.w3.org/2000/svg" xmlns:xlink="http://www.w3.org/1999/xlink">
    <!-- Generator: Sketch 50.2 (55047) - http://www.bohemiancoding.com/sketch -->
    <title>Logo</title>
    <desc>Created with Sketch.</desc>
    <defs></defs>
    <g id="Logo" stroke="none" stroke-width="1" fill="none" fill-rule="evenodd">
        <g fill="#0031F0">
            <path d="M18.624,10.104 C20.0533405,11.1066717 20.768,12.4719914 20.768,14.2 C20.768,15.3946726 20.4213368,16.4346622 19.728,17.32 C19.0346632,18.2053378 18.0906726,18.8079984 16.896,19.128 C18.3466739,19.4053347 19.4879958,20.0506616 20.32,21.064 C21.1520042,22.0773384 21.568,23.3199926 21.568,24.792 C21.568,26.7120096 20.8106742,28.2266611 19.296,29.336 C17.7813258,30.4453389 15.7226797,31 13.12,31 L2.464,31 L2.464,8.6 L12.768,8.6 C15.242679,8.6 17.1946595,9.10132832 18.624,10.104 Z M14.768,16.968 C15.3120027,16.5306645 15.584,15.9173373 15.584,15.128 C15.584,14.3599962 15.3120027,13.7626688 14.768,13.336 C14.2239973,12.9093312 13.4720048,12.7066666 12.512,12.728 L7.52,12.728 L7.52,17.624 L12.512,17.624 C13.4720048,17.624 14.2239973,17.4053355 14.768,16.968 Z M15.328,26.152 C16.0106701,25.6719976 16.352,25.0053376 16.352,24.152 C16.352,23.3413293 16.0106701,22.7013357 15.328,22.232 C14.6453299,21.7626643 13.7066726,21.5386666 12.512,21.56 L7.52,21.56 L7.52,26.872 L12.512,26.872 C13.7066726,26.872 14.6453299,26.6320024 15.328,26.152 Z M24.4800001,8.6 L29.5360001,8.6 L29.5360001,26.584 L39.1360001,26.584 L39.1360001,31 L24.4800001,31 L24.4800001,8.6 Z M41.3760002,8.6 L46.4320002,8.6 L46.4320002,31 L41.3760002,31 L41.3760002,8.6 Z M61.7120003,13.16 C60.4213272,12.7439979 59.3173382,12.536 58.4000003,12.536 C57.5253293,12.536 56.8320029,12.6959984 56.3200003,13.016 C55.8079977,13.3360016 55.5520003,13.8053302 55.5520003,14.424 C55.5520003,15.2133373 55.9199966,15.8159979 56.6560003,16.232 C57.392004,16.6480021 58.5279926,17.0799978 60.0640003,17.528 C61.600008,17.9760022 62.8639953,18.4239978 63.8560003,18.872 C64.8480053,19.3200022 65.6959968,19.9919955 66.4000003,20.888 C67.1040038,21.7840045 67.4560003,22.9679926 67.4560003,24.44 C67.4560003,25.8693405 67.0773374,27.1013282 66.3200003,28.136 C65.5626632,29.1706718 64.5226736,29.954664 63.2000003,30.488 C61.877327,31.021336 60.3733421,31.288 58.6880003,31.288 C56.8746579,31.288 55.0933424,30.9680032 53.3440003,30.328 C51.5946582,29.6879968 50.0800067,28.8133389 48.8000003,27.704 L50.8160003,23.576 C51.9466726,24.6000051 53.2479929,25.4213302 54.7200003,26.04 C56.1920077,26.6586698 57.5359942,26.968 58.7520003,26.968 C59.7973389,26.968 60.6133307,26.7760019 61.2000003,26.392 C61.7866699,26.0079981 62.0800003,25.453337 62.0800003,24.728 C62.0800003,24.1519971 61.8826689,23.6773352 61.4880003,23.304 C61.0933317,22.9306648 60.5920033,22.6266678 59.9840003,22.392 C59.3759973,22.1573322 58.5386723,21.8906682 57.4720003,21.592 C55.9359926,21.1653312 54.6826718,20.7386688 53.7120003,20.312 C52.7413288,19.8853312 51.9040038,19.234671 51.2000003,18.36 C50.4959968,17.485329 50.1440003,16.3226739 50.1440003,14.872 C50.1440003,13.5279933 50.5066633,12.3493384 51.2320003,11.336 C51.9573373,10.3226616 52.9706605,9.54400272 54.2720003,9 C55.5733401,8.45599728 57.0879917,8.184 58.8160003,8.184 C60.352008,8.184 61.8666595,8.40799776 63.3600003,8.856 C64.8533411,9.30400224 66.1759945,9.9013296 67.3280003,10.648 L65.3760003,14.84 C64.2239945,14.1359965 63.0026734,13.5760021 61.7120003,13.16 Z M81.3280004,13.16 C80.0373273,12.7439979 78.9333383,12.536 78.0160004,12.536 C77.1413294,12.536 76.448003,12.6959984 75.9360004,13.016 C75.4239978,13.3360016 75.1680004,13.8053302 75.1680004,14.424 C75.1680004,15.2133373 75.5359967,15.8159979 76.2720004,16.232 C77.0080041,16.6480021 78.1439927,17.0799978 79.6800004,17.528 C81.2160081,17.9760022 82.4799954,18.4239978 83.4720004,18.872 C84.4640054,19.3200022 85.3119969,19.9919955 86.0160004,20.888 C86.7200039,21.7840045 87.0720004,22.9679926 87.0720004,24.44 C87.0720004,25.8693405 86.6933375,27.1013282 85.9360004,28.136 C85.1786633,29.1706718 84.1386737,29.954664 82.8160004,30.488 C81.4933271,31.021336 79.9893422,31.288 78.3040004,31.288 C76.490658,31.288 74.7093425,30.9680032 72.9600004,30.328 C71.2106583,29.6879968 69.6960068,28.8133389 68.4160004,27.704 L70.4320004,23.576 C71.5626727,24.6000051 72.863993,25.4213302 74.3360004,26.04 C75.8080078,26.6586698 77.1519943,26.968 78.3680004,26.968 C79.413339,26.968 80.2293308,26.7760019 80.8160004,26.392 C81.40267,26.0079981 81.6960004,25.453337 81.6960004,24.728 C81.6960004,24.1519971 81.498669,23.6773352 81.1040004,23.304 C80.7093318,22.9306648 80.2080034,22.6266678 79.6000004,22.392 C78.9919974,22.1573322 78.1546724,21.8906682 77.0880004,21.592 C75.5519927,21.1653312 74.2986719,20.7386688 73.3280004,20.312 C72.3573289,19.8853312 71.5200039,19.234671 70.8160004,18.36 C70.1119969,17.485329 69.7600004,16.3226739 69.7600004,14.872 C69.7600004,13.5279933 70.1226634,12.3493384 70.8480004,11.336 C71.5733374,10.3226616 72.5866606,9.54400272 73.8880004,9 C75.1893402,8.45599728 76.7039918,8.184 78.4320004,8.184 C79.9680081,8.184 81.4826596,8.40799776 82.9760004,8.856 C84.4693412,9.30400224 85.7919946,9.9013296 86.9440004,10.648 L84.9920004,14.84 C83.8399946,14.1359965 82.6186735,13.5760021 81.3280004,13.16 Z M100.944,13.16 C99.6533274,12.7439979 98.5493384,12.536 97.6320005,12.536 C96.7573295,12.536 96.0640031,12.6959984 95.5520005,13.016 C95.0399979,13.3360016 94.7840005,13.8053302 94.7840005,14.424 C94.7840005,15.2133373 95.1519968,15.8159979 95.8880005,16.232 C96.6240042,16.6480021 97.7599928,17.0799978 99.2960005,17.528 C100.832008,17.9760022 102.095996,18.4239978 103.088,18.872 C104.080005,19.3200022 104.927997,19.9919955 105.632,20.888 C106.336004,21.7840045 106.688,22.9679926 106.688,24.44 C106.688,25.8693405 106.309338,27.1013282 105.552,28.136 C104.794663,29.1706718 103.754674,29.954664 102.432,30.488 C101.109327,31.021336 99.6053423,31.288 97.9200005,31.288 C96.1066581,31.288 94.3253426,30.9680032 92.5760005,30.328 C90.8266584,29.6879968 89.3120069,28.8133389 88.0320005,27.704 L90.0480005,23.576 C91.1786728,24.6000051 92.4799931,25.4213302 93.9520005,26.04 C95.4240079,26.6586698 96.7679944,26.968 97.9840005,26.968 C99.0293391,26.968 99.8453309,26.7760019 100.432,26.392 C101.01867,26.0079981 101.312,25.453337 101.312,24.728 C101.312,24.1519971 101.114669,23.6773352 100.72,23.304 C100.325332,22.9306648 99.8240035,22.6266678 99.2160005,22.392 C98.6079975,22.1573322 97.7706725,21.8906682 96.7040005,21.592 C95.1679928,21.1653312 93.914672,20.7386688 92.9440005,20.312 C91.973329,19.8853312 91.136004,19.234671 90.4320005,18.36 C89.727997,17.485329 89.3760005,16.3226739 89.3760005,14.872 C89.3760005,13.5279933 89.7386635,12.3493384 90.4640005,11.336 C91.1893375,10.3226616 92.2026607,9.54400272 93.5040005,9 C94.8053403,8.45599728 96.3199919,8.184 98.0480005,8.184 C99.5840082,8.184 101.09866,8.40799776 102.592,8.856 C104.085341,9.30400224 105.407995,9.9013296 106.56,10.648 L104.608,14.84 C103.455995,14.1359965 102.234674,13.5760021 100.944,13.16 Z" id="BLISSS"></path>
            <circle id="Oval" cx="115" cy="26" r="4"></circle>
        </g>
    </g>
</svg>