<?xml version="1.0" encoding="UTF-8"?>
<svg width="150px" height="100px" viewBox="0 0 150 100" version="1.1" xmlns="http://www.w3.org/2000/svg" xmlns:xlink="http://www.w3.org/1999/xlink">
    <!-- Generator: Sketch 51.1 (57501) - http://www.bohemiancoding.com/sketch -->
    <title>master</title>
    <desc>Created with Sketch.</desc>
    <defs></defs>
    <g id="master" stroke="none" stroke-width="1" fill="none" fill-rule="evenodd">
        <rect fill="#182169" x="0" y="0" width="150" height="100"></rect>
        <g id="Group" transform="translate(26.000000, 13.000000)" fill-rule="nonzero">
            <path d="M17.8228571,74.8382353 L17.8228571,69.9852941 C17.8228571,68.125 16.6495238,66.9117647 14.6380952,66.9117647 C13.632381,66.9117647 12.5428571,67.2352941 11.7885714,68.2867647 C11.2019048,67.3970588 10.3638095,66.9117647 9.10666667,66.9117647 C8.26857143,66.9117647 7.43047619,67.1544118 6.76,68.0441176 L6.76,67.0735294 L5,67.0735294 L5,74.8382353 L6.76,74.8382353 L6.76,70.5514706 C6.76,69.1764706 7.51428571,68.5294118 8.68761905,68.5294118 C9.86095238,68.5294118 10.447619,69.2573529 10.447619,70.5514706 L10.447619,74.8382353 L12.207619,74.8382353 L12.207619,70.5514706 C12.207619,69.1764706 13.0457143,68.5294118 14.1352381,68.5294118 C15.3085714,68.5294118 15.8952381,69.2573529 15.8952381,70.5514706 L15.8952381,74.8382353 L17.8228571,74.8382353 Z M43.887619,67.0735294 L41.0380952,67.0735294 L41.0380952,64.7279412 L39.2780952,64.7279412 L39.2780952,67.0735294 L37.6857143,67.0735294 L37.6857143,68.6102941 L39.2780952,68.6102941 L39.2780952,72.1691176 C39.2780952,73.9485294 40.032381,75 42.0438095,75 C42.7980952,75 43.6361905,74.7573529 44.2228571,74.4338235 L43.72,72.9779412 C43.2171429,73.3014706 42.6304762,73.3823529 42.2114286,73.3823529 C41.3733333,73.3823529 41.0380952,72.8970588 41.0380952,72.0882353 L41.0380952,68.6102941 L43.887619,68.6102941 L43.887619,67.0735294 Z M58.8057143,66.9117647 C57.8,66.9117647 57.1295238,67.3970588 56.7104762,68.0441176 L56.7104762,67.0735294 L54.9504762,67.0735294 L54.9504762,74.8382353 L56.7104762,74.8382353 L56.7104762,70.4705882 C56.7104762,69.1764706 57.2971429,68.4485294 58.3866667,68.4485294 C58.7219048,68.4485294 59.1409524,68.5294118 59.4761905,68.6102941 L59.9790476,66.9926471 C59.6438095,66.9117647 59.1409524,66.9117647 58.8057143,66.9117647 Z M36.2609524,67.7205882 C35.4228571,67.1544118 34.2495238,66.9117647 32.992381,66.9117647 C30.9809524,66.9117647 29.64,67.8823529 29.64,69.4191176 C29.64,70.7132353 30.6457143,71.4411765 32.4057143,71.6838235 L33.2438095,71.7647059 C34.1657143,71.9264706 34.6685714,72.1691176 34.6685714,72.5735294 C34.6685714,73.1397059 33.9980952,73.5441176 32.8247619,73.5441176 C31.6514286,73.5441176 30.7295238,73.1397059 30.1428571,72.7352941 L29.3047619,74.0294118 C30.2266667,74.6764706 31.4838095,75 32.7409524,75 C35.087619,75 36.4285714,73.9485294 36.4285714,72.4926471 C36.4285714,71.1176471 35.3390476,70.3897059 33.6628571,70.1470588 L32.8247619,70.0661765 C32.0704762,69.9852941 31.4838095,69.8235294 31.4838095,69.3382353 C31.4838095,68.7720588 32.0704762,68.4485294 32.992381,68.4485294 C33.9980952,68.4485294 35.0038095,68.8529412 35.5066667,69.0955882 L36.2609524,67.7205882 Z M83.0266667,66.9117647 C82.0209524,66.9117647 81.3504762,67.3970588 80.9314286,68.0441176 L80.9314286,67.0735294 L79.1714286,67.0735294 L79.1714286,74.8382353 L80.9314286,74.8382353 L80.9314286,70.4705882 C80.9314286,69.1764706 81.5180952,68.4485294 82.607619,68.4485294 C82.9428571,68.4485294 83.3619048,68.5294118 83.6971429,68.6102941 L84.2,66.9926471 C83.8647619,66.9117647 83.3619048,66.9117647 83.0266667,66.9117647 Z M60.5657143,70.9558824 C60.5657143,73.3014706 62.2419048,75 64.84,75 C66.0133333,75 66.8514286,74.7573529 67.6895238,74.1102941 L66.8514286,72.7352941 C66.1809524,73.2205882 65.5104762,73.4632353 64.7561905,73.4632353 C63.3314286,73.4632353 62.3257143,72.4926471 62.3257143,70.9558824 C62.3257143,69.5 63.3314286,68.5294118 64.7561905,68.4485294 C65.5104762,68.4485294 66.1809524,68.6911765 66.8514286,69.1764706 L67.6895238,67.8014706 C66.8514286,67.1544118 66.0133333,66.9117647 64.84,66.9117647 C62.2419048,66.9117647 60.5657143,68.6102941 60.5657143,70.9558824 Z M76.8247619,70.9558824 L76.8247619,67.0735294 L75.0647619,67.0735294 L75.0647619,68.0441176 C74.4780952,67.3161765 73.64,66.9117647 72.5504762,66.9117647 C70.287619,66.9117647 68.527619,68.6102941 68.527619,70.9558824 C68.527619,73.3014706 70.287619,75 72.5504762,75 C73.7238095,75 74.5619048,74.5955882 75.0647619,73.8676471 L75.0647619,74.8382353 L76.8247619,74.8382353 L76.8247619,70.9558824 Z M70.3714286,70.9558824 C70.3714286,69.5808824 71.2933333,68.4485294 72.8019048,68.4485294 C74.2266667,68.4485294 75.232381,69.5 75.232381,70.9558824 C75.232381,72.3308824 74.2266667,73.4632353 72.8019048,73.4632353 C71.2933333,73.3823529 70.3714286,72.3308824 70.3714286,70.9558824 Z M49.3352381,66.9117647 C46.9885714,66.9117647 45.312381,68.5294118 45.312381,70.9558824 C45.312381,73.3823529 46.9885714,75 49.4190476,75 C50.592381,75 51.7657143,74.6764706 52.687619,73.9485294 L51.8495238,72.7352941 C51.1790476,73.2205882 50.3409524,73.5441176 49.5028571,73.5441176 C48.4133333,73.5441176 47.3238095,73.0588235 47.072381,71.6838235 L53.0228571,71.6838235 L53.0228571,71.0367647 C53.1066667,68.5294118 51.5980952,66.9117647 49.3352381,66.9117647 Z M49.3352381,68.3676471 C50.4247619,68.3676471 51.1790476,69.0147059 51.3466667,70.2279412 L47.1561905,70.2279412 C47.3238095,69.1764706 48.0780952,68.3676471 49.3352381,68.3676471 Z M93,70.9558824 L93,64 L91.24,64 L91.24,68.0441176 C90.6533333,67.3161765 89.8152381,66.9117647 88.7257143,66.9117647 C86.4628571,66.9117647 84.7028571,68.6102941 84.7028571,70.9558824 C84.7028571,73.3014706 86.4628571,75 88.7257143,75 C89.8990476,75 90.7371429,74.5955882 91.24,73.8676471 L91.24,74.8382353 L93,74.8382353 L93,70.9558824 Z M86.5466667,70.9558824 C86.5466667,69.5808824 87.4685714,68.4485294 88.9771429,68.4485294 C90.4019048,68.4485294 91.407619,69.5 91.407619,70.9558824 C91.407619,72.3308824 90.4019048,73.4632353 88.9771429,73.4632353 C87.4685714,73.3823529 86.5466667,72.3308824 86.5466667,70.9558824 Z M27.712381,70.9558824 L27.712381,67.0735294 L25.952381,67.0735294 L25.952381,68.0441176 C25.3657143,67.3161765 24.527619,66.9117647 23.4380952,66.9117647 C21.1752381,66.9117647 19.4152381,68.6102941 19.4152381,70.9558824 C19.4152381,73.3014706 21.1752381,75 23.4380952,75 C24.6114286,75 25.4495238,74.5955882 25.952381,73.8676471 L25.952381,74.8382353 L27.712381,74.8382353 L27.712381,70.9558824 Z M21.1752381,70.9558824 C21.1752381,69.5808824 22.0971429,68.4485294 23.6057143,68.4485294 C25.0304762,68.4485294 26.0361905,69.5 26.0361905,70.9558824 C26.0361905,72.3308824 25.0304762,73.4632353 23.6057143,73.4632353 C22.0971429,73.3823529 21.1752381,72.3308824 21.1752381,70.9558824 Z" id="Shape" fill="#FFFFFF"></path>
            <rect id="Rectangle-path" fill="#FF5F00" x="35" y="6" width="26" height="47"></rect>
            <path d="M37.4656357,30 C37.4656357,20.4166667 42.0120275,11.9166667 49,6.41666667 C43.8642612,2.41666667 37.3814433,0 30.3092784,0 C13.5549828,0 0,13.4166667 0,30 C0,46.5833333 13.5549828,60 30.3092784,60 C37.3814433,60 43.8642612,57.5833333 49,53.5833333 C42.0120275,48.1666667 37.4656357,39.5833333 37.4656357,30 Z" id="Shape" fill="#EB001B"></path>
            <path d="M98,30 C98,46.5833333 84.4450172,60 67.6907216,60 C60.6185567,60 54.1357388,57.5833333 49,53.5833333 C56.0721649,48.0833333 60.5343643,39.5833333 60.5343643,30 C60.5343643,20.4166667 55.9879725,11.9166667 49,6.41666667 C54.1357388,2.41666667 60.6185567,0 67.6907216,0 C84.4450172,0 98,13.5 98,30 Z" id="Shape" fill="#F79E1B"></path>
        </g>
    </g>
</svg>